<svg xmlns="http://www.w3.org/2000/svg" width="271" height="180" fill="none" viewBox="0 0 271 180"><path fill="#f5beb1" d="M27.5 38.2q0 .3-.4.4l-.5.1h-1.7l-.2.1H24l-1 .1h-1.2v-.1l-1.3-.2h-.3v-.1H20l-.2-.1h-.2l-.1-.1-.4-.1-.4-.1V38h-.2l-.3-.2v-.1h.1l-.2-.1H18v-.1h-.2l-.2-.3h-.2l-.2-.1-.2-.2-.3-.3h-.1l-.1-.2-.4-.3H16V36h.1q-.1 0 0 0l-.2-.1-.1-.1h-.1v-.2h-.2l-.1-.1-.2-.3-.2-.1-.1-.2h-.1l-.2-.2v-.2h-.1q-.2 0 0 0l-.2-.1-.3-.5q0-.2-.3-.3v-.2h-.1V33v.2l-.1-.1-.1-.1v-.1h-.1v-.1l-.2-.2v-.1l-.2-.1-.1-.2-.1-.1-.2-.4h-.1l-.3-.5v-.1l-.2-.2v-.2h-.1l-.2-.3h-.1v-.3l-.5-.7v-.2l-.2-.1h.1q0-.2.2 0V29q0-.2-.1 0-.2 0-.2-.2v.1-.2h-.1l-.1-.2v-.2h-.1V28h-.1v.1-.2h-.1v-.2l-.1-.1v-.4h.1v-.1h-.2v-.3l-.1-.1h.1v-.3l-.1.2v-.1l-.1-.2h.1v-.2l-.1-.3.1.2v.2l.2-.2H10l-.1-.3v-.5l.1-.1v-.8h.1V24h.1v-.2l.1-.3.1-.1v.9l-.1-.2v1.8l.2.8v.2l.2.4.1.4.2.3v.3l.5.9.5 1h.1l.1.3.2.1q0 .3.2.4v.1l.4.6.3.4.4.7.8 1 .3.3.1.1.3.4.3.3v.1h.1l.8.8.1.2.2.2.3.2q.1.2.4.3a9 9 0 0 0 4.4 2h.5v.1h4.3l.8-.2q.5 0 .5-.4c-.4-.3-.2-.2-.4 0M9.7 25.5v-.2zM18.8 38v-.1M10 23v.1m19.4 10.6-.5-.9q0-.2-.3-.5l-.3-.6v-.1l-.2-.2-.4-.4-.2-.3-.3-.3-.2-.2q0-.2-.2-.2v-.2h-.1l-.2-.2h.1l-.9-.7-.1-.2h-.2l-.2-.2-.1-.1H25l-.3-.2-.3-.2q-.1-.1-.2 0l-.2-.2v-.2h-.4v-.1h-.2l-.1-.2h-.4l-.2-.1-.3-.2H22l-.4-.2-.2-.1h.2-.3v-.1H21v-.1h-.2l-.2-.2h-.3l-.1-.2v.1H20V26h-.4l-.4-.2q-.2 0 0 0h-.3v-.1h-.2v-.1h-1.2v-.2l-.2.1-.3-.1-.5-.1h-.3l-.2-.1h-.3v-.1h-.1l-.2-.1-.7-.2v-.1h-.4l.1-.2H14h.1-.4v-.2h-.1l-.1-.1-.1-.1h-.2l-.1-.1H13v-.2h-.2v-.2h-.2l-.1-.1h-.1v-.1h-.2l-.1-.1v-.1l-.1-.1h-.2.2V23v.1h-.2l-.4-.2v.2h-.1v-.2h-.7v-.1h-.1l-.2.1h-.2l-.2.1h-.1v-.1h.2l.1-.1h.2l.2-.1-.1.1h.1l.1-.1h.9l.4.2.7.3v.1h.1l.3.2.3.2.2.2.2.2.8.4q.5 0 .8.3h.6q0 .2.3.2h.2l.5.1h.4v.1l.7.1q.6 0 1.1.3l.4.1.4.2.4.1.1.1 1 .3.1.2h.2q0 .2.3.2h.4l2 1.1.8.6.9.8.2.2.2.1.3.3.3.3v.1l.7.8.6 1 .3.4.7 1.5zM11.9 23h-.2zm8 3.1h-.1M33 9.7l-1-.8-1.1-1-.3-.1-.1-.1h-.1l-.6-.3-1-.4-.2-.1h-.3l-.2-.1-.2-.1h-.2l-.2-.1q.2 0 0 0l-.4-.1h-.2l-.1-.1.2.4.1.3v1.6l-.2.1V9l-.2.3h-.1l-.1.1-.2.3v.2h-.1l-.2.2-.2.1v.3l-.3.2-.3.3-.2.2-.3.4v.1h-.1v-.1l-.1.3h-.1v.1l-.2.2-.1.2-.2.3-.1.2v-.1.1l-.2.1v.1l-.1.3v-.1l-.2.2h.1v.1l-.1.2-.3.4v.1l-.2.3v.2h-.1v.1h-.2v.2h.1l-.1.2v.1h-.1v.2-.1l-.1.2v.2l-.2.1v.2H22v.1l-.2.4q0 .4-.3.6l-.1.4-.1.1v.2h-.1v.2H21v.1l-.1.2-.2.9h-.1v.3h-.2v1q0 .3-.1.2v.5-.1.2l-.1.1v.4-.1H20v.2h.2v.5-.1h-.1v.3l.1-.1v.8-.3l-.1-.1-.1.1h.1v.8c.1-.1.1.2.2 0v.1h-.1l.1.4.2.4v.7-.1q.3.1.2.3v.2l-.1-.1v-.2l-.1-.1-.1-.2-.1-.2h.1l-.1-.1-.1-.2-.1-.6-.1-.3v-.5l-.2-1v.1-1.2h.1v-.7q0-.5.3-1.1l.3-1.1q.2-.1 0-.2l.2-.3v-.2q.2-.1.3-.4 0 .2 0 0v-.1l.3-.6v-.1l.3-.5.4-.8.6-1.2.3-.4v-.1l.3-.5.2-.4h.1q0-.2 0 0l.7-1.2.2-.1.2-.2.2-.3.3-.4q1.1-1 1.6-2l.1-1V7l-1-1.2.5.1.5.2h.5l.1.1h.4l1 .4q0 .1 0 0 1.4.7 2.4 1.4l.6.5 1.5 1.4zM20.3 23.6l.1.2zm0-.4V23M28 10"/><path fill="#f5beb1" d="M31.6 12.3V12l-.2-.3v-.1l-.2-.2v-.2H31v-.1h-.1V11l-.2-.2v-.2l-.2-.1-.1-.1v-.1h-.1v-.1h-.1l-.1-.1-.2-.2h-.1v-.1l-.1-.1v-.1h-.1v-.1h-.1v-.2h-.1v-.1h-.1v-.1h-.1V9H29v-.2h-.2l-.1-.1h-.2v-.1.1h-.1V9h-.1v.4l-.1.1h-.1v.1H28v.2l-.1.1v-.2l.1-.1v-.3h.1v-.5l.3-.1h.4l.1.1.2.1.1.1.2.1.2.2v.1l.1.1.1.1.2.2v.1l.2.1q0 .3.4.5l.3.5.2.3.2.5h.1zq.1.2 0 0m2 17.7v.2zM44 20.3l.4-2V18l.4-2.6V14l-.1-.5-.6-2-.1-.3-.3-.5-.2-.3-.1-.4-.2-.2-.3-.4q.1.2.2 0l-1.8-1.9v-.1l-.4-.3-.3-.3-.3-.3-.4-.2-.2-.2-.5-.5-.6-.4-.1-.2q-.1-.2-.3-.1l-.5-.5h.1v-.1l-.3-.2-.5-.3-.3-.2-.1-.1h-.1l-.3-.3L36 3q-.1-.2-.2 0h.1l-.3-.3q-.2 0-.5-.4v.1l-.6-.6-.2-.1-.1-.1-.2-.1V2v-.4.2l-.1.4V3h-.1v.6l-.1.5v.5-.1.2l-.2.3.1.1v.6l-.1-.1v.9l-.3 1v.2-.1.9l-.2.1v.7-.2.7h-.1v.7l-.1.2v.6l-.1.2v.1l-.1.8v1.2h-.1v1.3l.1.5v.1q0 .2 0 0v.6l.2 1.5v.5l.1-.1v.4l-.1-.2v.1c0 .1-.1-.3-.1 0l.1.1.2.4v-.2.4q0-.1 0 0v.1q0 .1 0 0l.1.3q0-.1 0 0v1.2-.3l.1.3v.5-.1.5-.2.9-.1H33v.3c.1-.2.2.2.2.1v.7c0-.1 0 .2 0 0V23l-.1.2v.2q0-.1 0 0l.1.3v-.2.2l.1.2v.2-.4.4-.1l-.1.3.1.5v.1-.5c-.2.1 0-.2-.2-.2v.3l.1.5v1l.1-.2v.3q0-.2 0 0h-.1v.7l.2.8-.1.1v.1l.1.4v.5-.1l.2.6v.3-.1l-.1-.2V29v.2-.2.2l-.2-.3v-.4l-.1-.5.1.3V28l-.1-.2v-.4l-.2-.9V21l-.2-.4v-.7l-.3-2-.2-2v-.8l-.1-.4v-.9.1-1.6l.2-1v-.1l.3-1.5.3-2.4.1-.9v-.2l.2-.9.2-.8v.1-.4l.2-2.2c.1-.5.2 0 .2-.4V.7l.8.6.1.2.2.1.4.3q2 1.4 3.8 3.2 2 1.5 3.7 3.5l.5.7.2.3.9 1.7v.1q.1.1.2 0 .5 1.3.5 2.6l-.1 2.4-.2 1.3-.8 3.4q-.2 0-.1-.8m-10.9 6v-.1zm0-1v.3zm.1-.9v-.1zm0-1.8v-.2zM40 8.2"/><path fill="#f5beb1" d="M42.8 18.5v-.4l-.1-.6V17l-.1-.4v-.4l-.1-.5V15h-.1v-.7l-.1-.2v-.8h-.1v-.6l-.1-.1v-.2l-.1-.2V12l-.1-.1v-.2h-.1v-.3h-.1v-.5h-.1v-.4l-.2-.3h-.1V10h-.1v-.1H41v-.3h-.1v-.2h-.1v-.2h-.1V9h-.2.2l-.1-.1v-.2h-.1l-.1-.1-.2-.2v-.1H40l-.1-.1v-.1h.1l.1.1v.1h.1l.1.2.1.1.2.2.2.2.1.2.1.2.1.1v.2q.2 0 .3.3t.2.5v.4h.1v.3h.1v.2l.1.4.2.5v.6l.1.6v.3l.1.2.1 1 .1 1v.2l.1.4.1 1zm-18.5-7h-.9l-1 .1-.3.1H22q-.1.2-.4.2l-.7.3h-.1l-.2.1-.2.1h-1.6v-.1h-.2l-.2-.1h-.1V12q-.2 0-.3-.2h-.1v-.1h-.1q0-.2 0 0v.4-.1h-.1v1.4q-.2 0-.2.3v.1l-.2.4v.1H17c0 .2 0-.1 0 0v.4h-.1v.2l-.1.2v.2q-.2 0 0 0l-.2.2v.2l-.1.2v.2l-.2.3v.3h-.1v.3H16v.8q-.2 0 0 .1h-.2v.5l-.1.4v.5h-.1v1.4h-.2l.2.2v1.5-.1l.1.1v.2h.1-.1v.2h.2v.3l.2.1v.1l-.1-.2h-.2l.2.2v.3h.1v.4l.2.3.1.2v.2h.1l.2.2h-.2.1v-.1h-.1l-.2-.1v-.2l-.1-.1v-.1L16 24l-.1-.2-.1-.4-.3-.6h.1v-.1l-.2-.4v-.8q-.2-.4-.2-.9v-.8h.1V19h.1v-.1l.1-.5V18h.1l.2-.7.2-1 .2-.3.1-.4.2-.3v-.1l.4-.9.1-.1.1-.2.1-.2v-.4l.3-.9v-1.7l.1.2.5.5.2.2.2.1.4.2.8.1h.4l.7-.1h.1l1.8-.6.6-.1q.7 0 1.5.3zM16 24q0-.2 0 0m-.3-.7"/><path fill="#f5beb1" d="M16.6 38.6q-.4 0-.7-.3l-.6-.3-.1-.1q-.7-.2-1.4-1h-.3v-.1l-.1-.1v-.1h-.1l-.6-.4-1-.8h.1l-.2-.2-.2-.2-.2-.1v-.1l-.2-.2v-.1l-.3-.2h.1l-.5-.6-.5-.6v-.2l-.2-.1q0-.2-.2-.3l-.1-.2-.2-.2h.1l-.1-.2-.3-.4-.2-.4-.2-.2-.2-.4h.1v-.2L8 30l-.1-.2v-.1h-.1v-.3l-.1-.1-.1-.1-.1-.2-.2-.4h.1l-.2-.4v-.3l-.2-.6-.1-.1V27v.3-.6l-.1-.1V25l.1-.4.1-.3V24l.3-.6v-.1l.1-.3v-.2h.2V22l.1-.1v-.2.1h.1v-.5l.1-.2V21h.2q0-.3-.1-.2 0-.3.2-.5 0-.5.2-.7v-.1l.1-.4v-.2h.1v-.2l.1-.3V18H9v-.2l.1-.4v-.3h.1v.1l.4.4.3.3v.1l.2.1v.1h.1l-.2.1q.1.2.1 0c.2.2.2 0 .3.2l-.1-.1.2.2h.3v.2q.2 0 0 0l.2.1.1.1.2.2v-.1h.1l.1.1.2.2h-.1.2v.2h.3l.1.2H12v.1h.3c.2 0 0 .2.3.1h.1v.1h-.1q.2.2.2 0l.2.1h-.1.3-.2l.2.1.2.1h.3q.1 0 0 .1h-.4.5v.1l.5.2h.1v-.2l.2.1c-.3 0-.1 0-.2.1l.1.1.3.3.2.5v.2l.3.3h-.1l.1.2.2.4.1.2-.2-.2v-.2h-.1l-.1-.1-.1-.2-.2-.3.2.2-.1-.2-.2-.1-.1-.2-.3-.6h-.1L14 21l-.5-.2-1-.4v-.1h-.3l-.5-.3-.4-.3-.1-.1-.3-.1-.3-.3q-.6-.4-1-.9l-.2-.1-.1-.1-.1-.1v.1H9v.1l-.1.3v.3l-.2.5v.2l-.3.7v.1l-.1.6-.4 1-.4 1.6-.2.6-.2.6-.1.5v.2q-.1.8.1 1.4v.5h.1v.5l.3.5 1.3 2.8q.7 1.4 1.7 2.5l.3.5.2.1.7.8v.1h.1l2.3 1.9.7.4.9.6 1 .5zm-2.6-18h.2zm25.6 11.1h.2zm.5.3q.6.2 1 .8l.2.2.2.3.4.6v.2c.6.6 1.2 1.9 1.6 2.8l.3.5.3.3v.2l.1.1.9 1 .4.3.5.4 1 .6.4.2.4.5q.2 0 .3.3.2.1.3.4 0 .2.2.3l.2.5c0 .1-.1-.3 0-.1l.7 1.4q.3.8 1 1.2l.1.2h.2v.9-.1l-.2.6v-.1l-.2.5c-.2.2 0 0-.1.3l-.5.7-.3.3-.3.3-.2.1-.3.3-.7.3v-.1l-.2.1h-.2q-.2.3-.6.3h-.2l-.2.1h-.8q.1 0 0 0l-.3-.1h-.2l-.5-.1h.1l-.7-.2h.1l-1-.4h-.2l-.3-.2h.1l-1.1-.4h-.3l-.3-.2.5.2-.3-.1-.5-.2q.2 0 0 0l-.2-.1h-.3l-.3-.2H40v-.1h-.4l-.6-.4-.5-.1h-.2l-.3-.3h-.2l-.6-.2h.1l-.5-.2v.1s-.4 0-.3-.2h-.3l-1.1-.5h-.2.2-.2l-.6-.3H34l-.1-.2-.3-.2h-.1l-.2-.1H33h.3-.3l-.2-.2h-.2q-.2 0 0-.1h-.1l-.2-.1v-.1h-.1l-.4-.2-.2-.2-.3-.2-.3-.1q0-.2-.2-.3h-.2l-.4-.4-.3-.3h-.1l-.5-.6-.2-.2-.2-.3v-.2.2l-.3-.4-.2-.3-.2-.4v-.1l-.1-.2-.2-.3v-.4q0-.1-.1 0V39q-.4-.9-.3-1.9V37h.1v-.7h.2v-.1.2-.1c.2 0 0 .3.2 0v-.6.2l.1-.4q0 .1 0 0v-.1q.1-.2 0-.1l.3-.4s0 .3 0 0q.1-.1 0-.1h.2l.2-.3.2-.2q0-.2.3-.2l.1-.2-.2.2.2-.2.2-.2h.1l.3-.2-.1.2.2-.1v-.2h.4q.2-.2 0-.2h.2q.1 0 0-.1l.5-.2-.1.2.3-.1c-.2 0 .2-.3 0-.3l.6-.2h-.1l.2-.2q.1 0 0 .1l-.1.1h.2l.2-.2h-.1l.2-.2h-.2.2l.2-.3h.1l-.2.2.3-.2.3-.2.4-.4q.2-.2.1 0l-.5.4c.2 0-.2 0-.2.2q.2-.2.3-.1l.1-.1.5-.5.9-.3h.2l-.3-.1h.5c-.4 0 0 0-.1.1h.5l.4.1 1 .3.1.1h.1l.6.2h-.1q.3.3.5.2h.7v.1h.4-.2l-.3.1c-.1 0 .2 0 0 0l-.3-.1h.2-.2l.1.1h-.4q.2 0 0 0l-.4-.2-.6-.2h.4-.7v-.1h-.4l-1-.3h-.8l-1 .5-1.5 1.2.1-.1-.2.1-.2.2-.8.5-.9.4-.2.1-.4.4-.5.5q-.7.8-1 2l.1 2.3.1.4.2.6.2.4.2.4q0 .3.3.4H29c0 .1.3.5.3.3q.4.6.9 1v.1l.9.7.1.1 1.5 1 2.7 1.1.9.4h.2l1 .4 1 .4h-.2q.4 0 .4.2.1 0 0 0l2.5.8c.6.3 0 .2.5.3l.5.2.8.3 1 .3q1.3.6 2.7.4 1.4 0 2.3-1.2.6-.4.9-1l.4-1.5-.1-.2H50q0-.3-.3-.4l-.9-1.3-.4-1-.2-.3a4 4 0 0 0-1.4-1.6q.2 0 0 0v-.1h-.2l-1.2-.8-.6-.5-.5-.6q-1-1.2-1.6-2.5l-.8-1.4q-.4-1-1-1.8t-1.6-1.3h.2l.2.1z"/><path fill="#f5beb1" d="M39.3 31.8q-.2 0 0-.1m-5.3-.8.4-.2zm-1 .5-.1.1h.1m-1.8 1.1-.2.1h.2m-.9.5q-.1 0 0 0m12.8 3.1c0 .2.1-.1 0 .1m5.1 4.4.7-.5.7-.8h.1l1.2-2.1.1-.4.1-.3h.1v-.2l.4-.9.6-1.6.2-.3.1-.5.1-.2v-.1l.2-.3v-.2l.2-.4v.1l1-2.2v-.1l.1-.4h.1V29l.1.1.1-.5v.1l.2-.4V28l.2-.7.1-.6.1-.2v-.9h.1v-.4l-.1-.6q0 .2 0 0v-.1l-.1-.2v-.2l-.2-.4v-.3l-.1-.2v.1l-.2-.3h.1l-.3-.6v.1q0-.4-.3-.8l-.1-.2-.1-.2-.5-.8-.2-.2v-.2l.2.3-.2-.2-.2-.4-.1-.1-.2-.2-.1-.2-.1-.2-.2-.2-.4-.5-.3-.3h.1l-.1-.1-.2-.3H51l-.5-.3h.1l-.3-.3v.1l-.2-.1h-.2l-1-.3q-.3 0-.5.2h-.3l-.2.2h-.1l-.2.2.2-.1-.1.1-.2.2v.1h-.1v.2-.1.1l-.2.3v.2l-.1.3v.2c-.1.2-.2 0-.2.2l.1.2v1.9h-.1v1.9q0 .2 0 0v.5l-.1 1.5v.1h-.1v.6c-.1.2-.1-.2-.2-.1 0 .2 0-.2 0 0v.6-.2.5q0 .2 0 0v.3q0-.2 0 0v.2l-.1.3v.1l-.1.3v.2-.2.5l-.2.2v-.1.4-.1l-.1.2q0 .2 0 0v.3l-.2.3v-.2.1h-.1v.4l-.1.4v.2-.2l-.1.1v.5-.1.3l-.2.1q.2-.1 0-.3v.3l-.2.2-.1.5q0 .1-.1 0l.2-.4V31l-.2.2v.6h-.1l-.3.6v.2l.1-.1-.2.2q0-.1 0 0h-.1l-.2.5-.3.7-.2.1v.5h-.1q-.3.2-.2.4v.5h-.1v.3-.2l-.1-.1.1-.3v.2-.2.1-.6q.2-.1.3-.5v.3-.5l.2-.3.4-.8.2-.6.4-.7.5-1.4.1-.1v-.2l.2-.8.3-.7v-.7l.2-.5.3-2 .2-1.9v-2 .1-2.6h.1v-.1q.1-.7.5-1.5l1-.8 1.2-.2.8.2.2.1.8.5H51l.7.6h-.1l.2.2q.9 1 1.4 1.9l.2.4q0 .3.2.4l.3.6.5.8.8 2.5v2.5l-.8 2.3-.9 2-.3.8-.1.3-.7 1.5v.2l-1.8 4-.6 1q-1 1.5-2.5 2v-.1zm-3.3-8.6-.1.3zm1.1-2.4v-.2zm8.4-7v.1m-14.6 5.6"/><path fill="#f5beb1" d="m46.5 18.7-.2.2-.2.2-.4.3v.1h-.1v.1l-.1.3-.2.4-.1.2-.1.1v.2l-.1-.1q0 .3-.4.5l-.1.1h-.1v.1h-.1l-.1.2H44v.1l-.2.1v-.1h-.1v.3h-.2v.4l-.2.2v.3h-.1v.1H43v.3h-.1v.1h-.2v.4l-.3.2v.2h-.1v.3h-.1v.1l-.1.1v.1l-.1.2q0 .2-.2.3v.1h-.1v.2h-.1v.1h-.1l-.1.4h-.1v.1H41V26v.2l.1.1v.1H41v.3l-.1.1v.1l-.1.1h-.1v.1q0 .2 0 0v.2-.1h-.1v.1h.1v.1h-.2l.1.1v.1-.2h-.2l.1.1v.2h-.1v.1h.1-.1v.2l-.1.2h-.1v.3l-.1.1v-.2q-.1 0 0 0v-.2.1-.8l.2-.4.1-.2.1-.2v-.2h.1l.2-.5.2-.4q.1 0 0-.1h.1v-.2l.2-.1v-.1l.2-.2v-.2l.3-.3q0-.3.3-.5v-.2h.1v-.2l.2-.1.3-.5.2-.1v-.2l.1-.2.4-.5.5-.4.7-.6.2-.1v-.1l.2-.4v.1q.2-.6.6-1l.2-.2.9-.4q-.2-.4-.3-.2m-6 8.9v.1m15-3.1.4-.4q.3 0 .5-.3h.1l1.2-.5.2-.2.1-.1h.1v-.1q0-.2.3-.4.4-.4.6-1v.1-.2q.2 0 .2-.3V21h.1l.1-.3v-.1l.1-.2q.4-.6.6-1.3l.1-.3.1-.2v-.2h.1v-.5l.1-.4v-.4h.1v-.7h.1V15l-.1-.2-.1-.3V14h-.1v-.3l-.2-.5-.1-.1v-.2q.1.2 0 .2l-.1-.3v-.1l-.1-.1v-.2l-.1-.1-.2-.2v-.3q-.2 0-.3-.2h.1l-.1-.2h-.1l-.2-.3-.1-.3v.1l-.1-.2h-.2l-.3-.6-.3-.3q-.3-.2 0-.2h-.3v.1l-.1.1v.3l-.2.1v.3l-.2.1v.1q0 .3-.2.4v.1l-.4.5q0 .3-.3.3v.1H56v.2l-.2.2-.3.1q-.3.3-.8.4h-.3v.1h-.1v-.2q-.2 0-.1.1c-.2 0 0 .2-.2.2v-.1h-.2v.1h-.2v-.1.1H53h.1-.7v.1h-.2v-.1H52q.1.1 0 .2l-.1.1v.1h-.1v-.1h-.1v.4h-.1v-.2.2h-.2v.3h-.1l.1-.3v-.1h-.1v.1l-.1.3-.3.3v.2h.1v-.1.1l-.2-.1-.2.4-.2.4h-.2v.3-.1H50l-.2.2-.1.3-.1.1V16l.2-.1h-.1v-.2l.2-.1.1-.3v.2-.3h.1V15l.4-.4.2-.3.3-.4.5-.8v.1l.1-.2.4-.2.5-.1h.7l1-.2q.6 0 1-.3l.1-.1.2-.2.2-.1.2-.3.1-.2q.3-.2.4-.5 0-.2.3-.5 0-.5.4-.8.1-.3.4-.3l.6.1.3.3.2.3.4.4v.1l.4.5.2.4.1.2.7 1.3v.3h.1v.3h.1l.1.4.2.6a9 9 0 0 1-1 6.2l-.1.2-.5.8q-.1.2 0 .1-.8 1.2-2 1.9l-.5.3-.8.3q-.4.2-.6.6-.3 0 0-.3m-5.9-8.1h.1m1.5-1.8v.2zM50.8 47l2 .4v.1l2.3.3h.4l.4-.1h.1l.9-.3 1.5-.7.3-.2.4-.3.2-.1h.1l.3-.2h.2l.3-.3c.1 0-.2.1 0 .1l1.8-1.2h.2l.3-.3.3-.2.3-.2.3-.3.2-.1.5-.4.5-.4h.2v-.3l.5-.4q.2 0 0 .1h.2l.2-.2.3-.4.2-.3.1-.1q0-.2.3-.2l.2-.2.1-.2v.1l.2-.3v.1l.4-.5v.1l.5-.5.1-.2.2-.2v.1l.5-.7.1-.2.2-.1c0-.2-.3.4-.2.2l.2-.1q0-.2.2-.3l.1-.2.1-.1.2-.2.1-.2.2-.2.4-.4.2-.3v-.1l.3-.2v-.2l.3-.4v.1l.3-.4V35l.2-.2.6-.7v-.2.2-.1q0-.2 0 0l.1-.5v-.2q0-.2.1-.1v-.3l-.1-.2-.1-.1v.2-.2l-.2-.2H72v-.2h-.2.1l-.1-.2-.3-.1-.2-.2-.3-.2h-.2l-.1-.3h-.2l-.6-.3h-.1l-1-.5-.6-.2h-.3l-.2-.1-.4-.1h-.1q-.2 0 0 0l-.5-.2-1.4-.1h-.1v-.2h-.4c-.2 0 .2 0 0-.2-.1 0 .2 0 0 0h-.1c-.2 0 0 .2-.3.1h.1-.4q-.1 0 0 0h-.3q.1 0 0 0h-1 .2-.7.1-1.1l.1-.1v-.1H61c.2 0-.2.1-.1.2q-.2-.2-.4 0h-.2c.1 0-.2 0 0 0h.2l-.2-.1h-.2l-.2.1h.2l-.2.1h-.3.2-.5l-.5.1q-.1 0 0 0l.4-.1.2-.1-.2-.1H59v.1l-.4.1q-.2 0 0 0H58c.1.1-.3.2-.2.2h.2-.2v-.1h-.1l-.5.2-.7.2h-.2l-.4.2V30l-.4.2h.1l-.5.2h-.3l.3-.2v.1l.2-.1.2-.2v.1l.3-.2.4-.2-.2.2h.2l.2-.2q.2 0 .3-.2l.8-.2.6-.1.7-.2 1.5-.2h.3l.7-.1h1.9l1.8.2q1 0 2 .3h-.2.4q.3 0 .5.2h.3l.8.2h-.1q.3.3.3.1l1.1.5h.1l.8.5 1.3 1 .5.6.2.8q-.1.9-.5 1.3l-.5.6v.2q-.4.3-.6.7v-.1l-.5.6-.1.2-1.3 1.7c-.4.3-.2-.1-.4.2l-.2.3-.5.5-.5.6a45 45 0 0 1-6.8 5.6l-.7.3-.2.2-1.4.8q.1 0 0 0l-.1.1-2 .8-2.1.1-1.2-.1-3-1q-.3.3.4.3m7.5-17.4-.3.1zm.7-.1h.2zm1.7-.1h.2zM55.3 36"/><path fill="#f5beb1" d="M69.6 33.3q-.1.3-.5.4l-.8.3H68l-.3.2-.5.2H67v.1h-.3v.1l-.7.2h-.2v.1h-.2l-.1.1h-.3l-.2.2h-.4l-.1.2h-.3l-.1.1H64l-.2.2h-.2l-.3.1v.1h-.6l-.1.1h-.3v.1h-.2v.1H62q-.2.2-.3.1l-.2.1H61h.1-.3l-.1.1h-.3v.1h-.2l-.4.1h-.3v.1h-.4l-.4.1h-.5l-.1.1h-.6l-.1-.1h-.6l.1-.1h-.4v-.1h.2-.2l-.2-.1h-.1v-.1H56l-.2-.2h-.2v-.1h-.1l-.2-.1V36h.3l.1.2h-.1.2l.3.2h.2l.3.1.5.1h.3l.2.1h1.6l.2-.1h.4v-.1h.4v-.1h.3v-.1h.4l.7-.3h.3l.3-.2h.3l.6-.3h.4l.3-.2 1.3-.5 1.3-.4.2-.1.5-.2 1.3-.5.4-.1.4-.2.2-.3zm-13 3.5h-.1m-42.6.8v-.1M39 48l.1 1.7q0 1-.5 2l-.1.4-.1.3h-.1v.1q0 .4-.3.7-.4.7-1 1.2l-.1.2-.3.3-.2.1-.3.2-.2.1-.2.2v-.1l-1.8.7h-.5l-.3.1h-2.3l-.5-.2v-.1l-.3-.1h-.4v-.1h-.3v-.1H29l-.2-.2-.2-.2h-.4l-.4-.3h.1l-.5-.4-.2-.1-.1-.1-.5-.5h-.2l-.1-.2.2.2-.1-.1-.3-.2-.1-.2h-.2l-.1-.2h-.1l-.3-.2-.3-.3-.3-.1v-.1l-.3-.2-.4-.2q0-.2-.3-.2h-.1l-.2-.1-.7-.5h-.1.1q-.2 0 0 0l-.5-.2H22v-.2h-.3v-.1h-.1l-.1-.1-.2-.1h-.2v-.1H21h.1l-.1-.2h-.2l-.2-.2-.2-.1h-.2v-.3H20l-.5-.4-.7-.6q-.4 0-.4-.3l-.2-.2-.2-.1-.3-.3v-.1l-.2-.3-.5-.4-.4-.5q0-.1 0 0l-.1-.3h-.2V46q.1-.2.2 0v-.1q0-.1 0 0c-.2-.2-.2 0-.3-.2v-.2H16l-.2-.2.1-.1h-.1v-.3h-.1l-.2-.3v-.1.2l-.1-.2-.1-.2-.1-.2h-.1v-.3H15v-.1h-.1v-.3h.1l-.1-.2c0 .2-.2-.1-.2 0l-.1-.4v.1l-.2-.2h.2v.1-.1l-.1-.2v.1l-.1-.2v.1l-.2-.2v-.1l.2.2-.1-.3V42h-.1l-.2-.3q0-.2 0 0l.2.3v.1l.1-.2-.3-.4v-.6c-.1.2-.2-.2-.2 0v-.2q0 .1 0 0l-.1-.4-.1-.7v-.2l-.1-.3h.1v-.4.1q-.2-.2-.1-.5V38v.5-.1.2l.1.2.1.4-.1-.2v.2l.1.2.1.3.2.6.1.5.2.7.2.5.3.6h-.1l.1.2q0 .3.3.5l.3.6v.2l.3.2.2.5.4.6.5.6.4.6.5.5q.1.3.2.2l.2.3.2.2.5.5v-.1l.2.2.3.3.4.3.6.4 1 .7 1.7 1q.3 0 .5.3h.1l.6.4.6.4h-.1l.2.1 1.4 1c.3.4 0 .2.2.3q.3.1.2.2h.1l.4.4.5.4q1.6 1.1 3.4 1.3t3.4-.5q.4 0 .6-.2l.2-.1 1-.9q0 .1 0 0 .2 0 0 0a7 7 0 0 0 2-4q.3-1.3-.1-2.6.6-.2.8.3M14 37.8h-.2zm.3 3.4-.1-.3zm.2.6v.1M28.3 55v.1M14.4 38.7"/><path fill="#f5beb1" d="M18.9 46.6q-.2 0-.3-.3l-.2-.4v-.1l-.2-.2-.2-.3V45l-.1-.1-.1-.4v-.1h-.1V44h-.1v-.3l-.1-.1v-.2h-.1v-.1h-.1V43l-.1-.2v-.2l-.1-.1v-.2L17 42v-.3h-.1v-.2h-.1v-.2l-.1-.1v-.1h-.1V41h-.1l-.1-.1v-.1l-.1-.2-.2-.3H16V40h-.2v-.1h-.1l-.1-.1v-.1h-.1v-.1h-.2v-.1h-.1v-.1H15h.1v-.1H15V39v.1-.1h-.2l-.1-.1h-.1l-.1-.1h-.1.3-.1.1l.2.1h.1l.2.2.2.1.2.2v.1h.1l.2.2.2.2q0 .3.3.4v.1l.1.2.2.2v.2l.2.3.1.4.1.1v.2l.1.2.1.4v.3l.1.2.3.8.2.8v.2h.1l.1.3.3.8.1.2.3.5q.2-.1 0-.2M15 39q0 .2 0 0m-2 2v-.1m4.2 6.4-.7.2h-.7l-.1-.1-.8.2-.9.3-.2.1-.2.1h-.1l-.7.3-1.2.4H11l-.2.1H10q.1 0 0 0H8.3l-.3-.1h-.3l-.3-.1h-.1l-.5-.1-.5-.1v-.1H6l-.4-.2h.1l-.2-.2h-.6l-.1-.1q-.2 0-.2-.2h-.2l-.1-.1-.2-.1-.3-.2-.4-.3h-.1l-.1-.1-.5-.4-.1-.1-.1-.2.2.2h-.1l-.2-.3h-.1L2 46v-.2l-.2-.2-.1-.3q-.2 0-.2-.3l-.1-.2h-.1l-.2-.4q0 .2 0 0v-.2l-.1.1v-.2H.8l-.2-.7H.4L.3 43v-.6H.1v-.8l.2-.1v-.3l.1-.1.2-.1v-.2l.6-.3q.5-.2.8-.1h1v.1h.4l.3.1h1.1v.1h.4c.1 0-.2 0 0 .1q-.1 0 0 0l.3-.1h-.1.3q.2 0 0 0H6v.1l.1-.1.2.1h.9H7h.3v.1h.5-.1v.2H8l.1-.2c.2 0 0 .2.3 0h.2-.2l.1.2h.1V41H9h-.1.2l.2.1h.3q.1 0 0 0H9l.2.1h1.1v.1h1v.1h.5v.1h.2l.4-.2h.2l-.2.2v-.1h-.2v.1l-.1.1h-.6.2H10l-.6-.1-1.1-.1h-.8l-.6-.1H4.7v-.1L3.4 41h-.8l-.5-.1h-.8v.1q-.3 0-.4.3l-.4.8q0 .8.3 1.4l.2.5q0 .3.3.5l.3.4h-.1l.1.2 1 1 .1.2.2.2.3.3.5.3a10 10 0 0 0 4.2 1.6l1.5.1h.7l1.2-.1h.1l1.5-.5 1.3-.5.5-.2.4-.1h1.2l1-.2q.3-.3-.1 0M9.9 41h.2zm-.7 0v-.1M1 44.3H.8m.8-2.1"/><path fill="#f5beb1" d="m13.1 45.8-.5.2h-1l-.2.1h-.7l-.2.1H8.2V46H6.8l-.1-.1q.2 0 0 0H6q0-.2 0 0l-.1-.1h-.4l-.3-.1H5q0-.2-.1 0v-.1h-.6q0-.1 0 0v-.1H4q-.2 0-.3-.2h-.3l-.1-.1-.2-.1L3 45h-.1v-.1h-.1v-.1h-.1v-.1h-.2v-.1h-.1v-.1h-.1v-.1H2v-.2q-.1 0 0 0V44l-.1-.2h-.1.1l-.1-.1h-.1v-.1l-.1-.2v.1h.1v-.2l-.1-.2h-.1v-.4l-.1-.2-.1-.2v.1l.1.1v.1l.1.1v.2l.2.2v.2l.2.3.2.2v.2l.2.1v.1l.4.3.4.3.2.1h.1l.2.1.3.1h.3v.1l.4.1.6.2h.5l.2.1h.6l.1.1h.1l.2.1h2.7l.2.1h.6l1.2-.2h.3l1-.2q.5.2.2.2M1.9 43.4l-.1-.1m.2.3q-.1 0 0 0m22.2 10.2q-.6.5-1 1.1H23q-.4.8-1.3 1.2l-.3.2-.2.2H21q-.2.3-.6.5l-1.1.7H19l-.3.2-.2.1h-.3l-.2.2-1.7.2H15q0-.2-.2 0v-.1h-.5l-.4-.3h-.1q-.2-.1-.2 0l-.4-.3-.2-.2h-.5l-.1.1h-1v-.1H11h.1l-.6-.2h-.3l-.6-.3h-.2v-.1h.2-.2l-.2-.1-.2-.1h-.1l-.2-.2-.3-.1L8 56l-.3-.2-.1-.2h-.1l-.1-.2v-.3q0 .1 0 0l.1-.3.1-.1.1-.2.5-.5h.1l.1-.4.1-.1h.1v-.2h.1v-.9.1h1l.1.2h.7l.8.2v.1q.1 0 0 0h.5l.2.1h.2l.3.1h.1l.3.2h1q.1 0 0 0l.3-.1.1-.1c.2 0-.1.2 0 .2.2 0-.1 0 0 0h.1l.2-.3v.1h.1v-.1h.1V53l.2-.1v.1l.1-.1h.4l.2-.1h.1-.1l.2-.1h.1v-.1h.2l.1-.1h.2-.1.1q.1 0 0 0 .2-.1.2 0v-.1h.3-.1.2l.1-.2h.3l.1-.2v.2l.1-.1.1-.1h.1l.1-.2v-.2q0-.1 0 0v.3h.1v-.2l-.2-.2q0-.1.1 0l-.2-.5c0 .1-.2-.2-.2 0h.1v-.2l-.3-.2-.4-.5v-.2l-.1-.3v-.3l-.1-.4v-.2.1l.1.2v.1l.1.2v.2l.2.3-.1-.2v.2l.2.2.1.2.4.5.3.3.3.6v.6l-.6.5v-.1l-.2.2q-.3 0-.5.2l-.6.1h-.1l-.3.2-.5.1-1.3.5h-1.5q-.2-.1-.2 0l-.4-.2H12l-.6-.2q.1 0 0 0h-.2l-.8-.2h-.7V53h-.5q-.2 0 0 0v.1l-.1.3-.2.5-.5.7q-.1.3-.4.5l-.2.2v.2l.3.3v.1h.1q.6.5 1.2.7c.3.2 0 .2.3.2l.2.2h.5v.1h.6q.3.3.8.2h.8l.9.3.7.4q1.4.4 3.2.2l.5-.1.2-.1 1.1-.4h.1a14 14 0 0 0 3.4-2.3l1.8-1.6q0-.3-.3.1M18 51.2l-.2-.2zm-.8 1H17zM7.3 55v-.2zm6.4 3v-.1m11.6-4.4"/><path fill="#f5beb1" d="m30.3 56-1.4.6h-.1q-.7.4-1.7.7l-.2.2-.2.1h-.2v.2l-.1.7-.4 1.2-.1.3-.1.3-.1.3-.2.2v.2l-.2.2q-.4.7-1 1.3l-.2.1-.1.2-.2.2-.3.2-.2.2v.1l-.4.4q-.3 0-.5.3h-.1l-.1.2-.4.3v-.1h-.1l-.2.1-.3.3-.2.1h-.1l-.3.2h-.2q-.1 0 0 .1H20l-.4.2-.6-.2-.2-.1-.5-.4h-.2v-.2c-.2 0 .3.2.1.1h-.1l-.2-.3h-.1v-.1h-.2v-.2h-.2V64l-.2-.1-.2-.3-.2-.2h-.1l-.1-.3h-.1l-.3-.2h.1l-.2-.3v.1l-.2-.2q-.4-.3-.5-.6h-.1v-.1l-.3-.2v-.2q-.2 0 0-.1l-.2-.2V61v.2l-.2-.2v-.5.1-.6l.2-.2v-.2h.3v-.2l.4-.1h.8l.3.1h.9l.3-.1h.5q.4-.3 1-.3h.3l.2-.1c.2 0-.1.1 0 .2l.1-.1.2-.2v.1h.2v-.1h.1l.2-.1v.1l.1-.1h.4l.2-.1h.1-.1l.1-.1.2-.1h.2-.1.1v-.1l.1-.1h.2v-.1h.4v-.2c.1-.2.2 0 .2-.2v-.2l.1.1.2-.1h-.1l.1-.2.2-.2v.2l.1-.2.1-.1.1-.4h.1l-.2.3v.2h.2v-.6h.1l.3-.4V56h-.1l.1-.1h.2l.1-.4q.3-.2.3-.5h.1v-.2l.1-.3v.1h.1l.1-.3.1-.4v-.1h.2v.2h-.1l-.1.2V54v.2-.1.4l-.2.4v-.3.2l-.1.2v.3l-.4.5-.2.5-.4.5-.7 1v-.1.2l-.5.4-.6.3h-.2l-.3.2-.4.1-1.4.3-1.5.4v-.1H18l-.4.2h-.9.1-.7l-.4-.2-.4.2v.1q-.3.3-.3.8.2.7.8 1.3.3.1.4.4h.1l.4.5q.1.3.4.5h.1q.5.6 1.2 1c.2.4-.1.2.2.3q0 .2.2.2l.3.3h.6q.7 0 1.5-.4a12 12 0 0 0 3.6-3.3q.3-.1.4-.4l.1-.2.5-1.1q.2-.2 0-.2l.3-.7.3-.8.2-.4.4-.4.8-.3.8-.4 2.4-.7zm-6.7.4.1-.2zm-1.2 1.4-.1.1m-.3.3q-.2 0 0 0m12.6 86.3q0 .4-.4.8l-.7.5h-.2l-2.1 1v-.1l-.4.2-.2.2h-.2q-.3.4-.7.6l-1.2 1-.2.3-.3.3-.1.3-.2.2-.2.2v.3l-.1-.1-.2 1.1q0 .8.5 1.4l.1.2.4.4.4.4.5.4H29l.6.3h-.1l.4.2.8.5 1 .5.2.2s.5.3.3.1l1 .4c-.2 0 0 .2-.2 0l.2.2h-.1l.5.2.8.2q-.1 0 0 0l.2.1h.2l.2.2h.1l.5.2.4.1h.3-.1l.5.2.8.2h-.1l1.2.2.3.1h.3-.1l1.7.2.3.1h-.5 3.9-.1.7q.2-.1 0-.2h.8q-.2 0 0 0h.5-.1l.3-.1.3-.1 1.2-.3h.1-.1.2q.3 0 .5-.3h.5l.2-.2h.3l.2-.1h-.3.2l.3-.2h.2-.2.2l.1-.2v.1h.2l.2-.2.3-.2.3-.1.2-.2h.2q.3-.2 0-.2l.7-.4v-.1l1-.7q.1-.3.4-.4l.3-.3.1-.2.3-.3h.1v-.1l.4-.3.7-1.1.1-.2h.1l.2-.2h-.1l.1-.2h.1l.1.2v-.1q.1.2.1 0v-.4.1l.2-.3h-.1v-.1l.2-.3q0 .1 0 0 0-.2.1 0 0-.3.2-.3v-.1l.1-.3v-.1.1-.4h.1v-.2.1-.4.2-.8.1h.1v-.2c0 .2-.3-.2-.3-.1l-.2-.4-.2-.1q0-.1.1 0h.1l-.2-.2-.2-.2v.2-.1l-.3-.2v-.1l.2.2-.2-.3v.1l-.1-.2h-.1l-.4-.4q-.1-.2 0 0 0 .2.4.3l.2.2q-.2-.2-.1-.3h-.1l-.5-.4-.5-.6c0 .2-.2-.2-.2 0q.2 0 0 0h.1l-.2-.2q.1.2.1 0l-.5-.5-.6-.7v-.1l-.1-.1-.4-.3h.1l-.3-.4-.4-.5v-.1l-.2-.1.3.2.1.3v-.1l.2.2.3.3.3.4-.2-.2.1.2.3.2.3.3.6.7.6.5.6.7q.8.6 1.3 1.3l.2.2.4.8v1.3l-.3.5-.8 1.5q-.5.9-1.1 1.5-.3.2-.2.3-.1.2-.4.3 0 .2-.2.3l-.5.5q-.3.1-.2.2l-1 .7v.1l-.7.5h-.1l-1.5.8q-1.2.7-2.6 1l-1 .3h-.2l-1.1.3h-1.4q-1.5.2-3 .1l-.6-.1-.6-.1-1-.2-1.2-.1a25 25 0 0 1-6.8-2.7q-.8-.3-1.5-1l-1.4-1-1-1.5q-.4-.8-.3-1.4l.3-.7v-.3l1-1.2h.1v-.2q1.5-1.4 3.4-2.1l1-.5q.9-.2 1.4-.7l.4-.5.1-.7.1.1zm20.5 1.6-.2-.2zm1.8 2.1v.2zm-23.1-10c0-.2-.1.1 0-.2z"/><path fill="#f5beb1" d="M33.5 137.3q-.2-.7-.1-1.4 0-.7.3-1.3l.2-.1q.2-.6.9-1.1l1.3-.8.5-.2.3-.2h.2l.1-.1 1.2-.4 2.3-.5h.5l.5-.1.5-.1h.5l.3-.1.5-.1c.1 0-.3 0 0 0l2.9-.6h.2l.4-.2h.1l.4-.1.5-.2.5-.2.2-.2.7-.3.8-.5h.2l.3-.2.7-.4v.1l.4-.2.6-.3h.2l.2-.2h.2l.2-.1h.2l.3-.1.2-.1.4-.1.6-.1H56l.4.1h.1l.1.1.5.2.1.2-.1-.1h-.2.2l.3.2.2.2v.1l.2.2v.1l-.1.1v.2l-.2.3-.3.6-.1.5-.1.2-.2.3v.2l-.2.6v-.1l-.2.5v.6c-.2.3-.3 1-.5 1.1v.2-.1.1l-.2.6v.4q-.1.1-.1 0v.4l-.2.1v.3-.2.5l-.1.2q0 .1 0 0l-.1.1v.2-.1.2l-.1.4-.2.3v.3l-.2.3-.1.2q-.1.3 0 .2l-.5.9-.5.7-.4.5q0-.1 0 0 0 .2 0 0-.2.5-.5.6l-.3.3h-.1l-.2.3-.4.3h-.2v.2l-.6.2q-.6.6-1.6 1h-.2q-.3 0-.5.2h.1l-.3.1h-.1c-.3 0 .3-.2.1-.1h-.1c-.2 0 .3-.2 0 0h-.1c-.3.2 0 .2-.4.3l.2-.1-.5.1q.1 0 0 0t-.2 0 0 .1l-.4.1q.2 0 0 0h-.2q-.2 0 0 0l-.5.1H46l-.4.1h-.2.3l-.4.1H45c-.3.1-.1 0-.4 0h.2-.3l-.1.1H44h.2-.4q-.3 0 0 0h-.3c-.2 0 .1 0-.1.1H43l.2-.1H43q.2 0 0 0h-1 .1-.4c.2 0-.3 0 0 0h.2-.6.2-.5.2-.8c0-.1.5 0 .4 0l-.5-.1h.2l-.5-.2q-.2 0 0 0h-1l-.2-.1c.1 0 .7.2.8.1h.4-.4l-.2-.1h.1l-.8-.1-1.2-.5c.2.2-.4-.1-.3 0q.4.1.3.2l-.5-.3c.4.2.1 0 .2 0-.3-.1 0 0-.2-.2q-.5 0-.9-.4l-1-1c-.2 0 0 0-.2-.2-.1-.1 0 .2-.1-.1l-.5-.6.1.1v-.1l-.3-.6v.2l-.4-1v-.4.3l.2.2c0 .2-.1-.1-.1 0l.1.4v-.2.2-.1l.1.2.1.2.3.5q.1.3.5.6l-.4-.3.3.3.3.3.4.4 1.2.9 1 .4 1.3.5 2.4.3h-.1H43l1.2-.2h.9l.9-.2 2.5-.7q1.4-.5 2.4-1.1l.3-.2.5-.4.3-.3.4-.3.3-.4v.1c0-.1.4-.4.2-.3l.3-.3.2-.3.2-.3.2-.3v-.1l.3-.5.2-.4v-.2l.7-1.6.8-2.8.3-1v-.2l.4-1 .4-1v.2l.1-.4q0-.1 0 0l.5-1.3-.1-.3-.4-.3-.1-.1-.1-.1-.3-.2h-.1l-.6-.1H55l-1.3.2-1.3.5-2.5 1.2a19 19 0 0 1-5.5 2h-1l-.4.2-2.2.3q.2 0 0 0h-.2l-2.8.6q-1.5.4-2.5 1.1-.6.3-1.1 1a4 4 0 0 0-.5 4l-.1-.2z"/><path fill="#f5beb1" d="M34 138.4q0 .2-.1 0m4.6 4.9-.5-.1zm1.4.4h-.1m.2 0h.2zm2.7.3h.3zm-20.4-8.4-.5-.1h-.4q-.3.5-.8.6l-.1.2h-.1v.1l-.3.3v1.4l.1.1.1.2.5 1h.2v.2l.2.2.1.1h.1l.3.3.2.2v.1h.2l.2.2.1.2h.3v.1h.2l.1.2h.1q.1.2.1 0l.2.1.2.2q.2 0 .3.2h.2l.4.2h.1l.1.2-.2-.1h.2l.1.1h.2l.1.2h.3l.2.2h.2l.1.1.1.1h.3l.2.2h.2l.5.2h.4v.2h.4-.1.4v.1h.6l.1.2q.2 0 .1-.1h.4q.3 0 .5.2h.9l.3.1h.9q.1 0 0 0h.1v.2l.2-.1h.1v-.1h.6l.2-.1h.2q.1 0 0 0h.3v.1h.1v-.2h.3-.2.1v.1h.1v-.2h.4l.1-.1h.1l-.2.1v.1h.1l.1-.2h.4v-.1h-.1l.1-.1v.1h.2l.1-.1.3-.2h.1l.2-.1h.1l.2-.2-.1.1v.1l-.2.1-.2.2.1-.2v.2l-.2.1-.3.2h-.3l-.3.2-.7.2H34l-.3.1h-.4l-.3.1h-.3q-.4.2-.8.1H30v-.1h-.2l-.6-.1H29v-.1l-.8-.2-1.2-.3-.3-.2h-.1l-.4-.2-.4-.1-.1-.1-1-.4-.2-.1-.1-.1-.4-.2-.4-.1-2-1.3q-.8-.7-1.3-1.8v-.3l-.2-.1-.1-.8q-.1-.7.2-1 0-.3.3-.4l.2-.1.2-.1.3-.4.4-.2h.4q.4 0 .7.4h-.1zm12.6 7.7.1-.1zm.9-1.3"/><path fill="#f5beb1" d="M20.2 126.6v.9q-.1.6-.4 1v.3h-.1v.1l-.1.5-.2.8v1l.1 1 .1.2.1.2.1.2v.1l.1.1.2.3.2.2v.1h.1l.2.3v.2h.3v.1h.1v.1h.1l.1.2.1.1.2.1q0 .2.3.2h-.1l.3.3h.1v.1l.4.3h.2v.2l-.1-.1.2.2h.1l.1.1v.1h.2l.1.2.2.2h.2-.1l.1.1v.2h.2l.1.2.2.1.2.1.3.4h.1q0 .2.2.2l.1.1v.1l.2.1v.1h.2v.2h.2v.1h.3v.2h.2l.1.1v.2h.2l.4.2.5.3.4.2h.3v.1l.2.1.3.2.7.2h.1v.1h.3v.2q-.1 0 0 0h.6v.1l.2.1q.3 0 .2.1h.2l.2.1h.1l.1.2q.1 0 0 0h.4v.2h.6-.2.1q.1.2.2 0h.1-.1.2l.1.1h-.2.2l.1.1h.3-.3l.1.2v-.1h.3l.5.1h.1v.1h.8v.1h1-.3.1l-.1.1h-.5.1-1.3l-.5-.2-.9-.2v-.1h-.6v-.1l-.4-.2h-.4l-.3-.2-1-.4q-.6-.1-1-.4h-.2l-.3-.2h-.2l-.4-.2-.1-.1-.6-.4-.5-.2-.7-.6-1-.8-.3-.3H24l-.3-.3-.3-.4h-.1l-.9-.7-.1-.2-.1-.2h-.1l-.2-.2-.4-.2-.9-.8-.7-.8a4 4 0 0 1-.8-2v-1.4q.1-1 .6-2l.2-.5.2-.6-.1-.7m13.2 15.2h.2zm.7-2.1"/><path fill="#f5beb1" d="m19.9 126.6.2-.2h.4l.4.2.2.4v.3q.2 0 .2.3l.3.6v.1l.1.2.1.2.2.2h-.1l.6.6.1.2h.1l.1.2h.1l.1.1.2.2.2.1v.1h.2l.1.2v.1l.3.1.1.1.2.1v.1l.2.1.2.2.1.2h.1v.1l.3.2.1.1v.1q-.2-.1 0-.1l.1.2h.1v.2h.2l.2.2.1.1v.2h.1l.2.2v.1h.2l.2.4q.2 0 .2.2h.1v.3h.2v.2h.1v.1h.2v.1l.1.1.1.1v.1h.1l.2.3.3.4.2.2h.1l.1.1.1.2.2.2.5.4v.2h.1v.1l.2.1h-.1.1v.1h.2v.3h.2l.1.1h.1l.1.2h.1v.1h.2l.1.2h.1l.2.1v.1h.3v.1h.1v.1h.3v.1h-.2.3v.1l.2.2h.1v-.1.1l.1.1h.2l.4.1v.1h.2v.1h.5v.1H33v-.1h-.3l-.4-.2-.3-.1-.3-.2-.6-.3-.1-.1-.3-.2-.3-.2v-.1l-.2-.1-.2-.2-.6-.6-.6-.6-.1-.1-.1-.2h-.1l-.3-.4-.3-.4-.3-.3v-.1l-.4-.5-.6-.7-.2-.3-.3-.3-.2-.3-.6-.6-.1-.2v-.1h-.1l-.2-.2-.3-.2-1.3-1.1q-.7-.6-1.2-1.3l-.2-.2h-.1l-.3-.6-.1-.1-.5-1.4-.1-.2h-.1l-.5-.2zq-.3.2-.2 0m11 11.4q0-.2 0 0m24.5-11.6.3-.8v-.9l-.1-1.8-.1-.4v-.3l-.2-.8q0-.7-.2-1.3v-.6l-.1-.3v-.5l-.2-.3q0 .2 0 0l-.3-1.7v-.1l-.1-.3-.1-.3-.1-.3-.1-.4-.1-.1-.3-.6-.2-.5v-.2l-.3-.1-.3-.5h.1l-.2-.3-.4-.2-.1-.2h-.2v-.1h-.1l-.3-.3-.2-.2h-.1l-.3-.2-.5-.3h.1l-.7-.3-.1-.1h-.2q0-.1 0 0l-.8-.4h-.3l-.2-.2.2.1h.2-.2q-.3 0-.4-.2h-.4l-.3-.1h-.5l-.5-.2H46h.1-1q.2 0 0 0h-.4v.1h-.2l-.1.1H44l-.2.2h-.2l.2.2.2.2.2.2q.2 0 0 0l.3.3v.1h.2-.1l.1.2v-.2.2l.2.2h.1v.1h.1l.2.2h-.1l.3.3.1.2.2.3.2.2v.2h.2q.1.4.4.7l.6 1 .3.6.2.2v.1l.1.1.2.4v.1h.1l.2.4.7 1.1v.1q0 .2.2.3v.2c0 .2 0-.2 0 0 0 .1-.2-.2 0 0q0 .2 0 0l.2.4v-.2.3h.1v.1q0 .1 0 0l.2.3q0-.1 0 0 0 .2 0 0v.1l.1.3h.1v.1l.1.3q0 .1 0 0v-.1l.1.2v.1h.1v.3-.1.1h.1v.2q.1.3.1.1v.1q0 .2 0 0l.1.4v-.1.2l.2.1v.4-.1l.2.2h-.1v-.1.3l.1.2v-.2.1c0 .2 0 0 .2.3l-.2-.2.1.3v-.1.2h.1q0 .3.2.4v.1l-.2-.4-.1-.2v.3l.2.4.2.5v.1-.1l.1.2q0-.2-.1 0l.2.5.2.6v.5l.1.4.2.4v.2l-.2-.2v-.2.1-.3l-.2-.2-.1-.4.1.2v-.2l-.2-.2v-.3l-.3-.7-.1-.5-.2-.6-.5-1.2v-.3l-.3-.6-.3-.6v-.1l-.2-.4-.2-.4-.8-1.5-.9-1.6h.1l-.2-.2-.2-.4-.2-.3-.4-.7q0 .1 0 0s-.2-.4-.2-.2l-.6-1-.5-.8-1-1.3-.9-.9-.2-.2h-.1v-.1l-.2-.1-.5-.4.3-.2h.2l.2-.1.4-.2h.6l.4-.1h.8-.1.3l2.2.3c.5.3 0 .2.4.3l.3.1.6.3.8.3 1 .6 1.7 1.6.5.9a16 16 0 0 1 1.2 3.5v.8l.3 1.3v.1l.4 3.4v2.2l-.2.6-.5.7v-.2l.2-.1v-.1q.6.2.5 0m-3.5-2.2v.3zM51 122h-.1m-.1-10.1h.1m5.3 14.9"/><path fill="#f5beb1" d="m52 112.1.7.4.7.6.2.1.1.1.3.3q.3.1.5.4l.1.1.2.2.1.1.1.1h.1q0 .3.3.4l.2.3.1.2.2.2v.1l.2.2.1.2q0 .2.1 0l.1.3v.1l.2.1v.1l.1.2.1.2.1.1.1.2v.1l.2.3v.1-.1.4l.1.1v.5l.1.2v.6l.1.2v.6l.1.1v1.3h.1v1.2h-.1v1h-.1v.3l-.1.1v.4h-.1v.2q0-.1 0 0l-.1.1v.3h-.1v-.2.3l-.2.3h.1-.1v.3l-.2.2v.2h-.1v.2l-.1.2v-.6.1h.1v-.2l.2-.3v-.2q0-.3.2-.3l.1-.6.1-.3v-.3h.1v-.4l.1-.6v-1.7h-.1v-.8l-.1-.8v-.5l-.1-.2v-.1l-.2-.6v-.3l-.1-.1q0-.2-.2-.2l-.7-1.3-.8-1.2-.2-.3h-.1l-.4-.4-1.3-1.2-.4-.3-1-.7q0-.5.2-.4M57 125h.1m-11.3-11.5q-.5-.2-1 0v-.1l-1 .2-.2.1h-.2v.1q0 .2-.3.3l-.5.5-.1.3v.1h-.1v.1l-.1.1v.2h-.1v.4l.4.5.2.2v.1l.1.2v1.9l.1.1v.4l.1.1v.3l.1.3v.1l.2.4v.1c0 .1 0-.2 0 0l.1.2v.1l.1.2.1.2v.2l.2.2v.2l.1.2v.2h.1l.1.2.1.4.1.3h.1v.3h.1v.2h.1v.2l.2.1v.2l.1.1v.1l.2.4.3.4.1.3.1.1v.1l.2.2.1.2.4.5.1.1h.1l-.1.1h.2v.1h.1l.2.1-.1.1h.1v.1h.1l.1.2h.1v.1h.1v.1h.1q.2.1.1 0v.1h.1v.1l.1.1h.3v.2h.3-.1.1v.2h.3-.2.2l.3.2v-.1h.2-.1v.1h.6v.2h.7-.7.2-.8l-.2-.1-.4-.2-.6-.2-.4-.2-.2-.3-.2-.1-.2-.2-.6-.5-.5-.7-.1-.1-.1-.2-.1-.1-.2-.3v-.1l-.3-.5-.2-.3-.3-.7-.4-1-.2-.3-.1-.4-.1-.3v-.1l-.4-1v-.3h-.1v-.3l-.2-.4q-.3-1-.2-2.1v-.8l-.4-.4-.3-.6v-.4h.1v-.2l.3-.6v-.1q.7-.7 1.6-1l.5-.2 1.6.2zm-3.2 5.2"/><path fill="#f5beb1" d="m45 113-.3-.3-.3-.4-1-.8-.2-.1-.1-.1v-.1H43l-.5-.2-.8-.4h-.2l-.2-.1h-.1v-.1l-.2-.1h-.2l-.1-.1-1.1-.5-.2-.1h-.2v-.1H39l-.2-.1h-.1v-.1l-.3-.1-.4-.1v-.1h-.2l-.3-.1v-.1l-.2-.1h-.4v-.1h-.3v-.1h-.4v-.1H36l-.1-.1h-.1l.2.2h.2-.1v.1l.1.1.1.1v.2l.2.3v.4l-.1.1v1.1l.1.1v.2l.1.1v.4-.1h.1v.2l.1.1v.1l.1.1v.1l.2.2v.2h.1l.2.3.3.5.1.3v.2h.1l.2.3q.2.2.1.3.3.1.4.6l.2.1v.1h-.1v.1q.2 0 .2.2h.1v.1l.2.1v.2h.1v.2h.2-.1l.1.1v.2h.2v.1q0 .1 0 0 .2.1 0 .2h.1v.2h.2v.2-.1h.2-.1v.1h.1l.1.1h.2-.2l.1.1h.1l.2.2h-.2v-.1.1h.2q0 .1 0 0 0 .2.3.3v-.1h.1v.2h.3q0 .2.3.3l.3.1.1.1h.3v.1H42l-.2-.1v-.1h-.2l-.5-.3-.2-.1-.3-.3q-.4 0-.6-.4v-.1h-.1l-.3-.3-.3-.3q0-.2-.2-.2l-.1-.3-.6-.7-.6-.9h.1-.1l-.1-.3-.2-.2-.1-.3-.1-.1-.3-.5-.3-.4-.3-.8-.3-1.1v-1.7l-.1-.2-.1-.1-.2-.3c-.3-.3.2 0-.2-.3l-.2-.1v-.1l-.3-.1-.1-.2h.1l.1.1h.2l.3.1 1 .3.5.2 1.1.5 2.3.9.3.1h.2l.8.4 2 1.3q.3 0 .5.4l1.1 1.3zm-4.2 4.8h.2zm-.8-.8-.1-.1M33.8 137h.1"/><path fill="#f5beb1" d="M40.7 118H40l-.6-.1h-2l-.6.2-.4.1-.5.2h-.2l-.3.2h-.1l-.2.1-.2.1-.1.1-1.1.6h-.1l-.1.2q-.2 0-.2.2l-.1.1-.2.2-.2.3-.3.3-.1.2-.2.2H32v.1l-.2.3v.2l-.3.2v.1l-.1.1-.2.1-.3.2h.1-.6l-.2-.1H30v.1h-.1v.2l-.1.1v.1l-.1.2v.3l-.2.2v.3h-.1l-.1.2v.4-.1.5l-.2.5v.6H29v1.5l.1.2v.4l.1.7v.4h.1v.3l.1.3v.3l.4.8v.4q0 .1-.1 0v.1q.2 0 .2.2v-.1.2l.1.1.1.1v.4l.2.2h.1v.2l.1.2.1.2q0 .2 0 0 .2.2 0 .2h.2v.3h.2v.3q.1 0 0 0h.2q0 .1-.1 0v.2l.2.1.1.1h-.1l.1.1v.2q.2 0 .3.2l-.2-.2-.1-.1v.2h.1l.2.2q0 .3.3.4 0 .1 0 0l.1.2q0-.1 0 0l.2.3.4.4v.1h.1l.2.2.2.2h.4v.1h.1-.2l-.1-.1h-.1l-.2-.1-.3-.2h.2-.1l-.2-.1-.2-.2-.4-.4-.3-.4-.3-.4-.6-.9-.1-.1q0-.3-.3-.5l-.2-.4v-.1l-.2-.3-.1-.3-.3-.6-.1-.3-.1-.2-.2-.6-.1-.6v-.2l-.1-.3v-.2l-.2-.4v-1.4h-.1v-2.2l.1-.5.1-.1v-.5l.2-.4v-.1l.1-.3.1-.3.2-.6q.1-.1.1 0l.1-.2h.3v-.1h.9q.5 0 .8-.7l.7-1q.9-1 2-1.6l.4-.2v-.1l.5-.2.5-.2q1.3-.5 2.6-.5h.7l2 .2zm-9 17.1.2.1zm4.5-23.3-.3-.1h-.4l-.3-.1h-.4l-1.5.2-.2.1h-.3v.1l-.5.2q-.5.3-1 .3l-.2.1H29l-.2.2-.1.2v.2h-.1v.8l.2.4v1.3l-.1.3-.2.1v.1H28l-.1.1-.2.1h-.1l-.1.1-.4.2v.1l-.1.1-.3.4-.1.1h-.1l.1-.1-.2.3-.1.1-.2.1v.1l-.1.1-.3.2-.2.1h-.3v.1h-.6v.1H23h.1-.3l-.1.1h-.3v.1l-.2.1h-.4v.2l-.1.1-.2.1-.2.3-.2.2-.2.3-.1.2-.1.1-.1.2-.2.3-.3.7v.4H20l-.1-.1h-.1v1.5h-.1v.5h-.1v.1l.1.1v.3-.1.1h-.1v.2h.1v.2-.1.6-.4l-.1.2v.7h.1v.5l.1.4v.5l.1.3v.2-.3h-.1v-.3l-.1-.2v.1-.9l-.1-.3v-.5l-.1-.8v-1.7l.2-1 .4-1q.3-.1.1-.2l.2-.2v-.2l.4-.4q0 .1 0 0v-.1l.5-.4v-.1l.4-.3h.1l.8-.4q.7-.2 1.4-.1h1.2l.1-.1h.2q.2 0 0-.1.6-.3.8-.8l.2-.1.2-.2.3-.3.3-.3.7-.3h.3l.2-.2.1-.5v-.7l-.2-1.4q0-.4.4-.7.3-.2.8-.2h1.7v-.1l2.5-.7.7-.2q1.1 0 2.3.4zm-16.5 11.9q0-.2 0 0m34.8 15.6h-.1m3-14.2.3-.3.2-.2.5-.7 1-1.7.1-.3.2-.2v-.2l.3-.6.7-1.2.1-.3.2-.3.2-.2.1-.3.2-.1.1-.3.5-.6q.3-.3.5-.1v.2l-.1.1-.1.2-.2.2v.7l-.1.4v.3l-.1.4-.1.2v.6l-.1.3v.2q0 .2-.1 0v.3l-.1.3-.1.5v.3q-.1 0 0 0l-.2.6v.3-.2.4c-.1.2 0 0 0 .2v.1l-.1.2v.1l-.1.3-.1.4v.3-.1.1l-.1.3-.1.4-.1.3v.3l-.2.7v.1-.1.1l-.1.4v.2h-.1v.3h-.1v.2-.1.3l-.1.1q0 .2 0 0v.3-.1l-.1.1v.3l-.1.2v.2l-.1.2v.2l-.2.6-.3.8v.1l-.1.5v.2l-.1.2v.3H59v.1l-.1.3q0 .6-.3 1.1v.1l-.1.3v.1c-.1.2-.1-.1-.2 0 0 .1 0-.2 0 0v.4-.1.7l-.1.3v.1l-.1.3v.5-.1l-.1.1v.3-.2.2q0 .1 0 0v.5-.1h-.1v.2l.1.1v.5q0 .2 0 0v-.1.3-.1.5-.2.5h.1l.1.2v.3-.5l-.2-.1v.2h.1v.1l.1.2-.1.2v-.1h-.2l-.1.1-.3.1h-.1v.1h-.2q.2 0 0 0H56l-.1-.1h-.5l.1-.1-.4-.2H55l-.2-.2-.2-.2.3.2h-.1l.2.1h-.1.2-.1.2l.2.2h.2l.3.1h-.3 2l.3-.2h.1v-.4l-.1-.3-.1-.6v.1-.3l-.1-.6v-.6l.1-.2v-.8l.2-.7.2-.7.1-.8.3-.7v-.2l.1-.4.1-.3.2-.5v-.2l.3-.9.2-.7.4-1.1.2-.9.2-.8.1-.6v-.2l.2-.6v.1l.2-.6v-.2l.1-.4.1-.4.1-.7.1-.3v-.3l.2-.5v-.5l.3-1.5.2-1.3v-1h.1v-.1l.1-.1.3-.4v-.1H62l-.2.3-.4.4-.1.2-.2.3-.1.2-.4.6v.1l-1.6 3-.4.8a7 7 0 0 1-1.7 1.9zM58 140l-.2.2.1-.1zm0-2.5q.1 0 0 0m.2 1.9"/><path fill="#f5beb1" d="M62.5 117.3h.2l.1.2v.1l.1.2v.3h.1v.2l.1.2v1.6l-.1.2v.4l-.1.2v.6l-.1.3v.5l-.1.2v.9l-.1.1v.5l-.1.4v.2l-.1.5v.2-.2.8h-.1v.8h-.1v.3l-.1.3v.3l-.1.1-.1.6-.1.3v.2l-.1.2v.2-.1.2l-.1.1v.1l-.1.2v.2l-.1.1v.2h-.1v.1l-.2.4q0 .4-.2.6l-.2.4v.3l-.1.2q-.1 0 0 0l-.2.3-.3.7-.1.2-.1.1v-.1h-.1v.4h-.1v.2h-.1v.3h-.1l-.1.2v.3h-.2v.4l-.2.1v.2l-.1.2v.1h-.1v.4-.1.1l-.2.1v.3-.4.5h-.1l-.1.4v.1l-.1.4v.4h-.1v1.1-.1l-.1-.1v-.2.1-.7.2-1h.1v-.4l.2-.4.2-.9v-.1l.2-.5.2-.3.2-.4.1-.2.5-1 .5-1v-.1l.2-.3v-.2l.2-.4.1-.1.2-.6.2-.5.3-.8.2-.6.1-.7v-.4h.1v-.3l.1-.2.1-.4v-.2l.1-.5v-.6l.1-.2v-.6l.1-.4.3-2.3.1-1 .1-.9V118l-.2-.2-.1-.3q-.1-.2-.4 0zm-4 19.5v.2zm-1.4-18.4.3-.2.3-.1v-.1h.2l.2-.2h.2v-.1h.1l.3-.1h.1v-.1h.3v-.1h.2v-.1h.4l.2-.1h.2v-.1h.5v-.1h.6v-.1h.3v.2-.1h.1v-.1h.1v.1h.1v.1h.1v.1h.1l-.1.1v.1h.1v.4l-.1-.1v-.3h-.2v-.2h-.4v-.1h-.5l-.3.1h-.3l-.2.1h-.1l-.2.1-.5.2-.6.2h-.1l-.2.2-.6.2-.1.1-.5.2zM22.2 129v-.6l.1-.2v-.2l.3.1h.2l.1.1h.1l.4.1h.8l.1-.1h.2v-.1h.4v-.1h.5v-.1h.5v-.1h.3v-.1h.2v-.1h1.2v.2l.2-.1h.4v.1h.1v.1h.2v.1h.1v.1h.1-.1v.1h.1l.1.1h.1v.1l.2.1v.1l.1.1h.1v.1H29v-.1l-.1-.2h-.1l-.1-.2-.3-.1h-.1v-.1h-.1v-.1H28l-.3-.1h-.3v-.1h-1l-.4.2h-.4l-.3.2H25v.1l-.9.2h-.8v-.1H23l-.3-.1-.1.2-.1.5zM57 140l.2.3.2.3v.2l.1.2v.1l.1.1v.9l.1.1v.1h-.1v.1h.1v.6l-.1.1h-.1v.1l-.1.1h-.3l-.1.1h-.4v.1h-.4v.1H56v.1h-.2v.1h-.3v.1l-.1-.1v.2h-.3v.1H55v-.1h-.1v.2h-.3v-.1.1h-.2l.1.2-.1-.1H54l-.1.1h-.1v-.1h.1l.1-.1h.2l.2-.1.2-.1.1-.1h.2v-.1h.2l.2-.2h.5v-.1h.8l.4-.2h.3l.2-.2v-.1h.1v-1.7l-.2-.6q0-.4-.3-.4-.2-.3 0-.2m-15.8-11.5-.3-.3-.5-.5h-.1v-.1l-.3-.1-.3-.3-.2-.1-.1-.1q-.1-.2-.2-.1 0-.3-.4-.4h-.1v-.1h-.2v-.1h-.1l-.2-.1-.1-.1h-.1l-.1-.2h-.2v-.1h-.2v-.1h-.3l-.1-.1H37l-.3-.2v-.1h-.4v-.1h-.2v-.1h-.3q-.2 0-.3-.2h-.8v-.1h-.6v-.1h-.4v-.1h-.5q-.1 0 0-.1h-.1v-.1H33v.1h-.1l-.1-.1h-.2v-.1h-.2v-.1h-.2v-.1h-.4v-.1h.2v-.1h-.2l-.2-.1v.1-.1h-.2l-.1-.2-.2-.1v-.1H31v-.1h.1v.1h.2l-.1.1h.2l.2.2.3.2.3.1h.2l.2.1h.1l.1.1h.5v.1h.4v.1h.4v.1h.6l.3.2h.6l.2.1.2.1h.2v.1l.5.1.1.1.2.1h.2l1 .6 1.1.7h.1l.3.3h.1l.8.7.2.2zq.2.3 0 .1M32 155.4h-.1m19.9-11.2q.2.6.6 1.1v.1l.8 1.2.2.2.2.2v.1l.4.5.5 1 .1.2.1.2v.5l.1.2h-.1l-.2 1.2v.2h-.1v.2h-.1v.1l-.2.2v.1l-.2.3-.3.3-.1.2-.3.2H53v-.1l-.1.1-.1.3h-.1v.1h-.1v.1l-.2.1h-.2v.2l-.1.1-.3.2-.4.2-.1.1h-.1q-.1.2-.5.3l-.1.1h-.2.2l-.3.1-.2.1-.2.1v.1h-.2l-.4.2-.2.1h-.3v.1l-.3.2v-.1l-.3.1-.1.1H48q-.4.3-.7.2l-.4.2h-.3l-.1.1h-.3.2l-.3.1h-.3l-.2.1h-.2l-.2.1h-.3q-.1 0 0 .1l-.6.1-.7.2h-.2.2-.5v.1h-.8v.1h-1.9.1-.2v-.1h-.1c-.2 0 .2 0 0-.1-.1 0 .2 0 0 0q-.2 0 0 0h-.6q-.2 0 0 0h-.3q.2 0 0 0H39l-.1-.1h-.4.2-.4v-.1l-.2-.1h-.3l-.1-.1q-.2 0 0 0h-.2l-.3-.2H37c.2 0-.1 0 0 0h-.6v-.1h.2l-.2-.1h-.3.1-.3.2l-.3-.1-.2-.1h-.4.5l-.2-.2v.1h-.4v-.1l-.5-.1h-.1l.1.1h-.2v-.1l-.1-.1h-1l-.1-.1h-.3q-.1 0 0 0h-.3l-.3.1H32l.1-.1h.3-.1.7-.2H34l.5.1.6.2 1.3.3h-.1.2l.7.2.6.1.2.1h.3l.5.2 1.4.1h2.2l.6-.1h.1l.8-.2q.4 0 .6-.2l1-.2 1.5-.4.5-.2.6-.2.5-.2h.2l1-.6c.4-.1.2 0 .4 0v-.1h.2v-.2l.4-.1.4-.3q1.1-.7 2-1.6.7-1 1-2v-.5l-.2-.9q-.5-1.2-1.4-2.2l-.4-.6q-.5-.8-.8-1.8.3 0 .4.2M32 155.4h.1m5.1.8h.1zm11.3-.8h-.1m-1.8-94.8v-.2zm13.3 40.8-.9-1.8v-.2q-.3-.3-.4-1l-.3-1-.1-.5-.1-.2v-.2l-.3-.8-.4-1.5V94l-.1-.4-.1-.3v-.5q0-.3-.2-.3 0 .1.1 0l-.4-1.8V90l-.2-.3h.1l-.1-.3v-.3l-.2-.2-.2-.5-.1-.4v-.2l-.2-.2-.2-.4h.1V87l-.1-.3-.3-.3-.2-.2v-.1H55l-.2-.4v-.2q-.2-.1-.2 0l-.2-.2-.4-.4h.1l-.4-.5-.1-.2-.2-.1h.1l-.6-.6-.2-.1v-.2l.2.2-.2-.1-.2-.3-.1-.2-.2-.1q-.2-.1 0-.2l-.2-.1-.3-.2-.2-.5-.3-.2-.1-.1-.1-.3h-.1l-.3-.5q0 .2 0 0l-.2-.3v.1l-.2-.2-.2-.2-.5-.8v-.1q0-.2-.3-.4v-.1l-.2-.1V78h-.2v-.2.2-.1l-.2-.2v-.2l-.2-.1h.1v-.1l-.3-.2V77l-.2-.2-.2-.2v-.2h-.2l-.4-.6-.7-.7v-.2.2l-.4-.5-.1-.2v-.1q-.2 0-.2-.2l-.2-.4q0-.2-.1 0l-.1-.5q-.5-.5-.6-1.4 0-.2 0 0v-.4l-.1-.2V71c0-.2.1.2.2 0 0-.1 0 .2 0 0q0-.2 0 0l-.3-.4.1.1v-.3h-.1v-.1q0-.2 0 0l-.1-.3h.1l-.1-.2v-1 .3-.8.2-.5.1-.2q0-.1 0 0v-.3l.1-.3v.2-.1h.2v-.2c-.1.2-.1-.2-.2-.2 0-.2.2 0 .1-.4v-.2.2h.1v-.5c0-.3-.1-.1 0-.4v.3l.1-.3v-.2l.1-.5s0-.3.1 0l-.1.4v.3q0-.2.2-.1v-.2H45V65l.3-.6v-.2h-.2l.2-.2c-.1.2 0 0 0 .2l.1-.1.1-.7.2-.8h.1V62v.1-.1h.1l.1-.3v-.5h.1V61l.1.4v-.2.3-.2.3-.1.6q-.2.1-.2.5v-.4 1l-.3.9-.1.6-.2.7-.3 1.4H45v1l-.1.7v1.2q0 1 .2 1.7.2 1 .6 1.7v.2l.3.4q0 .2.2.3l.4.6v-.1q.1.3.2.2l.6.8h.1l.5.7h.1q.6.7.8 1.3l1.2 1.9.4.5v.2l.5.6.5.6.1.2 1.4 1.4c.2.4-.1.2.2.4q0 .2.2.3l.4.5.5.5q1.4 1.8 2.1 3.7l1 3.8v.9l.4 1.4q0-.2-.1 0l.1.1 1 3.8.4 1 .4 1.4zl.4.8zM46.6 60.7h-.1m-1.2 3.9v-.4zm-.6 2.5v.2zM56 87.8h-.1"/><path fill="#f5beb1" d="M59.7 100.9c-.1-.2 0 .1 0-.2zM43.9 54.4l.3.5.1.4v.2h.1l.3.6.1.6q.3 1.1.2 2.4v.4l-.2.6v.4h-.1v.4l-.1.3-.1.5v-.2l-.1.8v.8l-.2 1.6V66v-.1 3.3l-.1.3v1.2-.1.5l.1.8.1.5v.2l.1.6q0-.1 0 0v.4l.2.3v-.2l.2.6-.1-.1.3.8q.1.6.4 1.1l.1.3.2.3.9 1.3v.2l.3.4.2.3.2.2.2.3.2.1.3.3.5.6.4.3h-.1l.2.1.2.4h.2l.5.4h-.2l.5.3q.3.1.2.2l.2.1 1 1v.2-.2.2l.5.5v.1l.2.2v.2l.2.3v.1l.1.2v-.1l.1.2v-.2l.1.2.1.3.1.1v.1-.1.2q.3 0 .2.2v-.1.2l.2.3.1.3.2.3.1.3v.3l.1.2.3.8v.2l.4 1.2h-.1v.1h.1l.2.7v.4l.2.3v.6q0 .3.1.1v.6q.4.7.6 1.7v.6-.1l.2.3v.1c0 .2-.2-.4-.3-.2v.1c0 .1-.1-.3 0 0l.1.1.3.4-.1-.1.1.4h.1v.2q0 .2 0 0l.2.4q-.1-.1-.1 0 0 .2.2.2v.6l.2.4.1.2v-.3.4l.1.2v.1c.2.3 0 0 0 .3v-.2.2l.2.2v.2-.2.3l.1.1v.1l.2.2v.4l-.2-.2v.1c0-.2 0 .1 0 0v.3c0-.2.3.3.4.2.1.4-.2.2 0 .6h.2l.1.3c0-.2 0 .1-.2-.1v-.2.2l.1.3v-.1q0 .3.2.4v-.2l.1.2c0 .3 0 0 .2.4l-.3-.3.2.4v-.1q-.1-.1 0 .4h.2q0 .5.3.7c-.2 0 .1.3-.1 0l-.3-.6-.2-.4v.5h.1l.4.7-.1-.1v.2l.1.2h.1v.5h-.1l-.2-.1-.1-.3-.2-.4-.2-.5-.4-1-.4-1.1.1.1v-.2c0 .2-.1-.2-.2-.3l-.4-1-.3-1v-.2q0-.3-.3-.6l-.1-.8-.7-2.3h.1l-.6-2.3h.1l-.2-.4v-.5l-.2-.5-.2-.8-.1-.4-.3-1.3-.4-1V87l-.7-1.5q-.7-1.3-1.5-2.3l-.7-.7-.1-.2-.9-.7h.1l-.8-.7q-.2 0-.3-.3l-2-2.2-.3-.6-.3-.5v-.1l-.5-.8-.6-1.2a13 13 0 0 1-.8-3.4V64l.1-1.7.2-1v-.5l.4-2v.1-.3a7 7 0 0 0-.2-2.5l-.5-1.3-.6-1.2-.8-1.3a14 14 0 0 0-2.1-2.7l-1.2-1 1 .5 1 1 1 1.2.1.3 1 1.2zm2.8 23.8-.1-.1M60 101.2q0 .1-.1 0"/><path fill="#f5beb1" d="M58.1 102.6q0-.1.1 0m-.9-2.5v-.2zM57 99h-.1m4.4 5.2v-.2zm56.2 47.3-1.7-.2-1.8-.3-.2-.1q-.8 0-1.8-.5l-1.8-.7-.7-.2-.5-.2-.1-.1h-.2l-1.4-.6-2.4-1.2-.5-.2-.6-.4-.4-.2-.5-.3-.3-.2-.5-.3h.3q-1.5-.8-2.8-1.8v-.2q-.3 0-.5-.3l-.5-.3h.2l-.6-.3h.1l-.6-.3h.2l-.4-.2-.8-.6-.7-.5-.2-.2s-.4-.3-.4-.1l-.7-.5q.1-.1.2 0l-.1-.1h.1l-.4-.3q-.4 0-.8-.3.2 0 0 0l-.4-.2-.2-.1-.5-.4q.1 0 0 0l-.3-.2-.2-.1-.5-.2h.1l-.8-.4h.2q-.7-.2-1-.6l-.3-.1-.3-.2-1.1-.7-.4-.1-.2-.3c-.2 0 .7.4.4.3l-.3-.2-.5-.3q.1 0 0 0l-.2-.2-.1-.1q-.1-.2-.2 0l-.3-.3-.2-.2-.5-.2-.6-.6-.6-.4h.2l-.3-.2-.4-.3q0-.2-.1 0l-.7-.7q.3.1.2 0-.2 0-.6-.4l-.3-.2-.2-.3q-.8-.7-1-1.2l-.3-.2.2.2h-.1q-.2-.3 0-.2l-.6-.6-.1-.2-.2-.2q-.2-.2 0-.1l-.3-.3v-.2l-.3-.1v-.2.3l-.2-.3-.2-.2-.2-.2v-.1l.1.2-.1-.3-.3-.1h.2l-.2-.2-.3-.3-.3-.3-.3-.3-.3-.2-.1-.3q-.3-.3-.3 0l-.8-.9h-.1l-1.3-1.1v-.1l-.1-.1v.2l-.7-.8-.4-.3-.1-.1-.2-.2-.6-.5-.1-.2h-.1l-.6-.6-1.7-1.7-.2-.2q0-.2 0 0 0-.3-.3-.4l-.3-.3v-.1c-.1-.2.4.3.3 0h-.1c0-.2.3.2 0-.1q-.1-.2-.1 0c-.3-.4-.2-.1-.5-.4 0-.2.2.2.2.1l-.4-.4q.1.2-.1 0v-.1q-.2-.1-.2 0l-.3-.4c0-.1.3.2.1-.1q-.1-.2-.3-.1 0-.2 0 0l-.2-.5H68l-.1-.2-.3-.4-.3-.2.2.3q0-.3-.3-.4l-.2-.2v-.1c-.3-.3 0-.1-.2-.4l.2.2-.2-.3-.3-.1-.1-.2.2.2-.2-.4q-.2-.3-.2 0v-.2l-.2-.2-.2-.5.2.2-.1-.1h.1l-.2-.3c0 .3-.3-.3-.4-.2-.3-.3 0-.2-.3-.6q-.2 0 0 .1c-.2-.2-.2 0-.4-.4.2.2 0-.2.2 0l.1.3q.2 0 0-.2l-.2-.3v.2l-.3-.5v.2l-.1-.2c0-.3 0 0-.2-.3v-.2l.2.4q0-.2-.3-.4l.1.1-.2-.4q0-.2 0 0l-.5-.7c.1 0-.2-.4 0-.1 0 0 .3.6.5.7l.3.3q-.2-.3 0-.3l-.2-.2-.6-.6q0-.1.2 0l-.6-1c0 .2-.2-.4-.2-.3v.2q0-.2-.2-.3c.2.3.2 0 .3.1-.2-.2 0 0 0-.2q-.4-.3-.5-.7l-.5-1v-.4l-.3-.5v.1-.1h.1l-.2-.5-.3-.7v-.3l.2.5-.1-.1.1.3v-.2l.1.3v-.1l.2.3h-.1l.2.5.3.6-.4-.4.2.3.3.4.2.4.5 1.2.5.8.5 1 1.4 2.2-.2-.1.2.2c0-.2.2.2.2.3l.8 1 .7 1v.3q.4.1.6.5l.6.8 2 2.3c.7.7 1.5 1.8 2.2 2.3h-.1l.4.3.6.6.4.4 1 .8h-.1l.4.3 1.4 1.2h.2l1 1 .1.1.1.1 1.8 1.9 2.4 2.9.8.8.2.3 1 .9-.1-.1 1 .9-.1-.1.4.4 2.6 1.8c.6.5 0 .2.5.4q.3.4.5.4l.8.5 1.2.6 3 1.9 1.4 1q.8.3 1.4.9l5.1 3.8.9.6.4.2 2 1.2q-.2 0 0 0h.1v.1h.2l1.4.8 1.5.7 3.1 1.2 1 .2 1 .3a19 19 0 0 0 5.1 1q.2-.3-1-.1m-54.2-41.7-.3-.4zm.7 1.3v.2zm1.4 2.5.2.3zm17.8 18.9H83m33.6 18.8h-.3z"/><path fill="#f5beb1" d="m54.2 96.4.6.7.4.5q0 .2.2.3l.1.1.6.7.6.9a15 15 0 0 1 1.8 3.2h-.1l.4.6.3.8.2.6q0 .4.2.6l.1.5.4.7s-.2-.5-.2-.3q1.1 2.3 2.8 4.4l.2.4.5.6.1.2.5.5q-.1-.1-.1 0l.7.7h-.1l.7.7H65l.4.4h-.1l1 1.2 1 1.2.2.4s.6.7.5.4l.8 1.2c-.2-.1 0 .2-.2 0l.1.2-.1-.2.5.7.9 1q-.1-.1-.1 0l.6.6.1.2.2.2.5.7-.1-.1.4.6.3.3v-.1l.5.7-.1-.1 1 1H73l1.1 1.4.3.4.4.4c.2.3 1 1 1.3 1.6l.4.4v.1l.2.2.5.6q-.1-.2 0 0l.3.3.2.2s.3.3.2.1c0 0 .5.4.4.5l.3.2v.1l.6.4.9.9.7.5h-.2l.4.2.5.5q.3.1.2 0l1 .8q-.3-.1-.2 0l.8.5v-.2l.5.4c.1 0 .4.4.4.2.6.6 1.5 1 1.8 1.5l.3.1-.2-.2q.4.3.2.3l1 .6.2.2.3.2q.3.3 0 .2l.6.4.1.2q0-.2.3.1l.3.3-.3-.3.3.2.4.4.3.2h.1l-.2-.1.3.3c.2 0 0-.1.3.2l-.2-.1.3.2.6.4.4.4.5.4.5.3c.1.2-.2.1.1.3l.4.2 1.3 1 .2.1 1.7 1.4H96c.2.2 0 .2.2.2v-.2l1 .9h.2q-.2 0 .3.4h.1l.4.3.9.6.1.1q.3.1.2 0l.7.7 2.8 1.5.3.2h-.1l.8.4-.2-.1.6.3h.2c.1.3-.8-.2-.6 0l.2.1c0 .2-.7-.2-.2 0q.6.3.4.1c.5.2.4 0 1 .3l-.4-.1.6.3h.3c.2.2-.2 0 .1.2h.2l.7.2c0 .1-.6 0-.2.1 0 0 .6.2.5 0q.2.2 0 .1c.1.2.6.2.6.3h.1l.3.2.6.2s.6.3.5.1q-.4 0-.5-.2l.7.2.4.2h.2c.5.2 0 .1.4.3l-.4-.1.4.2h.8-.3l.4.2h.3l.2.1c.4.1 0 0 .4 0l.6.4h-.4.2-.1l.5.2c-.3-.2.7 0 .7 0 .7 0 .1.2 1 .2-.1 0 .2 0 0 0h.7c-.4 0 .2.2-.3.2l-.4-.1.3.1.6.1h-.1.8l-.3-.1h.4c.5.2.2 0 .7.1l.2.2c-.2 0-.8-.2-.8 0h.9-.3c.1 0 0 .2.7.2h1.4c-.1 0 .7 0 .2.1h-.6l-.7-.1h-.7c.5 0 .3.1.3.2h.4v-.1h1.5q.2.2-.2.1h.4l.5.1h.1l.8.2-.2.1h-.1v.1h-1.4q-.8 0-1-.2-1.1 0-2.1-.3-1 0-2.1-.4h.3l-.4-.1h-.6l-2-.6q-1-.2-1.9-.6l-.3-.2-1.2-.3-1.2-.6q-1.2-.4-2.1-1-1-.3-2-1l-2-1.1-1.8-1.1h.2l-.7-.4-.9-.7-.6-.4-1.2-1c-.3 0-.7-.5-.7-.4l-1.8-1.4-.2-.1-1.3-1.2-.3-.2-2.2-1.9-4-3-1.4-1-.3-.3-1.6-1h.2l-1.7-1.1h.2l-.6-.5q-.2 0 0 0-2-1.5-3.8-3.5l-.6-.8h-.1l-.5-.7-.2-.1-.9-1.2L73 125l-3.3-4.4-3.2-4.1-3.2-4A30 30 0 0 1 60 108l-.8-1.7-.3-.6-1-2.8q.1.2 0 0l-.1-.1-.1-.2a17 17 0 0 0-2-3.5 29 29 0 0 0-4.4-5.1l-2.2-2.5-2.3-2.4 1 .6 1.4 1.4 1.5 1.5.1.3 1.6 1.7 1.7 2zm22.7 32.5-.2-.2zm-.4-.4-.1-.2z"/><path fill="#f5beb1" d="M117.2 151.3s.4.1 0 .1m.9 2.6q-.1-.2.2 0zm-.2 0-.3-.1zm-4.3-1-.5-.1c.1 0 .6 0 .5.1m-2.1-.5h-.2q0-.2.2 0m-28.4-18.3.2.1zm-10.5-10.6v-.2zM69 146.9q0-.1 0 0m44.4 4.1-2.1-.2H110l-1.1-.2H107h.1-3.7.1-2l-.2-.1h-1l-.4.1h-.2l-.6.1-.6.1h-.4l-.5.2v-.1h-.4l-.4.3v-.1l-.3.2h-.1l-.4.1-.3.1q-.2 0 0 .2h-.3l-.5.3-.6.2H94l-.2.1-.8.4h-.3c-.2.2.4-.2.3 0h-.2l-.4.1h-.2l-.1.1h-.4l-.4.1H91l-.4.1h-1.2q.2 0 0 0H89v.1h-1.6.2-.1q-.2 0 0 0h-.9q-.2 0 0-.1h-.7.2-.6q-.2 0 0 0h-.3.1l-.1-.1h-.9l-.2.1h-.3l-.8.1-1 .2v-.1h-.2.2-.7v.1H80q-.2 0 0 0h-.6l-1.5-.1h-.1v-.2h-.4.1-.3c-.2-.1.2 0 .1-.2-.2-.1.2 0 0-.1l-.2.1H77h.1-.5q-.2 0 0 0h-.3q.2 0 0-.2l-.1.1q-.1 0 0 0l-.3-.2h-.2l-.3-.2h-.2l.3.1H75l-.2-.1h-.1l-.2-.2h.1-.4.1l-.2-.2H74l-.2-.1-.3-.2h.2v-.1l-.2-.1c.1.2-.3 0-.2 0-.3 0 0-.2-.4-.2h-.2v-.1h.2v-.1h-.3q0-.2-.2-.2.1.2 0 .2v-.1l-.3-.1v-.2q0 .2.3.2l-.3-.2-.1-.2-.4-.2q-.2-.1 0-.1l.4.3h.2v-.2H72l-.5-.2h.1l-.5-.6c0 .2-.2-.1-.2 0v.1l-.1-.2h.2q-.2 0 0-.2-.3 0-.5-.3l-.5-.5v-.2l-.3-.3h.1l-.2-.4v.1l-.3-.4v-.2l.2.2h-.1l.1.2v-.1h.1l.2.2.1.2.3.4-.3-.2.1.2.3.1.2.2.5.6.5.4.6.6 1.2.8v.1h.3q.3.3.7.4l.7.4h.1l.5.2.5.2 1 .3.8.2 2 .2v.1h.8l.3-.1h.8q-.1 0 0 0h.3l1-.2h.1l1-.2H86l2.4.2h2.5-.1.3l1.6-.2h.3l.4-.1.3-.1.6-.3.7-.4a16 16 0 0 1 8.4-1.5l.6.1h2l4 .1h1.3l.8.1.8.1.8.1.9.1q-.5.4-1.1.3M69 147q0 .1 0 0m2.3 3.1-.3-.1zm2.8 2.1h.2zm38.8-1.3h-.2z"/><path fill="#f5beb1" d="m63.6 144 .5.2.3.3v.1h.2l.4.3.5.5q.8.6 1.4 1.7l.3.3.3.5q0 .3.2.4l.1.4.2.3.3.3c0 .1-.2-.2-.2 0a9 9 0 0 0 2.6 1.9l.2.1.5.2.1.1.4.1.6.3h-.1l.6.2h.3l1 .4.8.4.3.2s.5.2.4 0l.8.3-.1.1.1.1.5.2.7.1v.1h.5l.2.1h.1l.5.2q-.2 0 0 0l.4.2h.3-.1.6l-.1.1.7.1 1.3.3h.6l1.3.2h1.1q-.2 0 0 0h.6s.4-.1.4 0l.2-.1.5-.1.8-.1.5-.1h.2l.5-.1v-.1l.8-.2s-.3.1-.1 0h.6l-.1-.1q.3-.1.4 0l.2-.2 1.5-.1h.1v-.1h-.1.2l.8-.2h.2l.2-.1h.8q-.2 0 .1-.1h.2-.3l.3-.2h.6-.2.3l.2-.1h-.1.2l.4-.1h.4l.4-.1h.5l.3-.1 1-.1h1.5v-.1h2.3q.2 0 0 0h.6l1.9-.1h.6q-.2 0 0 0h.3c.2 0-.4.1-.2.2h.1s-.4 0 0 .1l.2-.1c.3 0 .1-.2.5-.2h-.2.4q-.1 0 0 0h.2q.2 0 0 0l.5-.1s-.3.1 0 .2q.2 0 .1-.2.1 0 0 0l.4.1h.9-.3 1-.3l.3.1.2-.1h.2-.3l.3.1h.2q.2 0 0 0h.3l.3.1h-.2v.2h.3c-.2-.1.3-.1.3-.2.3 0 0 .2.5.1h.3-.3l.1.1h.3q-.2 0 0 0h.3l-.1-.1h.6-.4l.4.1h-.1l.3.2.1-.1h.6c0 .1.3.2 0 .2l-.6-.2q0 .2-.3 0 .2.2 0 .2h1-.1l.2.1h.2q0 .1 0 0l.3.3-.2.1h-.3l-.4-.1-.4-.1-1-.2-.9-.1h.2l-.2-.1H110l-1-.1h-7.3l-.5.1h-1.3l-1.5.1-1.2.2H97l-1.9.3-1.3.3-.7.2-.9.1h-.4q-.6 0-1 .2h-.2l-1.1.3-1.1.3H88q-.1 0 0 0-1.5.4-3.3.4c-.8 0 0-.2-.6-.1h-.7l-1-.2H81l-3.4-1-1.6-.6-1.5-.6-3-1.2q-.5 0-.8-.3l-.8-.4-1.5-1-.7-1-.4-.3-1-1.8q.1.2.1 0h-.1v-.1l-.8-1-1.8-1.7-1-.7-1.2-.8-1.5-1.2-1.4-1.3.6.3.9.7 1 .7v.2q.6.2 1.2.7l1.1 1zm49.7 6.8q.2 0 0 .1m0 2.3h-.2zm-2.2-.4h-.2zM103 146h-.4l-.3-.2-.5-.5v-.2l-.6-.8-.3-1-.2-.5v-.4h-.1l-.4-1-.7-1.6-.2-.3-.2-.4-.2-.3-.2-.4-.1-.2-.3-.2c0-.2.2.1.2 0q-.8-1-1.8-1.7v-.2l-.4-.1v-.1l-.3-.2h.1l-.4-.2-.4-.3-.2-.2-.6-.4-.6-.4-.2-.2s-.4-.2-.3 0l-.6-.5q0-.2.1 0v-.2l-.4-.2-.5-.2v-.1l-.4-.1v-.2h-.2q-.2 0-.2-.2l-.2-.2h-.3.1l-.3-.2-.5-.3-.6-.5-.2-.1-.2-.1-.7-.7h-.2v-.1l-.1-.2c-.2 0 .4.4.3.2l-.2-.1-.3-.3-.1-.2q-.2-.1-.2 0-.2-.2 0-.3l-.2-.1-.2-.2-.3-.4-.2-.3v-.1l-.1-.3h-.2l-.2-.4h.1l-.2-.3-.1-.2h-.1q-.3-.5-.3-.9h-.1v-.1l-.2-.4v-.6l-.1-.1v-.1.1H85v-.3h-.1v-.2.1-.3l-.2-.3v-.5l-.1-.2q.2 0 0-.2v-2 .1-1.6h.1v-.1l.1-.4v-1.4q0-.2.1 0v-.4l-.1-.2c0-.2.1.2.2 0 0-.1 0 .2 0 0v-.1c-.1-.2-.2 0-.3-.3l.1.1v-.3h-.1q0-.2 0 0 0-.2-.2-.3h.1q0-.2-.1-.1v-.3h-.1v-.2l-.1-.2q-.1-.2-.2 0l.1.1-.1-.2-.2-.2v-.2l-.2-.1-.1-.1h.1v-.2h-.3l-.2-.4h.2-.1v-.2H83c-.2-.1 0-.2-.3-.3v.1l-.2-.1.1-.1h.1l-.2-.2v.1l-.2-.2v.2-.1l-.3-.2q.1.2.2 0l-.2-.1-.1-.2h-.1l-.4-.2q-.1-.1 0-.1 0 .2.4.2l.2.1q-.2 0-.1-.2h-.2l-.4-.2-.5-.5c0 .1-.2-.2-.2 0q.2 0 0 0l-.1-.1h.1c-.1-.2 0 0 0-.2q-.2 0-.5-.3t-.5-.6v-.2q0 .2-.1 0l-.3-.3h.1l-.2-.4v.1l-.4-.5v-.3l.1.2h.1v.1l.1.2.2.2.2.2q0 .3.3.4l-.3-.2.2.3h.2v.1l.3.2.3.3q0 .2.3.3l.5.4.6.5 1.1 1v.1l.2.1.6.5.5.7v.1l.4.3.2.6.2.4.1.5.2.9-.2 1.9v.2l-.1.5v1h-.1v1.3h.1v.9l.3 1.2.3 1 .3.8q0 .4.3.6v.1l.4.6.3.6.1.2.6.7.7.7.3.3q0 .2.2.3l.5.5.7.4 2 1.3 1.1.9.6.3.5.5 1.1.7 1 .8 1.8 1.6.5.7.2.2.9 1.5v.1h.1c.8 1.5 1 3 1.5 4.1q0 .5.4 1l.3.5.4.4.2.1.3.1h.5l-.1.1zm-24-37.4q0 .2-.1 0m2.4 3.4-.2-.2zm.7.5"/><path fill="#f5beb1" d="m83.1 113.7.1.2zm18.7 7.2-.5.5-.6.6v.1h-.1v.1h-.1v.4l-.2.7v.4h-.1v2.7h-.1v1h-.1l-.1.2-.2.3v.1h-.1v.1h-.1v.1l-.1.1-.1.2h-.1l-.1.2H99v.3c-.2-.1 0 0-.2 0v.2l-.3.2-.1.2h-.2v.3H98v.2h-.1l-.1.1h-.2v.2l-.1.1-.3.3-.2.1h-.1v.1l-.2.1h-.2q0 .3-.3.4H96v.1-.1h-.1v.3h-.1v.1h-.1v.1h-.1v.2h-.2v.2H95l.2.2-.1.1v.1-.1H95v.2h.1-.1l-.1.1v.2-.2h-.2l.1.2v.2h.1v.1h-.2v.7h-.1v.2l.1.1v.1h-.1v-.2h-.1v-.1l-.1-.2h.1l-.1-.1v-1l.1-.5v-.1l.1-.3.2-.2v-.2l.3-.1.4-.5.6-.3h.2v-.2l.3-.1v-.1l.3-.2.2-.2.4-.3.4-.6.2-.2.2-.2.2-.2h.1l.4-.6h.1l.1-.1.1-.2v-.3q.4-.6.3-1.3v-2l.1-.7q.1-1 .8-1.6l.2-.4 1-.6q.4-.1.2.2m-7.7 13.2"/><path fill="#f5beb1" d="m102 121-.5.4h-.1q-.2.3-.7.3l-.1.1-.1.1q0 .2-.3.2l-.4.4h-.1l-.1.2h-.1v.1l-.1.1v.1h-.1l-.5.6v.1h-.1v.1l-.1.2q-.1.1 0 .2l-.1-.1v.5h-.2l.1.1v.2h-.1v1.1h-.1l-.1.2v.1l-.2.3v.1c0 .1 0-.2 0 0l-.1.1h-.1v.1l-.1.1v.2l-.2.1v.2h-.2v.2H97v.1h-.1v.2l-.3.2-.1.2h-.2v.3h-.2v.2H96v.1l-.1.1h-.1v.1l-.2.2-.3.2-.1.2h-.1v.1l-.1.1v.1h-.2l-.2.5h-.1v.1h-.1l-.1-.2v.5h-.1.1-.1v.3h-.1v.1l-.1.1v.1h.1q-.2 0 0 .2h.1-.1v.1h.2v.1h-.1v.1l.1.2-.1-.1-.1-.1H94v.1h.1l.1.1v.3h.1-.1v.1l.1.2.1.2v.7-.1h-.1v-.1l-.1-.1-.1-.2.1.1-.1-.1v-.1l-.2-.3v-.2l-.2-.3-.1-.6v-.7h.1v-.3l.1-.1q0-.4.3-.6l.5-.5.2-.1v-.1l.2-.2.3-.3.2-.3.4-.3.5-.5.2-.2.2-.3.2-.2.4-.6h.1l.1-.1.1-.2v-.3l.2-.7.1-.8.3-.9.6-.6.2-.2v-.1l.4-.4h.1q.7-.6 1.2-.8.3 0 .4-.3.5 0 .8-.5zm-8 11.4h.2zm-3.7-.5-.5-.2q-.3-.1-.4-.5v-.1h-.2v-.1l-.2-.1-.3-.3h-.2v-.1l-.1-.1-.2-.1h.1l-.4-.4h-.1v-.1h-.1v-.1h-.1l-.2-.1-.2-.1v-.1H87v-.2h.1-.3l-.1-.1h-.3l-.2-.1H86l-.2-.1h-.2v-.1h-.3l-.1-.1h-.1v-.1h-.4l-.2-.2h-.2v-.1h-.4v-.1h-.2v-.1h-.2l-.2-.2h-.1v-.1H83v-.1l-.4-.2v-.2h.1v-.1h-.4l.1-.1h-.2v-.2h-.1v-.2h.1-.2q.2 0 0 0l.1-.1h.1-.2q.2 0 0-.1h.2v-.1H82h.1v-.1h-.2.2v-.1h-.2v-.5h.1l.1.2.1.2h.1l.1.2.2.2.2.1v.2h.2v.1l.3.2.3.2q0 .1 0 0l.1.1h.1l.1.1h.1l.2.2h.2v.1l.3.1.4.2h.2v.1h.2l.1.1.5.2h.1l.2.1h.2q.7.2 1 .6l.9.7v.2h.2l.3.3.8.8.2.1q.1.4.6.6zm-3.1 23.3c.1-.2-.2 0 0-.1m-3.7 1.9-1 .4-1.2.1H80q-.8 0-1.3-.3H78v-.1h-.3l-.1-.1h-.1l-1-.2-1.8-.2H73l-.3.1-.4.1c-.1 0 .2 0 0 0Q71 157 70 158h-.2l-.2.4h-.1q0 .3-.2.4l-.2.4-.2.5v-.1l-.1.3-.3.7-.5.6-.2.1-.2.2-.7.4v-.1h-.1l-.3.2-.4.5-.1.1v.2l-.1.2-.3.4v.3q-.1.2 0 .2v-.1l-.1.4v-.1l-.1.7v-.1q0 .5-.2.9v1.8l-.1-.3v1.4l.1.2.1.2q.1.3.4.3l.3-.1.3-.2v-.2l.3-.4q0 .1 0 0l.2-.4h-.1l.2-.2v-.2l.5-.9v-.1h.1l.2-.5h.1l.1-.2q.1-.1.1 0l.2-.2h.1l.2-.2h-.1l.2-.1.2-.1h.2-.1.2l.1-.2h2.2l.8-.5q0-.1 0 0l.4-.5.2-.2.2-.2.3-.4h.1q0-.2 0 0l.4-.4 1.1-1 .1-.1q.2 0 .3-.2l.2-.2h.1c.2-.1-.2.2 0 .2v-.1c.2 0-.2.2 0 0h.1c.2-.2 0-.2.3-.4l-.1.2.3-.3q-.2 0 0 0l.1-.2.2-.2q0 .2 0 0h.1q.1-.2.1 0l.3-.2v-.1h.2l.2-.2.2-.2-.3.2.3-.2.2-.1.2-.1h.1v-.2h.3q.2-.2 0-.2h.2l.1-.1.4-.1H79l.1.1.2-.1c-.2 0 .2-.2 0-.2l.5-.2.2-.2c-.1.1.2 0 0 .2h-.2.2l.2-.2.2-.1h-.2.2l.3-.2q-.2 0-.2.2l.3-.2h.3v-.1l.4-.3h.2l-.5.3-.3.1h.4v-.1l.5-.3q.4 0 .8-.3c-.2 0 .3-.2.1-.2q-.2.2-.2 0h.3q-.2 0 0 .1h.2zq.5-.1.8-.4h.2l.1-.1.4-.3v.1q.2 0 0 0 .3 0 .5-.3h-.1l.6-.4h.2l.2-.1-.4.3v-.1l-.2.2.1-.1-.1.2.1-.1-.3.2-.3.2-.6.4.3-.3-.3.1-.2.3-.4.2-1 .5-.6.3-.8.4-.8.4-.8.4H80l-.2.2-.8.4-.8.4-.1.1-.4.3-.6.4-1.6 1.2h-.1l-1.5 1.4v-.1q-.3.2-.2.3l-.4.3-.3.3-.5.6v-.1l-.2.3-.4.3-.5.1-.1.1H69q-1 .6-1.5 1.7l-.3.7-.1.2-.5.8q0 .3-.6.7l.1-.1-.4.2q-.5 0-.7-.3l-.3-.6-.1-1.2v-.9l.1-.7.1-1q.1-1.2.8-2.5.5-.6 1.2-.9l1-.7c.4-.6.5-1.5 1.1-2.3a4 4 0 0 1 2.3-1.8l1-.2.3-.1 1.9-.2q-.2 0 0 .1h1.4l1.1.3 2.2.5 1.3.1q1.7.2 3.4-.6.4 0-.4.3m-1.3.7.4-.1zm-.8.4H81zm-1.8.9h-.2zM26.6 59.5h-.1M44 74.3l-.8-.7-.5-.4q-.2 0-.5-.3l-.2-.1-.1-.1q-.2 0-.5-.3l-.8-.3h-.2l-.2-.1h-.1l-.2-.1h-.3l-1-.3h-.5v-.1h-.8l-.3-.1h-.5v-.1h-1.1q0-.1 0 0h-.2v-.1H35l-.3-.1h-.2l-.5-.2h-.2v-.2l.2.1h-.2l-.2-.1v-.1h-.1l-.2-.1-.2-.1-.2-.2-.2-.2-.2-.2-.2-.2-.1-.1-.1-.1H32l-.3-.5v-.1l-.2-.2v-.1l-.1-.2V68v.1h-.1V68l-.1-.1-.1-.2v-.1l-.1-.2v-.1l-.1-.1-.1-.4-.2-.5-.1-.3-.1-.1v-.3h-.1v-.2l-.2-.7v-.2H30v-.1h.1l-.1-.2V64l-.1-.1v-.1h-.1v-.4h-.2v-.2l-.1-.1V63h-.1v-.3h-.2v-.3H29h.1v-.1l-.1-.1h-.1v-.3h-.1l-.2-.1v-.1l.2.2.1.1v-.1l-.3-.2-.2-.4h-.1V61l-.3-.3-.3-.3v-.1l-.3-.2-.1-.2-.3-.2h-.1.2l.1.1h.2v.1l.1.1.3.2h-.2.1l.2.1.1.2.4.4.2.3.3.3.5.7v.1l.3.4.1.4.2.2v.3l.4.8.3 1v-.1.4l.1.1.2.4.1.6.2.4.3.7.6 1 .2.3.3.4.3.2v.1q.1 0 0 0 .5.5 1 .6l.2.1.1.2h.4v.1h.4q1.1.3 2.2.3l2.5.5h.2l.8.3q1.1.3 2 1 .3 0 .5.3l1.2 1.2zM28.4 61.4h-.1zm.3.4v.1m-2.3-2.3"/><path fill="#f5beb1" d="m41.2 72.1-.5-.6-.4-.9v-.3l-.2-.4-.3-.6V69l-.1-.1v-.3h-.1l-.1-.2-.4-.8v-.2H39v-.1l-.2-.2V67h-.1l-.2-.3-.2-.2-.2-.1-.1-.2V66l-.3-.1-.1-.1h-.1l-.1-.2h-.1v-.1H37l-.2-.2-.3-.2h-.1l-.3-.2H36v-.1h.1l-.2-.1h-.1l-.1-.1h-.2l-.3-.2H35l-.3-.1h-.3l-.4-.2h-.3q-.2 0-.1-.1h-.7l-.1-.2h-.2v-.2h-.1l-.3-.1-.2-.3-.2-.1-.1-.1-.1-.1h-.1v-.2q-.2 0-.5-.3l-.2-.1h.1q0-.2 0 0l-.2-.1-.2-.1-.1-.1h-.1v-.2H30l-.1-.2h-.1q0-.1 0 0l-.1-.1-.2-.2-.2-.2H29h.1-.2.1-.2V61h.1-.1v-.1l-.3-.1h.3-.1l-.2-.1-.4-.2v.1-.1l-.1-.1h-.3q0-.2-.3-.2h-.1l-.2-.1h-.3l-.2-.1h-.1l.1-.1h.4l.2.1h-.1l.1.1h.3l.4.2.3.2.4.2.7.4h-.1.2l.3.3.2.2q.2 0 .3.2l.2.2.6.4.4.5h.1l.1.2h.1l.2.2.1.2h.2l.3.2.5.3 1 .3h.3l.4.2h.3l.1.1.9.3.2.1v.1h.1l.2.2.4.1a8 8 0 0 1 2.5 3l.1.3v.1l.3.6v.1q.4.7.6 1.6l.2.4q.1.6.7 1 0-.3-.2-.4M28.6 60.4h-.2zm8.4 5.1q.1 0 0 0m20.3 34.1-.7-.2-.7-.4v-.2q-.4 0-.7-.6l-.4-.8-.2-.3v-.3l-.1-.1-.3-.7-.6-1.2-.2-.2-.2-.3-.1-.1V94l-.2-.2-.1-.1-.2-.2q-.5-.6-1.3-1v-.1H51v-.1h-.3v-.1l-.3-.1-.3-.1H49l-.1-.1-.2.1H48l-.3.2-.2.1h-.1l-.2.1H47v.2l-.2.1-.4.3.1-.1-.5.2-.1.1-.6.3H45c-.1.1.3-.1.2 0H45l-.2.1h-.1q-.2 0-.1.1h-.3l-.2.1h-1v.1h-1q-.4 0-.7-.2h-.1v.1h-.4l-.1-.1h-.1l-.1-.1h-.2l-.1-.1h-.2.1-.3l-.1-.1h-.2.1l-.1-.1h-.3l-.2-.2h-.2l-.2-.2-.1-.1h-.2l-.3-.1-.3-.2-.8-.6v-.1q-.4 0-.4-.3h-.1l-.1-.2h-.1l-.1-.1-.3-.3v-.1l-.2-.4-.8-.9-.2-.3h-.2q0-.1.1 0V89q.1.2.2 0h-.1q.2 0 0 0 0-.1 0 0c-.2-.2-.2 0-.3-.2l-.1-.1h-.1q-.1-.2-.1 0l-.2-.2h.1q-.1-.2-.2 0v-.1l-.1-.2h-.1l-.2-.2h-.1.1-.2v-.1H33l-.1-.2h-.2l-.1-.1h-.1v-.1h-.2l-.2-.2h.2-.1v-.1H32c-.2 0 0-.2-.3-.2h-.2.2v-.1h-.2l-.2-.1H31l-.1-.1h.2-.2l-.1-.2-.4-.1q-.1 0 0-.1l.3.2h.2q-.2 0-.1-.1h-.1l-.5-.2-.4-.3h-.2v.1l-.1-.2h.1v-.1l-.4-.2-.5-.4v-.2h-.1l-.2-.2q0-.1 0 0 0-.2-.2-.3l-.2-.3V84l-.1-.1.2.2v.2-.1h.1l.1.1.2.2.3.3-.3-.1.2.1.2.1.2.2.3.2.2.2.4.2.6.4 1 .5.1.1h.2q.3.3.5.3t.6.4l.4.2.4.3.3.2.3.3.5.6 1 1.3.1.2.3.3.2.2.5.5q-.2 0 0 0l.2.1.3.3.4.3h.1l.6.4h.1l1 .5 1 .2.8.2h1.8v.1h.2l.6-.1.7-.2h.2l.3-.1V93l.4-.1.4-.3.7-.4.7-.3 1.6-.4q1.8 0 3.1 1.4l.5.4.2.1.7 1v.2h.1l1.4 3q.1.4.5.7.3.5.9.8.5.3 1 .2v.1zm-27-13.5L30 86zm1.7 1.1h.2zm17.8 4.6"/><path fill="#f5beb1" d="M44.3 81.3c.2.1 0 .3.2.5v.6h.1v.2h.1q.2 0 .2.2l.3.3.2.1.1.1q.1.2.2.1l.5.3h.2v.1h.2v.1h.1l.2.1.2.1h.2l.1.2h-.1.1l.2.1h.1v.1l.1.1.1.1h.1l.1.2.1.1v.1l.2.3v.1h.1v.2l.1.1v.2h.1v.2l.1.1v.1l.1.1v.3h.1v.1l.1.1v.6h.1v1.7H49v.2-.1h.1v.8H49h.1v.2h.1-.1v.2h-.2.1v.1l.1.2h.1v.2l.1.1.1.1v.1l.1.1h-.2l-.1-.2h.1-.1L49 91v-.1l-.1-.2-.2-.4-.1-.2v-2.3h-.1v-.2l-.1-.4-.2-.6v-.1l-.1-.3V86H48q0-.3-.3-.5.1-.1 0-.1V85l-.2-.2-1-.7-1-.6-.3-.1-.5-.4q-.5-.4-.7-1v-.3l-.1-.9zm4.9 10.4"/><path fill="#f5beb1" d="M44.4 81.3v1.3l.1.2v.5h.1v.2h.1v.3l.2.5v.2h.2v.2l.2.2h.1v.1h.1l.1.1v.1h.3v.1h.1v.1h.2l.2.2v.1l.1.1.2.2v.2h.1v.1h.1v.2l.2.1v.3q.1 0 0 0 0 .2.1.1v.3h.1v.1h.1v.1l-.1.1h.1v.2h.1v.3l.1.2v.3q.2 0 0 .2h.1v.4l.1.3v.1h-.2.2v.1l.1.1h-.1v.2h.1v.1h.1v.3h.3v.2h.1l-.1.1h.2v.1h.1v-.1h.1v.1l.2.2h.1v.2l.2.1h-.3v-.1h-.1l-.2-.1h-.2l-.1-.2q-.2 0-.3-.2l-.3-.1v-.2l-.2-.1V90l-.2-.4-.1-.5V89l-.1-.2v-.4H47v-.2l-.1-.4-.2-.5-.1-.2v-.2l-.1-.2-.3-.5V86H46v-.1l-.3-.2-.4-.3-.5-.4-.4-.6-.2-.5v-.3l-.2-.4v-2.3q0 .2.3.3M47 87h.1m-.3 5.9-.3.2h-.4v.1H46l-.2.1-.2.2v-.1l-.1.1h-.2l-.4.2h-.2v.1l-.2.1v.1h-.1l-.1.1v.1h-.1q-.1 0 0 0l-.1.1v.1h-.2v.1l-.1.1h-.1v.1h-.1v.1h-.1v.1h-.1v.1h-.1v.1l-.1.1H43v.1h-.3v.1h-.1v.1h-.2v.1h-.1l-.1.1H42v.1h-.1v.1h-.3l-.2.2V96v.1q-.2 0 0 0h-.1v-.2.2q-.1 0 0 0H41v.1h-.2V96h-.2v.1h-.2v.1h-.1V96q-.1 0 0 0H40h.1-.8v-.1h-.2v-.1h1.2l.2-.1h.3l.4-.1.3-.1h.2v-.1h.1l.3-.1v-.1l.3-.1.4-.2v-.2h.2l.1-.1.3-.3h.2v-.2l.8-.5.7-.3h.1l.2-.2.7-.2.2-.1.4-.2zm10.6-3.2v.2zm1.4-12.1c.3-.5 1-1.1 1.3-1.7l.1-.1 1.3-2.2.2-.4.2-.3v-.1l.1-.1.4-1 .6-1.8.2-.4V69l.1-.3.1-.5v-.6c0-.1 0 .2 0 0a5 5 0 0 0-.7-2.4l-.1-.2-.3-.2v-.1q-.2 0-.3-.2l-.4-.3-.3-.3c-.2-.2 0 0-.3-.1h.1l-.7-.4-.6-.4-.1-.2h-.3l-.6-.4h.1l-.4-.3H58V62h-.5l-.1-.1-.2-.1.3.2v.1l.1.1.2.3v-.1l.2.4v.1l.1.2.1.4v.4q.2.4.1 1v.4-.3.9h-.1v.4H58v.2l-.1.3-.2.5-.1.4v.1l-.3.3v.1l-.1.5q0-.1 0 0c-.2 0 0 .1-.2.3h.1l-.1.3v.2l-.4.9v.1l-.1.5v.2q0 .2-.1.1v.6-.2.9l.1.3v.2l.2.3v.4l.2.1.3.7.5 1h.1l.3.6v.3h.1l.1.2.2.5v.6q.2.7 0 1.4v.2l-.1.3v.2h-.1v.1c-.1.1 0-.3-.1-.2-.1.2 0-.2-.1 0v.6-.2.4H58v.4q0-.2-.1 0v.1l-.2.3v.1l-.2.3v.2l.1-.2v.2q-.2 0-.1.2l-.2.2v.4-.2l-.2.2v.3l-.1.3v-.2.1h-.1v.4c0 .2-.1 0 0 .4V84v.3l-.1-.1V84v.3-.1.3-.1.4-.3.3l-.1.2v.5q0 .2 0 0V85l-.2.2v.1l.1.5v.8q0-.3.2-.2v.3l-.2-.1v.1l.2.5v.9h.1l.1.4v.4l.3.5v.3-.2l-.2-.2h.1l-.1-.2v.1-.1.1l-.2-.3v-.3l-.2-.4.2.2v-.2q-.2 0-.2-.3l-.1-.3-.1-.8v-3.1l.1-.7.3-.7V82l.2-.4.3-.5.7-1.7q.4-1 .1-1.8v-.3l-.1-.5-.2-.3-.3-.6-.2-.3-.5-1-.4-.8v-.1l-.4-1.4v-1.1l.3-1.1.3-.8v-.1l.4-.8.3-.8v.1l.1-.3.5-2c.2-.5.2 0 .2-.4v-1l-.3-.8v-.1l-.2-.2-.1-.2-.2-.2-.6-.6-1-.9.3.1h.2l.7.4 1.6.8 1.7 1 2 1.4q1 1 1.4 2.3v1.3q0 1-.3 2v-.1.2l-2 4.4-.7 1-2.2 2.7q-.2-.3.2-.8m-1.5 11.9q0-.2 0 0m-.6-4v.3zm.1-.6q0-.1 0 0m-.1-.1v-.2zm.3-1.6V83zm-.3 1.4"/><path fill="#f5beb1" d="M73.8 72.7v.5l-.3.5q-.3.5-1 .6l-.1.1-.2.1-.4.3q-.4.1-.7.5h-.2l-.1.2-.1.2h-.2v.2q-.2 0-.1.1l-.7.8-.1.2-.1.2-.1.1-.1.2-.1.1-.1.3-.2.3q-.2.1 0 .2l-.2.2h-.1l-.1.4v.1h-.1v.1l-.1.1-.1.1v.1l-.1.2-.1.2-.3.2v.1h-.1l-.3.4v.1h-.1v-.1l-.2.2v.1h-.1l-.1.1h-.1l-.1.2h-.2l-.2.2H66l-.3.1h-.2l-.1.1H64l-.1-.1h-.5l-.2-.1H62v.1h-.4v.1h-.3l-.5.3h-.2v.2h-.1v-.2h-.1v.2h-.2v.1l-.1.1h-.2l-.2.2v.2h-.2v.1h-.1v.1H59v.2h-.2v.1l-.1-.1v.2h-.1l-.2.1v.2h-.1l.1-.2-.1.2q-.2 0-.3.2h.1v.1H58l-.2.1-.2.2h-.1l-.1.2h-.2l-.1.2H57h.1v-.1h.1v-.2l.2-.1v.1h.1V84l.4-.3.1-.2.3-.2.5-.5q.3 0 .3-.3l.3-.2h.1l.1-.2h.3l.7-.5.8-.4v.1l.3-.1h.2l.3-.2h1.9q.5.2 1 .1h.4l.3-.1.4-.1.8-.6h.2l.2-.2.2-.2.2-.3 1.1-1.9q.5-1 1.2-1.8l.3-.3v-.1l.7-.6v-.1l1-.6.9-.4.4-.3q.7-.4.5-1.2-.3 0-.1.3M56.6 84.7h.1m16.8-12"/><path fill="#f5beb1" d="m60.6 82 .6-.5.5-.7h.1v-.2l.1-.4.1-.6v-.3l.1-.1v-.3h.1l.2-.8v-.3h.1v-.1l.1-.1.1-.3.2-.2V77l.2-.2h.1v-.3l.1.1v-.2h.2v-.1q.1 0 0-.1l.1-.1.2-.2h.2v-.1h.1l.3-.2v-.1h.2-.2.2l.1-.1h.2v-.1l.1-.1h.6V75h.4q.3-.1.4 0v-.1h.6v-.2h.2l.1-.1h.1l.1-.1h.2v-.1l.2-.2.3-.3.2-.1.1-.1v-.1h.1l.1-.2h.2q.1-.3.4-.5l.1.1.1-.1.1.2.1-.2h.1v-.1l.1-.1h.4v-.2h.1l.1-.1h.1l.1-.1h.2v.1-.2q.2.2.2 0v.1h.1l.1-.1V72h.4-.2v.2h.1V72l.2-.1h.3v-.1.1h.6v.2h.4l.2.1v.2h-.1v-.1h-.5l.2-.2h-1.2l-.5.2H71l-.3.1-.3.1-.2.1H70l-.5.5q-.4.1-.6.4v-.1l-.1.1-.2.2-.3.3-.4.3-.3.2q-.2.3-.5.3l-.9.3-.3.1h-.7v.1l-.6.3h-.4v.2H64l-.2.3a5 5 0 0 0-1.6 2.5v.2h-.1v.7H62v.1q-.1.8-.5 1.5l-.3.4-1 .7q.2 0 .3-.3m4.1 27.9.1-1v-2.2h.1q0-.5.3-.8v-.2l.2-.2v-.3h.1v-.2h.1l.3-1v-.5h.1v-.8l-.1-.3v-.6l-.2-.3v-.1h-.1v-.4h-.1v-.1l-.2-.3v-.3l-.1-.1q0-.2 0 0l-.2-.5v-.2.1l-.1-.3v-.4h-.1v-.2l-.1-.3v-.2h-.1V98l-.1-.3v-.4l-.1-.6v-.9.2-1.7l.2-.6v-.9h.1l.1-.3.1-.4q.2-.3.5-.3h.3q.2 0 0 0v.1h.1q0-.2.2-.2h-.1.1q.2 0 0 0l.2-.2v.1h.2v-.1l.2-.1v-.1h.2v-.1h.1V91h.2l.2-.2v.1-.2l.2-.2v-.1.1l.1-.1V90v.1l.1-.1v-.3q.1-.2.1 0v.3-.4h.1l.1-.4v-.1h.1v-.7h.1v-.3l.1-.3v-.3l.1.1v.2-.1.7-.2l-.1.1v.8H68v.3l-.2.4q0 .5-.3.8v.2l-.3.3-.3.3-.2.2-.3.2q-.4.3-1 .3l-.3.2-.1.4-.1.4v.6h-.1V95h-.1v2.4l.1.5.1.3v.2l.4 1v.4q0 .2.2.3l.2.3.5 2.2q0 1.2-.2 2.2l-.2.3v.1l-.4.7v.1q0 .5-.3 1v2.4q0 .4-.3.8-.4 0-.3-.4M67 90.7h-.2zm1.2-3.5"/><path fill="#f5beb1" d="m65.7 104.2.2-.6q.2-.4.6-.7v-.1l.1-.1.1-.4.2-.6v-.8q0-.1.1 0l.1-.7v-.3h.1v-.6l.1-.3v-.3h.1v-.9l-.1-.2V97l-.1-.1v-.1.1-.5h.1v-.5l.1-.2v-.2h.1v-.3l.3-.3v-.3h.1V94h.1v-.2l.1-.2v-.1h.1v-.4l.1-.4v-.4h.1v-.2l.1-.7v-.3h.2v-.2l-.1-.2v-.6q0-.1 0 0v-.3h.1l-.1-.1v-.2h.1v-.1h-.1V89q0-.2 0 0v.2l.2-.1h-.1v-.5h-.1v-.3l-.1-.3v-.5l-.1-.1v-.1.2h.1v.1l.1.2h-.1l.1.1v.1l.1.4v.5l.2.6v2.6h-.1v.4l-.1.3v.1l-.2.4v.3h-.1l-.2.6-.3.7-.1.3-.1.3-.1.3q-.1.4 0 .8-.2 0-.1.1v.7l-.1 3.2v.2h-.1v.1l-.1.6-.2.8-.2.4-.2.3-.3.4q-.3.3-.4.9zM68.5 90q0 .1 0 0m102.2 48.3.2-.3.1-.3.2-.4.2-.3.7-1.7.1-.3v-.3h.1v-.1l.2-.7v-.6l.1-.3v-.6l.1-.3v-.9h.1v-2.6l-.1-.5v-.5h-.1v-.6l-.2-.2h.1l-.1-.1v-.4q0-.1 0 0l-.1-.2v-.2l-.2-.4v-.1l-.1-.3v-.2.1-.3h-.1v-.2l-.2-.1v-.2l-.1-.2-.1-.1-.2-.2v-.2h-.1v-.1l-.3-.4c0-.2-.2 0-.2-.2h-.1v-.2h-.1v-.1h-.1v-.1h-.1v-.1h-.2.1v-.1l-.2-.1v-.1l-.1-.1h-.1v-.2h-.2l-.2-.3-.5-.5-.3-.2-.1-.2h-.2l-.2-.2-.2-.3q-.5-.1-.8-.5l-.2-.2h-.2l.2-.1v-.1h-.5v-.1q-.2 0 0 0h-.3q.2 0 0-.1l-.2-.2h-.1l-.2-.1h-.1.1-.2l-.2-.1h-.2l-.1-.2h-.3l-.2-.1h.1v-.1h-.7v-.1h.2-.5.1-.3.2l-.2-.1-.2-.1h-.4q-.1 0 0 0h.5l-.1-.2h-.1v.1h-.4l-.5-.1h-.2l.2.1h-.2v-.2h-1.5v-.1h-.3l-.4.1h-.2.1l.1-.1h.2-.1.5l.4-.1h-.2 1.8l.6.2 1.2.2h-.1.3l.5.2.5.2h.1l.4.2.3.2q.6.1 1.2.5l1 .8h-.1l.2.1.2.2.1.1.4.4q0 .2.1 0l.5.5.4.3.5.6.7.8.2.3.3.4.1.3.5.8v.6l.2.3a17 17 0 0 1 .6 5v.8l-.1 1.1v.1q-.1 1.7-.8 3.2l-.3.8-1.3 2.1q-.3.2 0-.3m-8.5-20.6h-.2zm2 10.2"/><path fill="#f5beb1" d="m168.6 151.3 1-.9h.1l1.1-1 .2-.3v-.2h.2v-.1l.2-.6.3-1v-2.9l-.1-.3v-.5l-.1-.2v-.2l-.1-.4v-.5l-.1-.2v-.6l-.1-.3v-.2l-.1-.1v-.5l-.1-.2-.1-.3v-.5l-.1-.2-.1-.5v-.2c-.1-.1 0 .3 0 .2v-.5h-.1v-.3h-.1v-.3q-.2 0-.1-.3l-.1-.2v-.3h-.1l-.1-.3v-.2h-.1v-.2l-.2-.5-.1-.3v-.2l-.1-.1v-.2h-.1v-.3.1-.1h-.1v-.1l-.1-.1v-.2h-.1l-.1-.2v-.1l-.2-.4q-.3-.2-.3-.4v-.1l-.2-.2v-.1h-.1l-.2-.2v-.3q-.3 0-.5-.3v-.1l-.1-.1v-.2h-.4v-.2h-.1v-.1l-.1-.1h-.2l-.1-.2h-.1q-.1-.2-.1 0v-.1l-.1-.2h-.2l-.1-.1h-.1v-.1h-.1l-.1-.1h.1l-.1-.1v-.1h-.3v-.1l.2.1h.1v-.1h-.3l-.2-.3h-.1v-.1l-.2-.2-.2-.3q0-.2-.2-.2v-.2q-.2 0-.2-.2v-.1.2h.1v-.1l.1.1.1.1.2.2h-.2.2v.1h.2l.2.4.3.2.2.2.6.4h.1q0 .2.3.3t.2.2l.3.1.1.2q.4.2.6.5l.5.5v.2l.2.2h.1l.2.4q0 .1 0 0l.3.6.2.4.3.7.5 1.2.2.4q0 .3.2.5v.6h.1l.3 1.2v.5l.1.4.2.4.5 2.8.3 3v1.8q0 .8-.6 1.5l-.9 1.2-.5.5-1.7 1.3zm-3.1-21.6h-.2zm1.1 2.4"/><path fill="#f5beb1" d="M168.5 149.8v-.8h.1l.2-1v-1.5h.1v-.4l-.1-.2v-.2l-.3-.9v-.3l-.1-.2v-.1l-.1-.1v-.2l-.1-.3-.1-.1v-.6l-.1-.2v-.3l-.1-.2v-.4h-.1v-.5l-.1-.1v-3l-.1-.1V137h-.1v-.9l-.2-.5v-.2h.1v-.1h-.1v-.6h-.1v-.1h-.1v-.5h-.1v-.2h-.1.1v-.1h-.1v-.2l-.1-.1h.1v-.3h-.2v-.3l-.1-.2v-.1q0-.2 0 0v-.2h-.2v-.1h.1l.1.1.1.1v.1h.1v.3l.2.2v.2l.2.5.1.3v.3l.1.1v.2l.2.6v1.1l.1.3q0 .1 0 0v1.4l.1.9v1q0 .1 0 0l.1.9v.9l.4 1.7.5 1.7v.3h.1l.1.8q0 .1 0 0v1l-.2.9v.5l-.2 1.2q0 .2 0 0m-20.9 13.2 1.4.3q.8 0 1.8.4h.3v.1h.4l.6.1 1.2.2h.8l.2.1h.5q-.2 0 0 .1l1.6.3h3l.3-.1h.1l.1-.1h.4l.2-.1.2-.2.3-.1.4-.2.1-.1h.1l.4-.5v-.1h.2-.1l.2-.2.1-.1v-.1l.2-.2v-.3l.3-.2v-.3h.1l.2-.2-.1-.1.2-.3.1-.2v-.1l.1-.2.4-.5q0-.2 0 0l.1-.4v-.2h.2v-.1h.1v-.2h.1-.1l.2-.2v-.1l.1-.1.2-.2h.1l.2-.2v-.2h.2v-.1l.4-.3.6-.4h.1l.3-.2.1-.1.2-.2.2-.1v-.1l.3-.2.3-.3.3-.3q.2 0 .2-.2v-.1h.1v.1h.1v-.3h.2v-.4h.2v-.1l.1-.1v-.1l.2-.2v-.2h.1l.1-.1v-.2h.2v-.2l.2-.2v.1l.1-.1v-.5h.1v.2-.1l.1-.2v-.3.2-.2l.2-.1v-.4.5l.1-.1v-.4l.2-.5h-.2l.1-.1h.1v-.4l.1-.5.2-.1v-1.1l.1.2v.2-.1.8l-.1-.2v.5l-.1.6v.4l-.2.5-.4 1v-.1.2l-.3.5-.2.4h-.1l-.1.3q0 .3-.3.3l-.3.6-.4.4-.2.3-.3.2-.4.4-.2.2-.2.1-.2.2q-.3 0-.4.3h-.2l-.6.4-.4.4-.4.3-.3.3-.7 1.3-.2.4v.1l-.3.5-.3.4v.1l-.8 1.2-.2.2-.2.2-.4.3-.2.2-.2.2a6 6 0 0 1-3 .7l-3-.3-.6-.1h-.2l-1.1-.2h-.1l-3-.6-.9-.2-2.3-.6zm22.9-10.8v-.2zm-6.9 6.2"/><path fill="#f5beb1" d="m151 162.9.5-.1h1.4l.5-.1h.4l.2-.1h.9v-.1h.6l.1-.1h.1v-.1h.2v.1h.2l.1-.2v.1l.1-.1h.2q.2 0 0-.1h.2v-.2h.2l.1-.1.1-.2h.1v-.2q.2 0 0 0h.1v-.1h.1v-.1l.1-.1.1-.2h.5v-.1h.6l.1.1h.4v-.1h.3v-.1h.2l.3-.2h.2v-.1l.1-.2q.2 0 0 0h.2l.2-.3h.1v-.1h.2v-.2h.1v-.1h.1q0-.2.1-.1v-.2h.1v-.1h.1v-.1h.2v-.1l.1-.1v-.1.1h.1v-.2h.2l.1-.2v.2l.1-.2h.3v-.2h-.1l.1.1.2-.1.3-.1h.5l-.1.1h-.4.1-.2l-.2.1-.2.1-.2.1-.3.3v.1l-.1.2-.2.1v.2h-.2q0 .4-.3.5l-.4.4-.1.1h-.2v.2h-.2v.2h-.4v.1l-.3.1h-1.8q0 .3-.3.5l-.2.1-.1.2-.2.2q-.7.4-1.4.5l-1.3.1h-.8v.1h-2.7v.2m9.2-13.3"/><path fill="#f5beb1" d="m131.3 152 .5.8.5.7v.1l.6.8.7 1 .2.2.2.2v.2h.1l.7.6.6.6.6.5.3.3.4.2.2.2.3.3.2.1.3.2h-.2l1 .7.5.3.5.3.1.1.4.2.3.2.3.1.4.2.2.1.6.3.6.2.2.1s.4.2.3 0l.3.2h.3l-.1.1.4.2h.9l.4.2h1.2l.6.1h1.6-.3 1.1l.2-.1h.2l.5-.1h.4l.3-.1v-.1l.5-.1h.3l-.1-.1h.2l.2-.1.8-.3.4-.2h.3l.2-.1h.1l.2-.1h-.2.2l.2-.2h.2v-.1l.3-.1h.2l.2-.2.2-.1h.2v-.1l.6-.3.8-.5.4-.3.2-.2.1-.1.3-.2h.1v-.1l.3-.2.8-.8q.2-.1.2-.3h.1v-.1.2h.1v-.2l.1-.2.1-.1v-.2l.2-.2q0 .1 0 0v-.1l.2-.2.1-.1.1-.2v-.1.1-.2h.1v-.1l.2-.2v.1-.3.1l.1-.1v-.3l.2-.2.1-.1-.1-.2.1-.3v-.2.2l.1-.1v-.2.1-.5.2-.8q0-.1 0 0v.5q0-.2.2-.2h-.1v-1l-.1-.1-.1.1v-.2q0 .1.1 0v-.1l-.1-.4-.2-.6v-.1l-.2-.3v-.1l-.2-.3-.2-.3-.1-.2.1.1h.1v.3h.2v.1l.2.2.2.3-.2-.1v.2l.3.1.1.3.2.7v.4l.1.4v1.6l-.1-.1v.3l-.1.7-.3.5v.2l-.2.3-.2.4-.9 1.3-1.1 1.1-.2.2-.3.2-.2.2-.5.4-.2.1-.8.4v.1l-.7.4-1.1.5-1.8.8-.6.2h-.2l-.6.2-.7.1h-.2v.1l-.9.1-1 .2c-.4 0 0-.2-.3-.1h-1.7l-1-.1-1.2-.2-1-.3-1.1-.4q-2.2-.9-4-2.2l-.7-.5-.2-.2-1.3-1q.1 0 0 0v-.1h-.1a22 22 0 0 1-3.5-3.9l-.7-1.2-.7-1.2zm29.9.6-.1-.2zm-3.4 6.2"/><path fill="#f5beb1" d="m132.6 151.5.6.9.4.5.5.6.2.2.1.2q.3 0 .5.3l.9.5h.1q0 .2.3.2h.1v.1h.2l.2.1h.2l-.1.1.6.2.7.2h.5v.1h1.9v.1h.5v.1h.3l.2.1h.1q.1.2.1 0l.2.1h.3q.2.3.4.2h.2v.1l.5.2h.3-.2.1l.2.1h.2l.2.1h.1l.2.1.3.1h.2v.1l.3.1h.3v.1h.4l.6.3h.3v.1h.2v.1h.8v.1h.5q0 .2.2 0v.2h.6q.4 0 .6.2h.3l.2.1h.4v.1h.1l.2.1h.8v.1h.3v.1h.2l-.1.2.3-.1h.1q.1 0 0 0h.5v.1h.4l.2.1h.2-.1.4v.1h.5-.1v.1h.3v-.1h.2-.1.5-.2l-.1.1.1.1.4-.1h.4v-.1h.9q.3-.1.2-.2h.3l.2-.1h.2-.3v.1l-.2.1-.3.1h.2-.2l-.2.1h-.5l-.3.1h-1.3l-.2.1h-.8v-.1h-.6l-1-.2-1.1-.2h-.2l-.3-.1h-.1l-.5-.1h-.1l-.6-.2h-.5v-.1l-.9-.2-1.3-.3-.4-.1h-.1l-.5-.2-.4-.2h-.1l-1.2-.4-.2-.1h-.2l-.4-.2h-.5l-1.2-.5H140q-1.2 0-2.6-.5l-.4-.2h-.2l-.8-.5h-.1q-1.2-.6-2-1.7l-.2-.2-.2-.3-.8-1.6q-.6 0-.2.2m-8.4-1.1q-.5.4-.8 1.2l-.8 1.5-.2.3v.2h-.1v.1l-.2.6-.5 1.2v.2l-.1.3v.2h-.1l-.1.3v.2l-.1.2-.4 1.6v.3h-.1v1.1l.1.5.2.4v.2l.2.1.2.4v.1l.1.2.3.3.2.2.2.1.1.3.1.2h.2l.2.3.3.3h-.1l.2.3.1.3v.1l.1.2.1.1v.3h.3v-.2l.1-.1v-.2h.1v-.3h.1l.4.2h.5l.1.1.2.2h.5l.3.2v-.1h.2l.2.1.7.3h.2-.2.1l.5.1h.2v.2h.4l.2.1h-.2.5-.1l.1.1h.2-.1l.1.1h.3l.2.1h.3l.2.1.1.2q.2 0 .1-.1l.7.1.9.1h1.7l1-.4h.3l.1-.2v.1h.1v.2q.2 0 0-.1c.2 0 0-.1.3-.2h-.1.3v-.1l.2-.1h.4v-.1h.3q.1 0 0-.1h.1l.1-.2h.3-.1.1v-.1h.5v-.1h.3-.1l.1.1h.2q-.1-.1 0-.2h.3v-.1l.1-.1v.1h.2-.1q.2 0 .2-.2h-.1l.2-.1h.1l-.1.1h.4v-.1q.2 0 .3-.2h.1l-.3.2-.1.1h.2l.3-.3v.1l.6-.2c-.2 0 .1 0 0 0l-.1-.1h.4l.3-.1.6-.2h.1q.3 0 .3-.2v.1h.1l.3-.1h-.1l.4-.2h.3l-.2.2v-.1h-.2v.1l-.1.1-.2.1-.4.2.2-.2h-.2l-.1.2h-.2l-.6.3-.4.2-.7.2-1 .4h-.2l-.6.3-.5.1h-.2l-.3.2-.4.1-1.3.5-1.4.4h-.2l-.4.1H131l-.8-.2h-.1l-1.2-.4-2-.5h.1l-.6-.2h-.2q-.2-.2-.7-.3h.1l-.6-.2-.3-.1h-.3l-.1.3-.6.5h-.3v-.4l-.1-.1-.1-.6-.1-.3-.2-.3c-.7-1-1.7-1.8-2.1-3q-.4-1-.2-1.7 0-.9.3-1.6l.2-.6v-.2l.4-1v-.2l1.3-2.8.4-.7.6-1 .9-.8q-.5 0-.7.3m15.6 13.6.1-.2zm-2.3 2.8q.3 0 .4.3t.5.3v.1l1 .6h.3v.1h.1l.1.1.5.2.8.2h.2l.2.1h.2v.1h.2l.2.1 1 .3h.1l.2.1h.1v.1h.4v.1h.8v.1h.4v.1h.6v-.1h1.8-.1.9l.2-.1h.6v-.1h.6v-.1h.2l.1-.1h.6l.1-.1h.1l.2-.1h.2q0-.2.3-.2l.4-.1.2-.2h.2l.2-.1h.2q.1-.3.4-.4h.2v-.1h.1v.1q.2 0 0 0l.2-.2v-.1l.1-.1h.2v-.1h.1v-.1l.1-.1h.1v-.1h.1v-.1h.1l.2-.1v.1h.1v-.2h.1v-.2.1h.1v-.2h.2v-.3h.1v.2l.1-.2.2-.1v-.2h.1l.1-.1.2-.3h.1v-.2h.2v-.3h.1v.4l-.1.1v-.1h-.1v.3l-.3.3-.1.2-.3.3-.4.4-.2.3-.3.1-.2.2h-.2q-.2.4-.6.5l-.6.4h-.1l-.2.1h-.1l-.3.2q-.2 0 0 0l-.5.2-.4.1-.6.2-1 .2h-.3l-.4.1h-.4l-1 .1h-.9l-2.1-.2q-1 0-2.1-.4l-.4-.2h-.1l-.8-.2h-.1q-1-.3-2-1l-.7-.2q-.8-.5-1.3-1.4h.1q0 .5.2.6m17.5-27.4v.2zm0 2q-.4.4-1 .6l-1.2-.1-.1-.2q-.6-.2-1-.7l-.7-.4q-.3-.2-.7-.1h-.5l-.4.2h-.1l-.1.1-1 .6-.9.5h-1.5l-.6-.2-.3-.1h-.1l-.4-.2-.2-.2-.4-.2q.2 0 0 0l-2.5-1.3h-.1l-.5-.1h-.5l.1-.1h-.6.1l-.5.1h-.3l-.7.3-.7.4h-.3l-.2.4h-.1l-.2.2-.1.2h-.1v.1-.3q0 .2 0 0l-.1-.3-.4-.4q0-.1 0 0l-.2-.2h-.5l-.2.1-.1.3q-.1.2 0 .2v-.1l-.3.4-.8.2h.2l-.6-.1-.5-.3-.1-.1-.2-.2-.3-.4-.3-.5-.2-.3v-.2l.2.4-.2-.3-.2-.4q.1 0 0 0v-.3l-.1-.2-.1-.3v-.2l-.2-.4V136l.2-.3v-.5l.2-.3v.1l.1-.2.1-.2.2-.3.1-.2q.5-.6 1-.8l.1-.1h-.1.1c.3-.1.2-.2.5-.4h.1l.2-.1h.2l.2-.2h.2l.1-.1h.2-.3l.3-.1.2-.1.2-.1h.2l.1-.1h.1l.3-.2h.3l.3-.2h.3l.3-.1.2-.1.9-.2 1.3-.3h.2-.2 2.2v.1h.2l.5.2q.8.2 1.6.7h.2q.1.2.3.2h.3v.1c.2.1-.3 0-.2 0v.1c.2 0-.2 0 0 0h.6-.2l.4.2h.2q.1 0 0 0h.3c.1.2-.2.1 0 .2h.2l.3.1h.2l.4.2h.2l-.3-.1h.3l.2.1h.1l.3.1h-.2.4l.2.1h-.2l.3.1h.4l.3.2h-.2.2q-.2 0 0 .2h.1c-.1-.2.3 0 .3 0 .3 0 .1.1.4.2h.3c-.2 0 .1.2 0 .1h-.2.1l.2.1.3.1q-.2 0-.1-.1h.1l.3.2v.1h-.3l.4.1h-.1l.3.2.5.3s.3.2 0 .1l-.4-.3-.3-.1.2.2h.2l.5.3.3.3.3.2.1.1v-.2l.2.3q-.2-.2-.2 0l.1.2q.3 0 .5.4l.6.7v.2q0-.1 0 0l.4.4h-.1q0 .3.3.4 0 .3.3.5v.4l-.2-.4v-.2.1l-.1-.1-.1-.2-.2-.3-.4-.5.3.2-.1-.2-.3-.2-.2-.3-.6-.7-.6-.5-.7-.6-1.6-1 .1.1-.1-.1h-.3q-.4-.3-.9-.3l-.8-.3-.2-.1h-.5l-.7-.3q-1.2-.2-2.2-.8l-2.1-.9h-.3l-.7-.2h-1.3.1-.4l-1.3.3h-.1q-.6 0-1 .3h-.1l-1.6.5q-1.4.6-2.4 1.4l-.4.3-.3.4-.1.1-.5.8-.2.9v-.1.4q0 1.2.6 2.3c.2.6-.1.1.2.5q0 .3.2.4.2.5.4.6l.8.4q.5 0 .7-.2l.2-.4.4-.5h.7q.3 0 .5.4v.2l.2.1v.1l.3-.2.7-.5a5 5 0 0 1 4.2-.2q.7.2 1.3.6l.8.6.3.1q.9.6 1.8.7-.1 0 0 0h.1q.1 0 0 0l1.3-.1 1.1-.6q.6-.4 1.3-.6a2 2 0 0 1 1.4.1l1.1.9.7.4q.5.2.8.1 1-.1 1.4-1v.1q0 .3-.3.5m-2.8-6 .3.3zm-2.6-1.6h-.2zm-8.7 6.7"/><path fill="#f5beb1" d="m134.6 143.4.2.4.3.5h.1l.3.2.3.1h.1v-.2q.2 0 .1-.1l.4-.3h.1v-.1h.2v-.1h.4v-.1h.2v.1l.2-.1h1v.1h.4l.1.1h.6v-.1h.3v-.2h.2l.1-.1h.1v-.1l.1-.1.2-.2v-.1h.1v-.2h.1v-.3h.1v-.1h.2-.1l-.1-.1v-.6h.1-.1q.1-.1 0-.1h.1v-.1h-.1v-.1q0-.2 0 0v-.1h.1-.1q0-.2 0 0v-.2h-.1l.1-.1-.2-.2v-.2l-.1-.1v-.1h.1l.2.2h-.1.1l.2.2v.1l.1.2.2.4v1.5h-.1v.1l-.1.1-.1.2-.2.3-.2.2-.3.2-.6.2h-1.2v-.1l-.1-.1h-1.3q-.4 0-.7.3v.1h-.1v.1l-.1.5h-.2v-.1h-.4l-.2-.1-.2-.2-.4-.4-.1-.2zq0-.1 0 0m3.4.3q-.1 0 0 0-.1 0 0 0m14.5-1.3c0-.1 0 .2 0 0"/><path fill="#f5beb1" d="M121.6 134.7a3 3 0 0 0-1.7 1.1l-.1.1-.5 1-.2 1.3v.4l.1.4v.1l.3 1 .6 1.7h-.1l.2.3.2.5v.3q.3.2.2.3l.1.3.2.3q0-.1-.1 0l1.1 2v.2l.3.3.2.3v.1l.3.1h-.1l.4.3.2.1.5.4.6.3.1.2s.4.2.3 0l.5.4v.1l.2.2.6.2h.3v.2h.2l.3.2q-.1 0 0 0l.2.1q.2.1.2 0h-.1l.4.2h-.1l.6.2h-.1l.7.4h.2l.2.1.8.4h.3l.2.1c.1 0-.6-.1-.4 0h.2l.4.1h.4l.3.2h.1l.4.1.5.2h.4-.1.2l.3.2h.7l-.1.1h.9l1 .1h.2-.1 1.7-.2l.2-.1h.4q.2 0 0 0h.4l.3-.1h.3l.3-.1h.5l.1-.1.8-.2 1.2-.2q-.1 0 0 0l.6-.1.3-.1h.1l.2-.1.5-.1h.1q.2 0 0 0h.5q.7-.4 1.4-.5.1 0 0 0l.4-.1.2-.1c.2 0-.2.2 0 .2s-.2 0 0 0q.3-.1.1-.1.1-.2.3-.2h-.1.3v-.1h.1q.1 0 0 0l.3-.2h.2l.3-.2h.2l.2-.2h.2-.3l.3-.1.1-.1.3-.1h-.1.2v-.2h.2l-.1.1h.2v-.2h.1v-.1l.4-.1-.1.1h.1l.2-.1v-.3l.4-.2h-.1l.2-.2v.1l-.1.1h.1l.2-.2h-.1l.2-.2h-.2.1l.2-.3h.1l-.2.2q.2 0 .3-.2h-.1l.2-.2.3-.4q0-.1 0 0l-.2.4-.1.2q0-.2.2 0v-.2l.2-.5.5-.5v-.2q0 .2-.1 0l.1-.1q0 .1 0 0h.2l.2-.5.1-.4.1-.4.2-.1v-.5l.1-.4v-.8l.1.3v.3-.2.2-.1.6l-.1.5v-.3.6l-.1.3-.4.8-.1.2-.2.3q-.2.5-.5.7l-1 1.2h-.1l-.2.2-.6.5-.7.4h-.2q0 .2-.3.4l-.6.2-1.8.7-1.9.6v-.1l-.3.1-.5.1-.3.1-.8.2h-.3l-1.2.3-1 .2-1.6.1-2.4.2-.9-.1h-.2l-.9-.2-.8-.1-.3-.1-2.1-.6-.4-.2-.4-.2-.7-.3-.7-.3-4-2.3-1-.7-.5-.3h-.1v-.1l-.2-.1-.2-.3-1.1-2-.3-.7-.2-.3-.6-1.6q0 .2 0 0t-.1-.1l-.6-2.2q-.3-1.1-.1-2.2l.3-1.3q.5-.7 1.2-1.2t1.7-.4l-.1.1q-.2.3-.5.3m31 8q0 .1 0 0m-1.4 4 .1-.3zm-8 1.4q0-.2 0 0"/><path fill="#f5beb1" d="m123.7 145 .6.6.3.4.4.4.1.1.1.1h.1l.4.3.3.2.4.2h.1l.2.1h.1l.2.2h.2v.1l1 .3h.2v.1h.5v.1h1.1v.1h.1l.2-.1h.5l.1-.1h.1l.2-.1h.4v-.1q.2 0 0 0h.5v-.1h.2-.2.8l.3.1h.2v.1l.1.2.1-.1.2.1.1.2v-.1h.2l.4.3h.2v.1h.2v.1h.5l.1-.1h.2l.1-.1h.1l.4-.2.4-.2.3-.1v-.1h.1v-.1l.2-.1.3-.1q.1-.3.5-.4h.2v-.2.1h.1v.2q.2 0 0-.1l.2-.1h.1v-.1l.1-.1v.1-.1h.5l.2-.1h.6v.1l.1-.2.2.1h.1v.1h.2v-.2h.1v.1h.4-.2v.2l.3-.1h.3v-.1h.1v.1h.6v.2h.3l.2.2h.2v.2l-.2-.2v.1h-.2l-.2-.1.1-.1h-1l-.4-.1h-.8l-.3.1h-.6l-.3.1-.7.3-.7.4v.1h-.3l-.1.2-.3.2h-.1l-.5.3-.4.2h-.7q-.6.1-1.1-.2l-.4-.1v-.1l-.4-.2-.3-.2q-.5-.3-.9-.1h-.6q-.2 0-.3.2l-2 .1q-1.2 0-2-.5l-.4-.1h-.1l-.7-.4-1.6-1.2-.4-.3-.8-1.2zm6.3-9.8c.1 0-.2 0 0 0m11-20.2v-.3l-.2-.2-.3-.4-.8-.6-.1-.2-2.2-1h-.8v-.2h-1.2.1l-1.8-.3h-1.1v-.1h-1c-.1 0 .2 0 0-.1h-2.9l-.3.1-.4.1h-.5l-.2.1-.6.2-.6.2h-.2l-.2.1-.6.3v-.1h-.1l-.3.1-.4.3-.3.2-.1.2-.3.1-.2.2-.1.1-.3.2-.4.4h.1l-.3.2-.3.3-.1.2-.1.1-.5.7-.1.3-.2.1c0 .2.3-.4.2-.3l-.1.2-.2.4-.2.1v.2q0 .2-.2.2v.2l-.2.3-.2.4-.2.4v.1l-.3.3-.2.6v-.1l-.1.4-.1.2v.2l-.5 1q0 .2 0 0l-.2.6v.2q-.1.2-.1 0l-.1.3v.3-.1l-.1.2v-.2.6-.1l-.1.2v.5l-.1.3v.5l-.1.2v.5l.1.4.2 1v.2l.1-.1.2.6.1.3.1.2.3.4v.1l.2.5.9 1v.2l.2.3v-.1l.2.2v.1c0 .1-.2-.2-.2 0q.2.2.2 0l.3.3-.1-.1.2.2q.1.1 0 .2h.2l.1.1v.1q.1.1.2 0v.1l.1.2.1.2.3.2h.1l-.1-.1.2.1.1.2.2.2h-.1.2l.2.1h-.2l.2.2q.1 0 0 0h.2l.3.3h-.2v.1l.2.1h.2c.2.1 0 .2.3.3v-.1l.2.1q0 .1 0 0h-.2l.1.1h.3-.1l.3.2-.1-.2h.1v.1l.2.1v.1h-.2.3-.1l.2.2h.1l.4.1s.3.1 0 .1l-.4-.2h-.2q.2 0 .1.2h.6v.1l.7.3c-.2-.1.2 0 .2 0l-.2-.1h.3l-.1.2h.1l.5.1.8.1.2.1h.5-.1v.1h.5-.1l.6-.1h.3-.2l-.1.1h-.3.2-.2.1-.6l-.5.1h.3l-.3-.1h-.6l-1-.2h.1l-.6-.2-.5-.2-.3-.1-1.4-.8-.3-.2-.6-.4-.6-.6-.1-.1-.4-.2-.4-.5-1.3-1.4-1.1-1.6-.1-.3-.2-.5q-.2 0-.2-.3l-.3-.7-.1-.3-.2-.6v-.6l-.1-.5v-.6l.2-1.4.7-2.3.4-.7v-.2l.4-.8v.1l.3-.8v.1q0-.2.2-.3l1-1.9.2-.3.3-.3v-.1l.4-.5.3-.3.2-.4 1-.8.9-.7a10 10 0 0 1 4.4-1.4h4.3l.9.1q-.2 0 0 0h.1a18 18 0 0 1 5.5 1.4q.8.5 1.3 1.1t.8 1.5v-.1q-.3 0-.5-.3m-11.3 20.3q-.2 0 0 0m-4.3-.7.3.1zm-2.8-1.8q0-.1 0 0m41.7 1"/><path fill="#f5beb1" d="m145.4 129.6-1.1-2v-.1L143 125l-.2-.5-.2-.3v-.1l-.5-1-.8-1.8h.1l-.2-.4-.2-.5-.1-.3-.2-.4v-.3l-.2-.4q0 .2 0 0l-.1-1.2q0-.8.4-1.2l.2-.2.2-.3.3-.4v.1l.3-.4.3-.3.2-.2.6-.4.6-.4.2-.1.2-.1.7-.4v.1h.1l.3-.1.5-.3h.2l.2-.2h.7q-.2 0 0 0l.2-.1q.3 0 .2-.1h.4l.6-.2h1.3l.4.1.6.1h.3l.2.1h-.4.2l.4.1.3.1h.2l.3.2h-.1.2l.4.2q.4 0 .5.3l.4.1.2.1.2.2h.2l.5.3q-.2 0 0 0l.4.2h.2l.2.2 1 .5q.2.1 0 .1l.6.2v.1h.2l.1.2h.3v.2h.2l.2.1-.2-.1h.2l.2.2h.2v.1h.3-.2l.2.2h.3l.2.2.3.2.3.1.1.2h.2l.7.5h.1q.6.4.8.9l.1.1v-.1l.4.6.2.3v.1l.1.2.2.5v.1l.1.5.5 1.4v.1l.1.4v-.1l.1.3c0 .2-.1-.2-.2 0 0 .1 0-.2 0 0q0 .2.1 0l.2.4v-.1.3h.1v.1q0 .1 0 0l.2.3h-.1v.1q0 .1 0 0 .1.3 0 .4h.1v.4l.1.1v-.2l.1.2v.2l.1.3v-.1.2h.1v.2-.1.2q0 .1 0 0v.6-.1.3c0-.2.1.1.1 0v.5-.1q.2 0 .2.2 0 .1-.1 0v-.1.5-.1h.1v.4-.2.5l.1.4v.2-.5l-.1-.2v.4-.1l.1.5v.6c0-.2 0 .2.1.1v-.1.2q0-.2 0 0v3.1-.5.1l-.1-.1v-.9.2-.7l-.1-.8v-.6l-.1-.8-.3-1.4h.1v-.3l-.2-.7-.2-.7v-.2l-.1-.4-.2-.5-.5-1.8-.6-2 .1.1q0-.3-.2-.3l-.1-.5-.2-.3-.5-.7q.2 0 0 0-.1-.3-.2-.2l-.8-.9h-.1l-.8-.5h-.2l-1.3-.9-2.4-1.2q-.3-.3-.8-.4l-.1-.1-.9-.4h.1l-.8-.5h.1l-.3-.1q-1-.6-2.2-.8c-.5-.2 0-.2-.4-.2l-.4-.1h-.7v-.1h-1a9 9 0 0 0-6.5 3.2q-1 .8-.8 2v.8l.2.3.7 1.7v.2l1.9 4.5.6 1.2 1.5 3.2-.4-.5m19.1 4q0-.1 0 0m.1-4v.2zm-1.3.4"/><path fill="#f5beb1" d="m141.8 118.6.9-.9.5-.4.3-.2h.8v.1q.4 0 .6.3l1 .1v.1h.5l.2-.1h.6l1.3-.1h.6v.1h.2l.3.2q.3 0 .4.3l.3.3v.1l.1.1.2.3h-.1v.3q.2 0 .2.2l.2.2v.3h.2l.1.1.1.1.3.2h-.1l.4.1h.2l.5.2h.3-.2.8v.1h.3l.3.1h.3-.1.1l.2.1.3.1.2.1h.2l.6.3h.1l.3.1v.1h.1v.1h.2v.1h.3l.1.1.2.1.1.1.2.1h.1l.1.1.1.2h.1l.4.2.5.4v.1l.3.2.1.1.2.1.2.2.2.3q.4.1.6.5 0 .2.2.2.1.1-.1.1v.1l.3.1h-.1.2v.1l.2.1v.1l.1.2.2.2v-.1l.1.1v.1l.1.1h.1v.1q0 .1 0 0v.2h.2v.1h-.1v.1h.2l.1.2.1.1v.1h.1l.1.2v.2l.2.1v.1l-.1-.2h-.1v.1l.2.2.2.3h.1l-.1.1v.1l.2.2.2.4v.1l.1.1v.3l.2.2v.1h-.2l.1-.1v-.1h-.1l-.2-.2v-.2l-.1-.1-.1-.2-.2-.3-.2-.3-.2-.4-.4-.6-.1-.1-.3-.3-.2-.4-.2-.2-.2-.2-.6-.8-.8-.7h.1q0-.2-.2-.1l-.2-.2-.1-.1-.4-.3v-.2q-.4-.1-.6-.4-.3 0-.4-.3h-.1l-.7-.5-1.2-.6-.4-.1h-.1q-.2 0-.5-.3l-.4-.1h-.2l-1.2-.3h-.4l-.4-.1-.6-.1-.6-.5-.4-.6-.6-1.2q-.3-.5-.9-.5h-3.7l-.3-.2-.3-.2-.5-.2h-.4q-.3.1-.5.4l-1.5 1.2q-.1.1 0-.2m20.6 9.2h.2zm-40.2 24.3-1-.3-.1-.1-.6-.3q-.3 0-.6-.4h-.3l-.1-.2h-.1q-.3 0-.5-.3l-.9-.6h-.1q0-.2-.3-.3h-.1v-.1l-.2-.1v-.2h-.2l-1-1v-.1l-.2-.1-.1-.2-.2-.2-.1-.1-.1-.1-.3-.3-.2-.3v-.1l-.2-.1-.3-.3h.1l-.1-.2-.3-.2-.1-.2-.2-.3v-.1q0-.1-.1 0l-.1-.2-.2-.3-.1-.4v-.3l.1-.2.3-.2v-.2h.2-.1v.1l.2-.2v-.4h.1v-1h-.1v-.4l-.1-.2v-.1l-.1-.2v-.6l-.1-.3v-.6.1-1.2l.2-.1-.1-.2.1-.4q0-.4.2-.6 0-.1 0 0l.1-.4.1-.2v-.1l.1-.3q.2 0 0 0l.2-.3.4-.8.1-.2v-.1h.1l.1.1v-.3h.2v-.4h.2l.1-.2.2-.2v-.1l.1-.1.2-.1v-.1h.1v-.1l.1-.2h.4q-.1-.1 0-.2l.1-.1v-.1h.2v-.2l.2-.1v.1h.1l.1-.1.2-.2h.1l-.2.2h.1l.2-.2.4-.2v-.1h.2l.2-.1.5-.2h.7-.1.5-.9.2-.2v.1h-.3l-.4.3-.4.2-.4.2-.7.6v-.1l-.2.2-.1.1-.2.2-.3.3-.2.3-.2.2-.3.4-.3.5-.5 1-.1.2-.1.2v.2l-.2.4v.2l-.2.6v.5h-.1l-.1.9v1.9l.2.4v1.3q0 .4-.3.7h-.1l-.1.1-.2.1-.2.3v.1l.2.2 1.4 2.1 1.8 2 .3.2.2.2.7.6 2.2 1.3.6.3q.7.6 1.6.8.1.3-.3.2m-4.1-19.9h.2zm-1.2.9h-.2zM138 111l.3-.6.3-.5h.1q.4-.6 1-1.1l.3-.2.1-.1h.1l.5-.4 1-.6.1-.1.3-.2h.2l.2-.2h.2l.2-.1 1.4-.2h1.1l.1-.1h1l.1-.1h.4v.1h.3l.3-.1.2-.1h.5l.1-.1h.2l.3-.2h.7l.6-.1.1-.1h.2-.2.8v.1h1-.1.3l.4.1.2.1h.3l.4.2.2.1h.1l.3.1.2.1v.1h.1l.1.1.2.1-.1-.1h.1l.1.1.1.1h.2-.1v.1h.1l.2.1v.1l.3.1q0 .3.2.2l.4.3.6.5.3.3.1.1.2.1.2.2.2.3q.4.2.6.7 0 .3.2.2v.1q0 .1-.1 0v.1q0 .1.1 0l.2.2v.1h.2l.2.2h-.1q0 .1.1 0v.1l.1.2.2.2h.1l.1.2.1.1h.1v.2q.1.2.1 0v.2h.1v.4q.1-.1.2 0l.1.2h.1q0 .2 0 0h-.1v.1l.1.1h.1l.2.2h-.2.2v.2l.2.2v.1l-.2-.2v-.1l-.1.1v.1h.1l.2.2.2.4h.1v.2l.2.3.3.4v.1l.1.2q0 .1 0 0l.1.3.2.2v.2l-.1-.1v-.2h-.2v-.1l-.1-.1-.2-.3.2.1-.1-.1-.2-.1-.1-.2-.3-.5-.2-.3-.3-.5-.6-.7h.1v-.1h-.2l-.3-.4-.3-.5-.3-.3-.2-.3-.7-.9-.8-.8v-.2l-.3-.2-.2-.1-.3-.4q0-.2-.1 0l-.5-.5-.5-.4q-.3 0-.4-.3l-1.6-.9-.5-.1v-.1l-.6-.1-.5-.2h-2.3q-.3 0-.5.2l-1.4.2-1.5.2q-1.4 0-2.7.2h-.5l-.2.2-.9.3h-.1v.1l-1.2.7-1 .8-.3.2-.2.3q-.8.7-1.1 1.6zm23 3.1.2.2zm-1.1-1.7q0-.1 0 0m-8.8 19.3c0 .2 0-.2.1.1zm.4-4.2q.5.3.8 1l.4 1.4v.1l.2.7.3.7.4.8.3.6q0 .3.3.5l.2.3v.2h.2l.7 1q.7.7 1.3 1.7l.3.3.2.5.2.3.2.4.1.3.2.4s-.1-.3-.1-.1q.3 1.3 1 2.5v.2l.3.3.3.3.3.3.4.2.2.2q.4.1.6.4l.6.6v.2l.2.3.3.7q0 .1-.1 0v.2-.1.4l.4.6v.2h.2v.1l.1.1h.1l.2.2.1.2h.3q.2.2.2 0h.4l.7-.1h-.1l.9-.4.2-.2.2-.2.2-.4.4-.6v-.3l.1-.2v.4-.3l.1-.5q0 .1 0 0v-.8h.1v-.3l-.1-.3v-.7l-.2-.5v.1-.6l-.1-.1-.2-.6q0 .2 0 0v-.5l-.1.1v-.3l-.2-.2-.2-1.1-.1-.1v.1-.2l-.2-.5-.1-.2v-.5l-.1-.1-.1-.2v.2-.2l-.1-.2-.1-.1v-.1l-.1-.2v-.1l-.2-.2v-.3l-.2-.2-.2-.2v-.2h-.2l-.4-.6h-.1l-.8-.7-.5-.4-.2-.2h-.1l-.2-.1-.4-.3q-.1-.2-.1 0l-.3-.4q-.7-.3-1.3-1h-.2v-.1l-.3-.2h.1l-.2-.1-.1-.1c0-.2.3.1.3 0h-.1q.1-.1 0-.1t-.1 0l-.4-.2h.1l-.3-.2h-.2q-.2-.1 0 0l-.4-.2c0-.1.3 0 0-.1.1 0-.2-.2 0 0q-.2-.1 0-.1l-.4-.2-.1-.2-.3-.2-.2-.1q.3 0 .2.2l-.2-.2-.2-.2h-.1l-.2-.2h.2-.4l-.1-.2h.1l-.2-.1q-.3-.2-.1 0l-.1-.1q-.1-.2-.2 0l-.3-.4h.2l-.2-.2c.1.2-.3 0-.3 0-.3-.1 0-.2-.4-.3q-.1 0 0 0l-.3-.1c.2 0-.2-.2.1 0h.1l-.1-.1-.3-.1h.1-.4.2-.2l-.3-.1-.1-.1s.4.2.4 0h-.4l-.3-.2q-.1 0 0 0h-.7.9l-.3-.1h-.8q-.5 0-.8.2v.1l-.1.1h.2l-.2.1v-.1l-.2.2v1.9c.1.2 0-.2.1.1l.1.5v.6-.1l.2.8v.4l-.1-.5c0-.1 0 .2 0 0v-.3.2-.2.1l-.2-.4v-.4l-.1-.6.1.3v-.3l-.2-.3v-.5q-.2-.7 0-1.2l.1-.4.4-.4 1-.2q1.3 0 2.1.7h-.1.2l.3.2.8.5.8.6.2.2.5.3.5.5 1.9 1.3 1.7 1.3q.1.3.2.2l.5.4.3.2.6.5.2.1.8.8h.1l.6.6v.1l.7 1.3.8 2.4q0 .5.3.9v.2l.3 1v-.1l.3 1v-.1.4l.2 1.3q0 .8-.2 1.5l-.1.3v.2h-.1l-.2.5v.1l-.6.7-1 .7q-.8.4-1.5.1l-.8-.3-.5-.6-.4-1.4q-.2-.7-.6-1.1l-2-1.6-.8-1-.4-1.4-.2-.9-.2-.3-1-1.6h.1v-.1q-.2-.2-.2 0l-3-4.5-.3-.7-.1-.4-.2-.4-.5-2-.5-.9-.8-.5h.2zm-.6-.5"/><path fill="#f5beb1" d="m151.7 126.3-.3.2.1-.1zm1 .1q.2 0 0 0m.1 0h.2zm2 1.1h.2zm-10.7 28q.3.2 1 .3l1.3.3h3.1l1.2-.1h.6l.3-.1.4-.1.3-.1h.2l.4-.1v.1h.2q0-.2.2-.2l.1-.1h.4l.1-.2h.1l.3-.2h.3v-.1h.2l.4-.3h.2-.2.1l.2-.1.1-.1.1-.1h.1l.1-.2.2-.1.2-.2v.1l.2-.1v-.1l.2-.2h.1v-.1l.1-.2q.1-.2.4-.3 0-.2 0 0l.1-.3v-.1h.2v-.1h.1v-.2h.1v-.1h.1v-.1h.1v-.2h.2l.1-.2h.2v-.2l.3-.2.4-.4v.1h.1l.1-.3h.1v-.2l.1-.2.1-.2-.1-.6h-.1q0-.2-.2-.2l.1-.2h.1l.1.1v-.3h.2q-.2 0 0-.1v-.2l.2-.2.1-.1v-.3h.2v-.2h.1v-.2l.2-.1v-.2l.1-.1v-.1h.1v-.3h.1v-.3h.1v.2h.1v-.3l.2-.3v-.1h-.2l.1-.1h.1v-.3q.2 0 .2-.3v-.3h.1v-.4l.1-.2v.8-.2.4l-.1.4v.3l-.2.4-.3.7v.1l-.2.4-.2.3-.1.3-.2.2-.2.4v.1h-.2v.2l.1.1.1.3v.7l-.1.2v.2l-.3.4h-.1l-.5.5-.3.3-.6.5-.7.9-.2.3h-.1l-.3.4-.3.2h-.1l-.9.7h-.2v.1h-.2v.1l-.3.1-.3.3-2.3.7-2.3.2h-1.5v.1l-2.4-.2h-.7l-1.7-.7zm17-9.3v-.2zm-3-6.8"/><path fill="#f5beb1" d="m137.6 153.4 1.2.3.1.1 1.5.3h.4l.1.1h1.7l.2-.1h.9l.2-.1 1.3-.2h.1l.2-.1h.3l.2-.1.2-.1h.2q0-.2.3-.2l.4-.2h.1l.1-.1.3-.1h.1v.1h.2q0-.2.2-.3h.2v-.1h.3l.1-.2.3-.1.2-.2.4-.1h.1l.1-.2.4-.2.1-.1h.2c0-.1-.3.2-.2 0l.3-.1.1-.1.2-.1v-.1h.1l.1-.1.3-.1.2-.2h.3v-.1l.3-.2h.2v-.1l.1-.1.5-.3.2-.2v-.1h.2v-.6h.1v-.2.1l.1-.1v-.5l.1-.1.1-.1v-.1l.2-.4.3-.6h.1l.2-.3v-.1l.1-.2.2-.2.2-.2.5-.7.2-.2v-.1l.1.1v-.3h.2v-.3h.1q0-.2 0 0l.1-.2.2-.2v-.2l.1-.1v-.2h.1v-.2h.2v-.6h.1v.2-.9.2l.1.2.1-.2-.1-.3v-.5h.1v-.4l.2-.4h.1l.1-.3h.1l.1-.2v-.2h.1v-.1.5l-.2.3v-.2.3h-.1v.1l-.2.4v.8l-.1.9v-.1.2l-.1.2v.2l-.1.2-.2.2-.1.3-.2.3-.6 1-.6.8-.2.1-.2.3v.1l-.3.4q-.1.1 0 .1l-.4.6-.1.2v.2h-.1l-.1.4-.2.4-.1.7-.6.6-.4.2-.5.3-.4.2h-.1v.1l-1 .6-.3.1-.2.1-.3.2-.4.3-2.4 1.1q-1.3.5-2.6.7h-.6l-1 .2q-1.5 0-2.8-.2l-.8-.1-1.9-.8zm19.5-11.5-.1-.2zm72.1-38.2q-.5 1.4-1.2 2.6l-.1.2-.6 1.4-.9 1.4v-.1l-.2.6-.2.4h-.1v.2q-.2.6-.6 1.1l-1 2-.1-.1-.2.5-.3.4-.2.4q0 .2-.3.3 0 .2-.2.3l-.2.4q.1-.1 0-.2L221 118l-.3.4v.1l-.2.3-.3.4-.2.4-.2.2-.4.7-.4.7-.1.1-.1.4-.4.6v-.1h-.1l-.2.4-.2.6-.1.4-.1.2-.2.5v-.1l-.2.4v.2l-.1.4v-.1l-.2.8v-.2l-.4 1v.2l-.1.3v-.1l-.5 1.1v.3l-.2.2.2-.4-.1.3-.2.5q0-.1 0 0l-.2.2v.2s-.1.4-.2.3v.3l-.2.4-.4.5q0 .3-.3.5l-.1.2-.3.3v.1l-.5.6q.1-.1 0-.1l-.3.5-.2.2-.2.3-1 .8-.2.1h.1-.1c-.3.1-.2.3-.6.5h-.1l-.1.2h-.2l-.3.2h-.1l-.1.2h-.2.2l-.2.1-.3.2-.2.1h.1-.2l-.1.2v-.1h-.1v.1l-.3.3-.3.1-.3.2-.2.2-.3.1q-.2.2 0 .2l-.8.6v.1l-1.2.9q-.2 0-.1.1h.1l-.7.5-.3.3h-.1l-.2.2-.5.4h-.2v.2l-.6.3-1.7 1.2h-.2l-.4.3h.1l-.3.2h-.2c-.2 0 .3-.3.1-.3l-.1.1c-.2 0 .3-.2 0 0q-.3.1-.1.1c-.3.2 0 .2-.4.4l.2-.2-.4.2v.1h-.2q-.2.1 0 .1l-.4.3q.1-.2 0-.2-.2 0-.2.3v-.1l-.4.2h-.3q-.1.3-.4.2-.2 0-.2.2l.4-.1-.4.1-.3.2c-.3 0-.1-.2-.4 0l.2-.2-.2.1-.2.2h-.2.2-.3l-.1.1h-.2l-.1.1h-.5.2-.1q.2 0 0-.1h-.3c.3.1-.2.3-.2.4-.3 0-.2-.2-.6 0q0 .1.1 0-.1.2-.4.2c.3 0-.1 0 .1-.1h.2q0-.2-.2-.1l-.3.1h.1q-.3 0-.4.2h.2l-.2.1-.3.1h-.2c.1-.1.5-.1.4-.2l-.4.2.1-.1h-.4v.1l-.7.2c.1-.1-.3 0 0 0l.6-.2.3-.1-.2-.1h-.2v.1l-.7.2h.1-1c.2.2-.3.2-.2.2q.3 0 .2.1h-.4c.3 0 .1 0 .2-.2h-.2l-.7.2h-1.7.1-.1v-.1h-1.2l.4-.2-.2.1h.4-.2.3-.2.7l.6-.1-.4.1h.7l.4-.1h1l.8-.2 1-.1 2-.6-.1.1h.2c-.2 0 .2 0 .3-.2l1-.3 1-.4h.2l.5-.3.8-.3 2.2-1.2 2.3-1.4q.4-.1.3-.2l.6-.4.3-.3.8-.7q0 .2 0 0l.3-.2 1.2-1v-.1q.7-.4 1-.8h.1v-.1l1.8-1.1q1.6-1 2.5-1.8l.7-.7q.1-.1.2 0l.7-1v.2l.6-1v.2l.2-.4 1-2.4c.4-.5.2 0 .4-.4l.2-.5v-.1l.3-.7.2-1q.5-1.6 1.2-2.8.2-.8.6-1.4l.7-1.2 3-4.6.6-.7.1-.3 1.1-1.7q0 .1 0 0v-.1h.1v-.2q1.6-2.2 2.7-4.8l.4-.6.3-.8q.7-1 1-1.9.4-.4.6-1l.5-1v.2zm-42 41.4-.1.2zm4.8.3h-.4zm3.3-.7.2-.1zm33.5-40.3v.3z"/><path fill="#f5beb1" d="M178.6 148.3q.4 0 .8-.3l.5-.1h.4q.3-.3.7-.3l.9-.2q1.4-.3 3-.3h1.4l.5.1.5.1h1.1c.1 0-.4 0-.2.1a15 15 0 0 0 4.2-1h.3l.7-.4h.1l.6-.3q-.2.1 0 .1l.7-.4v.1l.8-.4-.1.1c.4-.1 0-.1.5-.3l-.1.1 1.2-.6 1.2-.5c.2 0 0 .1.4 0 0-.1.7-.4.4-.4l1.2-.4c-.2.1.2 0-.1.2l.2-.1h-.1l.6-.2 1-.5q-.1 0 0 0l.6-.4h.2l.2-.1.7-.3s-.3.1 0 0l.5-.2.3-.2h-.1l.6-.3v.1l1-.6-.1.1 1.4-.7.4-.2.3-.2 1.5-.8.4-.4v.1h.2v-.1l.2-.1.5-.3q-.2 0 0 0l.4-.3.1-.1s.3-.2.1-.2l.5-.3.3-.2.4-.5.8-.8.5-.6-.1.1.2-.3.4-.5q.1-.2 0-.1l.6-1q-.1.4 0 .2t.3-.7l.2-.4.1-.4.6-1 .4-.7v-.3.3-.1l.1-.2c.3-.4.1-.4.4-1h.1l.1-.4q.3-.3.2-.1l.2-.5.2-.1q-.2 0 0-.3v.1l.2-.3-.2.3.2-.4.2-.4v-.2c.1 0 .2-.3.2-.1l-.1.2.2-.3v-.3.2l.2-.2.3-.6.2-.4q.2-.1.3-.5l.2-.4c.2-.1.2.2.3-.1q.2-.3 0-.4l.8-1v-.2l1.2-1.5v.1l.1-.2h-.1l.6-1 .3-.3v-.1h.1q0-.3.2-.4l.4-.7.2-.1v-.2l.5-.5 1.2-2.4.2-.2v.1l.3-.6-.1.1.2-.5v.2l.1-.3c.2 0-.2.7 0 .5l.1-.1c.1-.1-.2.5 0 0q.2-.4 0-.3c.2-.4 0-.3.3-.7l-.1.3.3-.6q-.2.2 0-.2c.1-.1 0 .3 0 0q.2-.3 0-.2l.3-.5c.1 0 0 .4.1.2 0 0 .2-.5 0-.4q.2-.1.1 0c.2 0 .2-.5.3-.4v-.2l.2-.1.2-.5.1-.3q0 .3-.2.3l.2-.5.2-.3v-.1c.2-.4.2 0 .3-.3v.2-.6c.2-.2.2 0 .2-.3v.3l.2-.3v-.3q.1-.2.1 0l.1-.4.4-.4-.1.3v-.1c0 .3.2 0 .1.1l.2-.3c-.2.1.1-.6 0-.6.2-.5.3 0 .4-.6q0-.2 0 0l.1-.5c0 .3.2-.2.1.2l-.1.3.1-.2.2-.4q0 .2 0 0t.2-.5q-.2.3-.2.1l.1-.2.2-.5.2-.1-.2.6.3-.6-.1.2.3-.4v-.2l.4-.8c0 .1.3-.5.1 0l-.4.8-.2.5q.2-.3.3-.2l.1-.2.4-1v.1l.2-.2v-.2l.1-.1v-.1l.4-.4.1.1v.3l-.2.3-.2.5-.4.6-.8 1.4-.7 1.3v-.2l-.1.2-.2.5-.7 1.4-.7 1.3-.2.2-.3.9-.6.9-1.7 3.1-1.8 3v-.1l-.3.5-.5.8-.3.6-.8 1c-.1.2-.5.6-.3.6-.4.4-.8 1.2-1.2 1.5v.2l-.8 1.2h-.1v.3l-1.4 2-2 3.9c0 .4-.5 1-.5 1.3l-.2.3-.8 1.5v-.1l-.9 1.5v-.2q-.1.4-.4.6-1.4 1.7-3.4 3.1l-.8.4-.7.4-1.2.6-1.5 1-2.1 1-2.2.8-4 1.7-2 .9-2 .8q-2 1-4.5 1.4l-1.5.1h-.6l-2.6-.2q.3 0 0 0h-.3l-1.6.2-3.4.6-3.6 1.2-2.6.8-2.6.8s0-.2.8-.5l1.5-.6 1.7-.5h.3a18 18 0 0 1 3.8-1.3zm31.5-10h-.2zm18.6-34.4c.1 0 .2-.3.2 0z"/><path fill="#f5beb1" d="M231.4 104.2q-.1.1 0-.1zm0 .2-.2.2q0-.2.2-.2m-1.7 2.9-.2.3s.1-.4.2-.3M215 132.9v-.2zm2.8-22.3c-.2 0 .1 0 0 0m27.5-68.8c-.3.8-1 1.5-1.2 2.5q0-.1-.1 0 0 .8-.4 1.7l-.3.9-.2.8v-.1V49h-.2l.1.3v1.5l.1 3-.1-.2.1.7V57c-.1 0 0-.4-.2-.2q0 1.8-.4 3l-.2.1v.4l-.2.1v.3l-.2.4V61l-.2.4v-.1h-.1v.5-.1l-.3 1.3-.3 1.3c0 .1 0-.2-.2.3.1 0 0 .7.1.6l-.1 1.1c0-.2-.2.1-.2-.2v.2-.2l-.1.8.1 1c0-.2-.1.2-.1 0l.1.7v1.2-.1.9-.1l.1.7v-.1l.2 1.2-.1-.2v1.5h.1v.7l.2 1.6.1.4v.4l-.1-.6s.1.4 0 .4v.7q0-.2 0 0v.4l.1.1s0 .4.1.2v.5h-.1l.1.3.1.6v1.5-.1.2l-.1.3h.1l-.1.7q0-.3-.1-.1-.2 0 0 .5l-.1.2v.3l-.3.7-.4.5v.1-.1q0 .4-.1 0c-.2.3 0 .5-.3.8h-.1v.3q-.2.2-.3 0l-.2.4h-.1v.3-.1l-.2.2.2-.2v.3l-.3.3v.2h-.2v-.1l-.1.2v.2-.1l-.2.1v.1l-.1.4-.3.3-.2.4-.1.3c-.2.2-.3 0-.3.3v.2l-.5 1.1v.1q-.3 1-.7 1.6h-.1q-.1.3 0 .2l.1-.1-.5 1v.1l-.2.4-.1.2-.1.3-.4.7-.1.2q0 .1 0 0l-.6.8q-.4 1.1-1.2 2.4l-.2.2h-.1q-.3.3-.3.5h.1l-.3.4-.2.1c-.2.2.2-.5 0-.3l-.2.1c-.2.2.2-.5-.1 0v.2c-.2.4.1.3-.2.7 0 0 .3-.4.1-.3l-.3.6q.2-.2 0 .1c-.2.2 0-.2-.2.1q0 .3.1.2l-.3.4c0 .1 0-.3-.2 0v.3c-.3.1-.3.5-.4.4v.1l-.2.2q-.2.5-.4.5s-.3.3-.1.3l.3-.4-.3.5-.2.3c-.3.4-.2 0-.4.4v-.3l-.1.3v.3q-.2 0-.2.2v-.2l-.3.3q-.2.2 0 .2-.1.1-.2 0v.3l-.5.4v-.3.1q-.1-.2-.2 0l-.2.2c.4-.1-.1.4 0 .5-.2.4-.4 0-.6.5q0 .2.2 0c-.2.1 0 .2-.4.4.2-.2-.2 0 0-.2l.2-.2-.3.1-.2.4.1-.1-.3.4q.2-.2.2 0l-.1.1-.4.4h-.1l.3-.4-.4.4v-.1l-.4.3-.6.7c0-.2-.3.3-.1 0l.6-.6c-.2 0 .3-.2.3-.4q-.3.2-.4 0 0 .2-.2.3h.2l-.7.7q-.1 0 0-.1l-1 .7c.2 0-.4.3-.2.3h.3-.1l-.4.2c.3-.3 0-.2 0-.3-.1.2 0-.1-.1 0l-.8.6-1.1.6h-.3c-.2 0 .2 0 0 .1q-.4 0-.7.3v-.1l-.6.2h.1l-.9.4v-.1h-.3l.2-.1.2-.1c.1 0-.2.1 0 .1l.3-.1h-.2l.2-.2h-.1l.4-.1.5-.2.7-.4q0 .3-.4.4l.4-.1q0-.3.3-.4.3 0 .5-.3l1.2-.6.9-.7 1-.7 2-1.9v.2l.2-.2q-.2 0 .1-.4.6-.4 1-1 .2-.6.9-1.1l.2-.2.4-.7.7-.9.9-1.4 1-1.6h.1l1.8-3q.5-.4.2-.5l.5-.8q.2-.2.2-.5l.6-1.2v.1q0 .2 0 0c.1-.2.4-.7.2-.5l.8-1.8.6-1.4.2-.1v-.2q.2-.6.6-1l.7-1 1.7-2.9.3-.4v-.4l.2-.2.1-.3v-.5l.2-.3v-2.4l-.3-1.8c0-1 .3-.1.1-.8v-.7l-.1-.1v-1.2q0-.7-.3-1.5c-.2-3-.2-6.5.5-9.5l.2-1.2.1-.5.2-.2.2-.5.3-.5.2-.6.1-.7.3-1.5c.2-.4.2-.4.2-1l-.1-.6v-2.5q0 .3.1 0v-.2l-.1-.2q-.1-3.5.5-6.8l.5-1.7.5-1 .6-.9 1.2-1.7v.3zM218 110.6q.1 0 0 .1zm6-2.5-.4.4z"/><path fill="#f5beb1" d="M225.2 107.4q.1 0 0 .1zm0-.2h.3zm2.4-2.2.2-.2zm17.2-62.9c-.1.4.2 0 0 .3z"/><path fill="#f5beb1" d="M201.3 118.1c.9-.5 2.6-.7 3.7-1.2h.4c1-.5 3-1 4.6-1.4q.4 0 .8-.3l.7-.2h.4v-.1l1-.4 1-.3 3.5-.7.8-.2.8-.2q.3 0 .5-.2h.4l.4-.1.5-.2.8-.4c.2 0-.5.2-.2.2q2.6-1.4 4.3-3.6l.4-.3.5-.7.1-.2.4-.6v.1l.6-1v.2l.6-1v.2c.4-.5 0-.2.3-.6l1-1.4 1-1.4.4-.4c-.1 0 .6-.8.3-.6l1-1.3c-.1.2.3-.1 0 .2l.3-.2-.2.2.7-.8.8-1.2c-.2.2.2 0 0 .1l.5-.8.3-.2v-.3c.1 0 .6-.6.8-.6q-.2.2 0 .1l.4-.6c.2-.1.5-.6.3-.4l-.1.2q0-.4.6-.8v.1l1-1.3-.2.3 1.3-1.6.3-.4.3-.4v.2l1.5-2.5v.1l.4-.5-.3.4-.2.4c.2-.1.3-.6.3-.5l.5-.8q0 .1 0 0l.3-.4v-.3q.2-.2 0-.2c.2 0 .3-.6.4-.5l.1-.4.2-.6.2-.7.2-.4v-.8l.1.1v-.4l.2-.6q0-.2-.2-.1v-1s.1.3.2 0l-.2-.7v.2q-.2-.4 0-.5 0-.3-.2-.4c0-.8-.2-2 0-2.5q0-.4-.2-.4v.4-.2q0-.5.1-.2c0-.6-.2-.6-.1-1.4v-.6c0-.5 0-.3.1-.3v-1.4.2-.5.4-1.6.3c.1-.2.2-.1.2-.5 0-.2-.2 0 0-.4v.3-1.3l.1-.6.2-.8v-.7c.2-.2.3.1.3-.3v-.6q0-.9.4-1.8v-.2c.2-.9.4-2 .8-2.4q0 .2 0 0v-.3.1q.1-1 .4-1.4v-.2l.2-.4.1-.1v-.4h.1l.2-1h.2v-.2q0-.7.2-.9v-3.2h.1v-.3q0-.2.1.1l-.1-.9v.2l-.1-.7.1.2v-.3c.1-.2.2.8.4.6v-.2c0-.1 0 .7.1.1l-.2-.4c0-.5-.3-.4-.3-1l.1.5v-.8q0 .2-.2-.2c0-.2.1.2.1-.2 0 0 0-.5-.1-.2l-.1-.6s.2.5.3.1c-.1 0-.1-.6-.3-.4q0-.3.2 0c0-.2-.2-.7 0-.6V49l-.1.5v-1.1c0-.5.2 0 .2-.4v.3-.3l-.1-.4v-.3l.1.3.2-.3q0-.5-.2-.3l.2-.1-.1-.3.3-.4v.3l.1-.1c0 .2 0-.1.2.1v-.4q-.1.1-.1-.2l-.1-.3c.1-.5.4 0 .3-.6q0-.1-.1 0l.1-.5c0 .3.2-.1.2.3l-.1.2.2-.2v-.3q0 .2 0 0l.1-.4q0 .2-.2 0V44h.1l.2-.4h.1l-.1.4q0-.3.2-.4v.1l.3-.3v-.1l.3-.5s.3-.3.2 0q-.3.1-.4.5l-.2.3q.3-.2.4 0v-.2l.3-.7q.2 0 0 .2l.2-.2.1-.1.1-.1v-.1q-.2-.2-.2 0h-.2.1v-.1h.2q-.2-.2 0-.2l-.7-.4q-.3-.3-.8-.4l-.2-.2h-.1s-.5-.1-.5.1v-.1h-.1V41q-.3-.1-.5.1h.1l-.8.5-.1.2h-.2l.1-.2.2-.3q.1.1 0 .2l.4-.3q-.2 0-.2.2l.2-.4-.2.1.4-.3v.1l.5-.2h.7l-.4.2h1.2q.7.3 1 .8l.3.3.4.5-.2.2-.2.3-.4.3-1.1 2v-.2l-.2.2q.2.1 0 .5l-.2 1.4q0 .7-.3 1.4V51l.2 4.2h-.1q.1 2.5-.4 4.4v-.3q-.3.7-.1.8c-.2.3-.2 1-.4 1l-.2.8-.6 1.7v-.2c0 .3-.4 1-.2.9-.3.6-.4 1.8-.7 2.5v.3l-.5 2s0-.3 0 0v.3l-.6 3.4v5.6c.1.5 0 1.4.2 1.8v.3l.2 1.6V82v.8l-.1.9v-.2.4q0 .2-.2.3 0 .2 0 0-.4 2.3-1.8 4.7c-.7 1-.2 0-.7.9l-.6.7v.2l-1 1.2-1.3 1.8-4 4.6-3.7 4.7q-1.5 2.3-3.2 4.5-1.5 2.5-4.2 4.3l-1.8 1-.7.4-.5.2h-.4l-.8.3h-.7l-.8.2q.4-.1 0-.1h-.1q-.3.1-.2.2a58 58 0 0 0-8.3 2.2q-1.2.3-2.2.8l-6.3 1.6c.1 0 0-.3.9-.6"/><path fill="#f5beb1" d="M245 41.8q.2-.2.2 0zm4 .7v-.1zm-2.1 3.1-.1.3zm-16.1 56h.2zm8-17.7v-.2zM222 95.2q-1-.5-2.3-.9h-.1l-2.8-1-.5-.2h-.4l-.1-.2h-.2l-1.1-.2-2.2-.6-.5-.2h-.5v-.1h-.4l-.1-.1-.4-.1h-.4l-.4-.1h.1a11 11 0 0 0-4 .2l-.3.2v-.1l-.6.2h.1l-.6.1-.3.1-1 .3h-1.2c0 .1-.6.1-.4.2h-1c.2 0-.2-.1.1-.1h-.2.1l-.6-.1h-1.3.1-.2l-.2-.1-.4-.1.6.2.2.1.3.1h-.1l.6.2h-.2q.5 0 .9.3h-.2l.3.2.4.1.7.4.4.2.3.2 1.5.8.4.1.3.3c.3 0-1-.5-.6-.3l.4.1.6.4q-.2 0 0 0l.4.2h.1l.2.1.4.3.3.1.5.3.8.4.6.3h-.1l.3.1.4.3h.2l.8.3s-.3-.1-.1 0l.7.2s.4 0 .3.1q.3.2.4 0l1.5.5h.2-.2.2l.8.1h.4q.3 0 .2.1h.9-.3l.3-.1h.7-.2.2l.2-.2-.1.1h.2l.4-.2h.3l.4-.2.3-.2h.2q.3-.1.2-.2l.8-.4 1.1-.8h.2-.2l.7-.4.3-.2h.1q0-.2.2-.2l.5-.3h.1q.2-.1 0-.1l.6-.2q.8-.3 1.8-.4h.6-.1.4c.2 0-.3 0-.1.2.2 0-.2 0 0 0h.2l.4-.1h-.2.5q-.1 0 0 0h.2s.3 0 0 0h.5s-.3 0 0 .1h1.5-.3l.4-.1h.7-.2.3l.2-.1h.3-.2.3q.4-.1.1-.1h.2c.3 0 0 0 .2-.1h.6-.2.1c-.2 0 .1 0 0 0h.4c-.4 0 .3-.3.2-.3l.7-.2h-.1l.4-.3c-.2.2.3 0 0 .2h-.2q0 .2.2 0l.4-.2q-.1.1-.2 0 .4 0 .6-.2h-.3.2c.4-.2 0-.1.4-.4h.3l-.5.3.6-.3-.2.1.6-.3.7-.7s.4-.3.2 0l-.8.5c.2 0-.3.2-.4.3l.5-.1.2-.2h-.1l.8-.7q.2 0 0 0l1-1 .2-.2-.3.2h.1l.3-.4c-.2.3 0 0 0 .1l.3-.2.6-1 .8-1.3.2-.3c.1-.3-.1.2 0-.2 0 0 .4-.7.3-.8v.1-.2h.1l.2-.7v.2l.1-1.2v-.6l.1.3v.3c0 .2 0-.2 0 0v.5-.3.3-.2.6q0-.2-.1 0v.6l-.4 1v-.5l-.1.5v.4h-.1q0 .3-.3.7l-1 1.5q-.3.6-.9 1-.7.9-1.3 1.2-1.2 1.2-2.7 1.7h.1-.3c.2 0-.2.2-.3.2l-1.4.5-1.3.3h-4.4q-1.3 0-2.2.4-.4 0-.3.2l-.6.2-.3.3-.9.5h.1q0-.1 0 0-.4.1-.3.2l-1.2.7v.1l-1 .6h-.1q-1 .5-2 .7-1.8.3-3.7-.2l-1.3-.3-.3-.1-1.3-.5-1.3-.6h.2q-.4 0-.5-.2-.1 0 0 0l-3.4-1.6c-.7-.5.1-.1-.6-.5l-.5-.3h-.2l-1-.6-1.4-.7-.2-.1-.4-.2-.4-.2q-.2 0-.5-.3l-1.6-.7q-1.2-.5-2.2-1.4l.5.2h.1l.2.1 1.3.5a13 13 0 0 0 5.5.5l3.1-.7q1.5-.5 3.2-.5l1 .2h.4l2.1.6h.3l5.3 1.6 1.4.4 3.6 1.7zm16.7-10.8v.2zM235 92l.3-.4zm-1.4 1q-.2 0 0 0m-.1.1-.3.2zm-3 1.4h-.3zm2.9-1.3"/><path fill="#f5beb1" d="M213.9 80.2h.4l.5.2v.1q.5.2.7.9l.2.1v.2l.1.1.3.4.6.6.1.1.2.1.1.1.1.2h.1l.2.1h-.1l1 .6h.3v.1h.2l.1.1.2.1h.1l.3.1.4.1v.1h.5v.2h.4v.1h.1l.2.1h.4v.1h.3q0 .2.3.2l.2.1.4.3.1.1h-.1.3v.2h.2v.1h.1l.1.1.2.2.1.2.1.2h.1l.2.2v.2-.2l.1.1.1.1.2.5.1.3v.5h.1v.4l.1.1v.5q0 .1.1 0l.1.4.3.5.2.3v.1h.2l.1.2q0 .1 0 0l.2.3q.3.1.5.4v.1h.2v.1l-.1.1v.1h.7l-.1.1h.1l.1.1q.3 0 .2.1h.4-.1v.1h.2v.1h.3v.2h.1l.2-.1.2.1h.1-.1v.1h.3v-.1h.2-.1.2v.1h.4q.2 0 0 0h-.3l-.2.1q.2 0 .1.1h1V93h.1v.2h.4l.5-.1h1.3l-.3.1h.1-.2.1-.5l-.4.1.3-.1h-.2l-.2.1h-1.8q-.6 0-1-.2h-.6V93l-.4-.1v-.1h-.4l-.2-.2-1-.4h.1l-.8-.8h.1-.2l-.1-.3-.1-.1-.2-.4-.1-.1-.3-.6-.1-.4-.1-.8-.3-1q0-.2-.2-.3v-.1l-.2-.4-.2-.3h-.1q-.3-.4-.8-.6l-.1-.2-.2-.1-.3-.2h-.4l-2-.8-2.2-.9q0-.2-.3-.2l-.2-.1-.7-.5q.1 0 0 0l-.7-1-.6-.9-.3-.3q-.6-.7-1.1-.4.2 0 .4-.3m16.6 13h.2zm-16.6-12.6"/><path fill="#f5beb1" d="m226.6 91.7-.8-.3-1-.3h-1.5l-.2.1h-.5l-.2.1h-1.2v-.1h-.4V91h-.6v-.2h-.4l.1-.1-.1-.1h-.3v-.1h-.1l-.2-.1h-.1l-.2-.1-.2-.1-.2-.2h-.1l-.3-.3v-.2c-.2 0 .1.2 0 .2v-.1l-.2-.1v-.2h-.2V89l-.1-.2-.1-.1v-.2h-.1v-.4h-.1q0-.2-.1-.1v-.4h-.1v-.1l-.1-.2v-.2h-.1l-.1-.1h-.1v-.1h-.1v-.2h-.2v-.2h-.1l-.2-.2q-.2 0-.3-.3l-.2-.2h-.2l-.2-.2v-.2q-.4 0-.5-.4l-.2-.1v-.1l.1-.1h-.2v-.1h-.1l-.2-.1h.1-.1v-.2q-.2-.2 0-.2h-.2v-.2h-.2v-.5h.1-.2v-.2h-.1q0-.2 0 0l.1-.1-.1-.1h-.1v-.3l-.1-.1v.1h.2l-.2-.2h.1v-.3h-.1v-1h.1V81h.1v-.1.2-.1 1.3l.1.3.2.6.2.3v.3l.2.2.1.2.5.5.5.6.2.2.3.3h.1l.3.4.4.2.3.5q.4.4.5.9l.1.3.1.4v.3h.1l.5.7v.1l.1.2.2.2.3.1q.7.6 1.5.8.7.3 1.6.3h1.1V91h1.9l.5.2 1.2.7q.3 0 0-.2M249.3 76h1q.7 0 1.3.3h.9l.9.2h.5v.1h.4l.2.1h-.1l1.1.3v.1h.4v.1h.2l.2.2h.4q0 .2.3.2h.2l.2.2v.2h.4-.1.2v.1h.1l.1.1q.2.1.2 0l.1.1.3.2h-.1l.3.2h.1l.3.3h.1c.1 0-.2 0 0 0l.1.1.1.1h.1v.1h.1l.2.1v.2h.3v.2h.3v.1h.3l.4.3V80q.2 0 0 0h.3l.1.2h.2v-.1h.9l.4-.1.5-.2h.4l.2-.1h.4l.7-.1h.2v.3-.1l.2-.1h.2q0-.2.2 0h.6v.1h.4v.3l.2-.1.1.1h.2-.1v.1h.4-.1.1v.2h.3v.1h-.3.3l.2.2h.2v-.1.2l.2.1.3.2v.1h.1q0 .2.2 0v.2l.1.1h.3v.1h.1-.5l-.2-.2h.1-.3l-.4-.3h-.3q0-.2-.3-.3l-.6-.3h-.1l-.3-.1-.3-.2h-.5l-.8-.1h-1.2l-.3.2h-.2l-.5.1-.4.1H261v-.1l-.4-.1-.4-.2-.3-.2v-.1l-.8-.4-.1-.2v-.1h-.2l-.1-.2-.4-.1-.8-.5-.8-.5-2-.7-.3-.1h-.2l-.8-.2-2.2-.4-.6-.1q-.7-.2-1.6-.2-.2 0 .1-.2m19.1 4.9h.2zm1.8 1.6"/><path fill="#f5beb1" d="m248.2 76.3.8.8v.1q.5.4.8 1.2l.1.2.1.1v.2h.1l.4.4.7 1h.1l.2.3.1.1v.1l.1.2h.2l.1.2.4.5.5.5v.1l.3.1v.1l.1.1.2.2.2.2h.1l.3.3.3.2.1.1h.2l.3.2h-.1v.2h.5v.2h.4l.2.1h.5v.1l.4.1h.7l.1.1h-.2 1.2l.2-.1h.3l.3-.1h.2v-.1l.1-.1.5-.2.2-.2h.1v-.1h.3v-.1h.1v-.2h.2v-.1h.1l.2-.1h.1l.2-.2h.2l.5-.1h1.1v.1h.4l.6-.3h.2l.1-.1h.1v.2q0-.2.2-.2v-.1h.1l.1-.1h.2v-.2h.2V82h.9v-.2h.3v-.1q.1 0 0 .1h.2v-.2h.2-.1.2-.1.2l.2-.1-.2.1-.1.1.1.1v-.1l.3-.1h.4v-.2.2h.8v.2h.5l.2.2.1.1h-.1l-.1-.1h-.5q0-.2.2-.2h-1.1l-.4.1-.7.3h-.1l-.3.2-.4.2-.3.1-.2.1-.9.5-.9.3v-.1h-.4l-.2.1h-.5l-.5-.1h-.4v.1q-.4 0-.6.3l-1 .7-.3.2h-.1l-.4.2-.4.1h-.2l-1.1.2c-.3-.1 0-.2-.2-.1h-.2l-.4-.1h-.5q-1.3-.4-2.5-1.2l-1-.8-1-1-.4-.5-.7-.9h-.1l-.5-.6-.3-.6-.4-.6-.4-.5q-.1-.4-.4-.6l-1.1-1.4zm19.8 5.2h.2zm-19.5-4.6"/><path fill="#f5beb1" d="m246.7 59.4-.2.9q0 .5-.4 1v.4h-.1v.5l-.2.7v.2l-.1.2v.1l-.1.2v.3h-.1l-.3.9v.2h-.1v.3l-.1.2v.4l-.2.2v.4h-.2v1.1l-.1.2v.5l-.1.1v-.1.6l-.1.2v.1l-.1.2v1.2h.1v.6l.1.2.2.3.1.2v.1h.1l.1.1q0 .1 0 0v.3q.3 0 .4.3 0 .2.1.1v.1h-.1v.1h.2v.1h.2v.2h.1v.2h.2v.1h.1v.1h.1v.2h.1v.3h.2v.2q.2 0 .1-.1h.1v.1h-.1v.1h.3v.2l.3.1v.1l-.2-.1h-.1v.1h.2v.1l.2.3h.1V75v.3l.2.2.2.3.2.2.1.2.2.1v.2-.1l-.1-.1h-.1l-.1-.1-.2-.2h.2-.4l-.3-.4-.2-.2-.2-.3-.5-.5h-.1q0-.3-.3-.3l-.1-.3-.2-.1-.2-.2-.5-.6-.4-.5v-.1l-.1-.2h-.1l-.1-.3-.2-.4-.1-.2-.1-.5-.1-.7v-.8l.1-.1v-.7l.2-.2v-.6l.4-1.8.6-2v-.2h.1v-.2l.2-.7.5-2 .1-.4.5-1.4zm-17.8 50.5-.3 1.8v2.8l.1.3v.1l.4.9q.3.7.9 1.4h-.1l.3.3.3.3.2.2.2.3.1.1.3.3q-.1-.2-.2 0 .3 0 .4.3l.2.4.2.3v.3l.1.2v.4l.1.3v.4l.1.2.2.7.3.7v.2s.2.4.2.2q0 .5.3.8h-.2v.1l.2.4.3.6q0-.1 0 0l.2.3v.2l.2.5q0-.2 0 0v.3l.2.1.2.3h-.1l.3.6-.1-.1.2.7v.2l.2.2.2.7v.4-.3.2l.1.4v.2l.1.1v.4l.1.3v.9l-.1.3v1.2l-.3.8v.2-.1q0 .1 0 0l-.1.5h-.1v.2q0 .2-.1 0v.3h-.2v.3l-.1.3-.1.1v.2h-.1l-.1.3-.2.2-.1.2-.2.2-.2.1v.2l-.5.5-.7.8v-.1.1l-.4.4-.2.2v.2h-.2l-.2.4q0 .1 0 0l-.4.4-.6 1.2h-.1l-.1.3v.2h-.1l-.2-.2v.1s0-.3 0 0v.5-.2l-.2.3q.2 0 0 0v.5l-.2-.1v.2l-.1.2-.1.2-.1.3v.1-.2.4h-.1v.1l-.1.2v-.2.4l-.2.1v.1l-.1.1v.2l-.2.2v-.2.1h-.1v.4c0 .2-.2 0-.2.3v.3-.2h-.2v.5-.1.3l-.1.1v-.3.3l-.2.2-.1.5q0 .2-.1.1l.2-.5v-.2l-.2.1v.7q-.2 0-.1-.1l-.3.7v.1q0-.1.1 0l-.1.1-.1-.1-.1.1-.2.4-.3.5h-.2v.1l-.2.2h-.3l-.3.1h-.1.3-.1v-.1h.1l.2-.1.2-.2v.1l.1-.2.1-.2.4-.6.2-.5.4-.8.5-1.4v-.3q.3-.3.3-.7t.3-.7l.1-.2.1-.4.3-.5.8-1.6 1-1.6v.1l.2-.3.3-.3.2-.3.5-.6q0 .2 0 0 .2-.1.1-.2l.7-.7v-.1l.6-.6.4-.6.4-.5q.4-.9.6-1.9l.2-.6v-.2l.1-.7v.1-.7h.1v-.2l-.2-1.8v-.6h-.1l-.1-.6-.4-.7-1.8-5q-.5-1.5-.5-2.3l-.1-.2v-.4l-.4-.6q0-.2-.3-.4l-.1-.2-1-1.1h-.1v-.1a7 7 0 0 1-1.4-4V112q.2-1.6.7-2.9zm-1.9 37.7v.3zm1.1-2.3v-.2zm-3.2 4.4"/><path fill="#f5beb1" d="M228.8 114.8q.5.6.6 1.4v.1q.3.9 0 1.8l.1.3v1l-.1 1.2v1.8q0-.2 0 0v2.2l-.1.1v.6l-.1.3v.2l-.2.5-.2.5h-.1v.3l-.4.4v-.1l-.2.2-.2.4h-.1l-.1.2h-.1v.1l-.3.2h-.2q-.1.2 0 .2l-.2.2-.4.3-.4.3-.2.1-.1.1-.5.5-.1.1-.2.1.2-.2-.1.2-.2.2-.2.1v.2h-.2l-.1.2-.1.2-.3.3-.2.4v-.1.1l-.2.2v.1l-.2.4v-.1l-.2.3h.1l-.1.2v.2l-.4.8v.1-.1q0 .2 0 0v.5h-.1v.2q0 .2-.1 0v.3h-.1v.3-.1 2.6h.1l.1 1 .2.5v.2h.1v.2l.2.4v.1l.1.4q.4.3.6 1h.1v.1l.1.2.2.2h-.1c0 .2-.2-.1-.2 0v.1c0 .1 0-.2 0 0q.1.2.2 0l.2.2v.2h.2q0 .1 0 0l.2.3h-.1q0 .2.2 0 0 .2-.1.1l.1.3.2.3.1.1v-.2.2l.2.1v.3l.1.1v.3h.1v.1l.1.4h-.1v.2c0-.2.2.1.2 0v.4h.1l.1.2h-.1v-.1.3-.1q0 .2.2.3v-.2.1l.1.3-.1-.2v.5l.1.4v.1l-.1-.4-.1-.2-.1.2v.1h.1l.1.4v.7l.1-.1v.2q0-.2-.2 0v.8h-.2v.3h-.1l-.2.1h.1l-.1.1h-.1v-.1l.2-.3v.1-.4l.1-.5v-1.1q0-.7-.3-1.3h.1l-.1-.2-.3-.6-.2-.6v-.1l-.2-.3-.2-.5-.9-1.3-.7-1.5v-.2q-.3-.2-.2-.4t-.2-.3q0-.4-.2-.7v.1-.3l-.2-1-.1-.8v-1.4l.4-2 .3-.7v-.2l.4-.6.3-.6.2-.2 1-1.4c.4-.2.2.1.4-.1l.2-.2.5-.4.5-.5q1.6-1 2.3-2.5t.5-3.3v-2.3l.3-3v-1q0-1.1-.9-2.1h.1zm-2.8 32.7.1.3zm-.1-.7v-.2zm-71.7 31.7c-.2 0 .1 0 0 0m37.1-30.6q0 .4-.3.7l-.6.6h-.1q-.3.4-.8.5l-1 .4-.4.1-.3.2h-.2q-.2.3-.8.5t-1.5 1l-.3.3-.3.4-.2.2h-.1l-.2.4-.2.2-.1.4v-.2l-1.2 2.6v.8l-.1-.1v.5l-.1.5v-.1 2.3q0 .4.2.7h-.2v.4l.3.6h-.1l.2.3v.7q0-.1 0 0l.1.3s.1.3.1.1l.1.4.2.6v1-.1 2l-.2.3.1-.5v.4q0 .3-.2.5l-.1.4v.3l-.2.3-.1.3-.2.5q-.2.6-.5.8l-.3.6v-.1l-.1.2-.4.4v.2l-.6.7q.2-.2 0-.2 0 .2-.4.6h.1l-.3.3-.2.2-1.2 1-.2.1.2-.1q-.3.2-.2 0c-.3.2-.2.4-.6.6h-.1v.1l-.2.1h-.2l-.3.2h-.1l-.2.1-.1.1h.2l-.2.1-.3.1-.1.2h-.1.1-.2l-.2.1h.1-.2l-.4.2h-.3l-.3.2-.3.1c-.2 0 0-.2-.3 0q-.2 0-.1.1l-.5.1h-.5v.1h-1.5l.1.1h-2.1v-.1h-.2l-.5-.2q-.7.1-1.6-.1h-.2v-.1h-.4.1-.3c-.2 0 .3 0 .1-.2h-.1s.3 0 0 0h-.1l-.4.2h.1-.5q-.2 0 0 .1l-.3.1q.1 0 0-.2l-.2.2h-.8q-.2 0-.2.2h.3-.3l-.2.1h-.3.1-.2v.1l-.2.1v-.1h-.2q-.1.1 0 .1h-.2q-.1 0 0 .1h-.5.1l-.1-.1h-.2c.2.1-.2.3-.1.4q-.3-.2-.5 0l.1.1-.2.2q-.2 0 0-.2l-.3.1h.1q-.2 0-.3.2h.2-.1l-.3.2h-.1l.3-.2-.4.2.1-.1h-.4v.2l-.4.2h-.2l.6-.3.2-.1h-.4l-.5.4v-.1l-.8.3c.2 0-.3 0-.1.1h.2l-.4.1c.3 0 0 0 0-.2h-.1l-.6.3-1 .2-.1-.1h-1.1.1-.9q.1-.1-.1-.1h.4-.1.3-.1 1.3l-.3.1h.2l.3-.2h.4l.5-.2.5-.1.6-.2 1-.4 1.6-.7h-.1.2q-.2 0 .2-.2.5 0 .8-.4l.8-.2h.2l.5-.3h.7l.5-.2h1.8l2.2.3v.1h.3l.6.1h1.4-.1 1q.4-.2.7-.1v-.1l1-.2h.2l1.7-.6 1.3-.8q.8-.4 1.3-.9l.9-.7.2-.2q.4-.3.8-1v.2l.8-1 .3-.4.7-1.5.4-1.5c.2-.6.2 0 .2-.5l.1-.5v-.9h.1l-.2-1-.5-2.6q-.3-1.2-.4-2.7 0-2.6 1-5l.6-.8.1-.3q.5-.8 1.2-1.4l.1-.1v-.1c1.3-1.1 2.8-1.4 4-2l.8-.4q.3 0 .5-.3.3 0 .5-.4t.5-1.2v.2q.4-.2.2.3m-32 30.2-.3.2zm1-.4h.2zm1.9-.7h.2zm20.1-18.9"/><path fill="#f5beb1" d="M167.7 158.9q.3.1.5.4l.7.6h.2l.1.1h.3l.4.2h.4l.4-.1h.2l.1-.1.2-.1h.2v-.1h.3l.1-.1v-.1h.5l.1-.2h.7l.1-.1h.1-.1 1.1v-.1h.8l.3-.1.1.1h2.4q.2 0 .2.2.2-.2.5 0h.2v.2l.2-.2v.1h.2v-.1.1h.3v-.1h.2v.1-.1h.4v.2-.3q0 .1.2 0v-.1.2h.1v-.2h.2q0 .2.1 0l.1-.1v.1l-.1.2h.1v-.2h.1l.3-.1v-.1h-.2.1l.1.1.2-.2.2-.1h.1l.1-.2v.1l.2-.1v-.2h.2v.1h-.1v.2q-.2 0-.2.2v-.2h-.1v.2l-.4.3-.1.1-.3.1q-.2.3-.5.3h-.1q-.3 0-.3.2h-1.5l-.7-.1h-.6v-.1h-1.4l-.8.1H173l-.2.1-1 .4-1 .3h-.6q-.7-.2-1.3-.6l-.4-.3-1-.8zm14.7-.5h-.2zm-.2 1"/><path fill="#f5beb1" d="m167.7 158.9.5.4.7.7.2.1v.1l.3.2.5.3.2.2h.2v.1h.2v.1l.6.4h.2v.1h.3v.1h1v-.1h.8v-.1h.5-.1.4v.1h1.7l.1.1h2.5l.5-.1h.2v.3q.2 0 0-.1l.2-.2v.1-.1h.2v-.1h.3v-.1h.2q.1 0 0-.1h.2l.1.1v-.3q0 .1 0 0v-.1h.1v.1-.2h.3v-.3.3h.2-.1v-.3l.2-.1v-.1h-.2.3v-.2q.2 0 .2-.3h.1v-.2h.1l.1.1v-.3l.2-.2h.1v.3l-.1.2-.1-.1v.3l-.3.3v.2l-.2.2-.4.5v.1l-.2.3h-.4l-.1.3h-.3l-.7.2h-4.1l-.2-.1h-.7q-.2-.1-.2 0l-.1-.1h-.2l-.3.1h-.6l-.6.1a3 3 0 0 1-1.5-.5l-.2-.2-.6-.4-1.2-1q0-.3-.3-.3zm15.8 4.8.2.6-.1.8v.6l.1.5v.8l-.2.7v1.2h-.2l.2.1-.1.3h-.2v.1l.1.2h-.1l.2.1h-.1v.2h-.1v.1q.1 0 0 .2l.1.2v.9-.2.2h-.2v.1h.1v.2h-.1v.5l-.2.2h.2l-.1.2-.1.2h.1v.1q0 .3-.2.4v.3l-.2.1v.7h-.1v.2l-.2.1v.4l-.3.4-.1.3v.2h-.1v.1h-.1q0 .2-.2.2 0 .3-.2.5h-.1v.2h-.3q0-.2 0 0 .1 0 0 .2v-.1.3h-.2.1l-.1.1-.1.2v.2h-.2v.1h-.1q0 .1 0 0v.2h-.2v-.1h-.2l.1.2h-.2l.1.1v.1l-.2-.1h.1-.1v.1h.1v.1h-.2q.1 0 0 0h-.2v.2h-.1l.1-.1v-.2h-.1v.3h-.1l-.2.1v.1h.1l-.1.1-.1-.1-.2.1-.2.2h-.2v.2-.1h-.2l-.2.2v-.2h.1v-.1h.1l.1-.2v.1-.1l.2-.1.2-.2.2-.2.2-.1.4-.4h.1v-.1l.1-.2.3-.2v-.2l.3-.1.3-.6.4-.6h.1v-.1l.1-.2.2-.3q.1 0 0-.1 0-.2.3-.4h-.1l.1-.3h.1l.2-.5.2-.8.1-.2v-.1l.1-.3.1-.3h.1v-.8l.1-.2.1-.1v-.5q0-1 .2-1.8l.3-1.6.1-.3v-.7l.1-1.4zm-1.4-50h.5l.5-.2h.2l1-.2h.4l.5-.2.8-.2h.4l.2-.1h.3l.2-.1 1-.2h.9l.1-.1.3-.1h1.1l.2-.1h1.7v.1h.6v.1h-.1.1l.2.1v.1h.2l.1.1h.2l.2.3.2.1v.2h.1l.2.2v.1h.1v.1h.1l.2.5.1.3v.4h.2v.4l.1.1v.2h.1v.2l.2.3.2.4v.1l.2.2v.1h.1v.1l.2.1q0 .1 0 0l.1.3q.3 0 .5.3l.2.1h.1l-.1.2h.3-.1.3v.2-.1q.2 0 0 0l.2.1h.3v.1h.2-.1v.1h.3l.2.1h-.1v.2h.1l.1-.2.2.1q.1 0 0 0h.4-.1.1l.1.1h.3-.3v.1h.6l.1-.1v.1h.5v-.2h.5v.1h.1l.2-.1h.1v.1h-.2l-.1.1h-.4.1l-.1-.1-.2.2h-.4l-.3.1h-1.2v-.1h-.5l-.3-.1h-.3l-.2-.2-.9-.3-.7-.6q0-.2-.1-.1l-.1-.2-.2-.1-.2-.3v-.1l-.3-.5q0-.3-.2-.4l-.2-.7-.4-.9-.2-.3-.2-.3-.2-.3-.9-.4-.1-.2h-.2q-.2-.2-.3-.1h-.4q-1.2-.2-2.2 0-1.1 0-2.2.3h-.5l-.8.2h-.1l-2.1.4h-.6l-.1.1h-.3q-.1.2-.4.2h-.5l-.4-.2zm17.9 4.9h.2zm-1-.2h-.2zm2.5.4"/><path fill="#f5beb1" d="m182.3 113.6.8.5.5.3.5.4h.3v.2h.4v.1l.7.3h.5l.1.1h.2l.9.2h.3v.1h.4v.1h.3l.3.1h.2l.2.1v.1h.4v.1h.2l.2.1q.1.1.2 0l.1.1.2.1.3.2v.1h.1l.3.3h.1v.1c.1 0-.2-.2 0-.1l.2.2.1.1v.1h.2v.2l.2.2.1.1v.2h.2l.1.2.1.1h.1l.1.1.4.4h.2v.1h.2v.1l.1.1h.3v.1h.7v.2h1.1v.1h2.2v.1h.1v.2q.2 0 0 0l.3-.2h-.1 1.6v-.1h.2v.1h.1v-.1h.3v-.1.1h.2v-.1l.1-.1h.1l-.1.1h.2l.2-.2-.1.2h-.1.1l.2-.2.3-.1v-.2l.1.1.2-.3.2-.3.1-.1v.2h-.1v-.2.3l.1-.1v-.1.2l-.3.4-.2.3-.4.2-.3.2-.5.1-.1.1-.4.1h-4.9l-.5-.1-.8-.2-1-.6-.4-.2v-.1l-.3-.3-.3-.3h.1v-.2h-.1l-.7-.6c-.1-.2.1 0 0-.2h-.1v-.1h-.1l-.2-.2-.4-.2-1.7-.7-1.8-.4h-.3l-.7-.2h-.1l-1.7-.9-.5-.3-1.3-.8zm20.2 12.9.3.2h1.6l.4-.3.5-.3v-.1l.2-.2h.1v-.2h.2v-.1l.5-.7v-.2h.1v-.1l.1-.1v-.2h.1v-.3l.2-.2v-.3h.1v-.3h.1v-.2l.1-.2v-.4l.2-.2q0-.2.2-.3v-.1l.1-.2v-.1h.2v-.1l.2-.2.1-.1h.2v-.1l.2-.1h.2v-.1l.5-.2h.2l.1-.1h.4-.1.3l.1-.1h.1l.2-.1h.1l.4-.2.4-.1.3-.1v-.1h.1l.1-.2h.3q0-.3.3-.5h.1l.1-.1v-.1h.1v.1h.1v-.3l.1-.2v.1-.1h.2v-.1l.1-.1v-.2h.1v-.2h.1v-.1l.1-.1.2.2.1-.1v-.3l.1-.1v-.2h.2v-.3h.1v.2-.3l.1.1.2-.3h-.2l.1-.1h.1l.1-.2v-.2l.2-.2v-.2h.2l.1-.2v-.1l.1.1v.2l-.2.1-.1.2v-.2.3l-.2.3-.1.3-.2.3-.3.5h-.1v.1l-.1.3-.2.3-.1.2-.2.2-.4.6-.7.6-.3.1v.1l-.4.2q-.2 0 0 0l-.5.2-.4.2-.6.1-.9.3h-.3q0 .3-.3.2l-.2.1h-.1q0 .1 0 0l-.4.6h-.1l-.1.1-.1.2-.1.3-.5 1.5q-.2.8-.8 1.5l-.2.2v.1l-.6.5q-.7.6-1.7.6h-1.1zl-.1-.3zm12.8-10.7"/><path fill="#f5beb1" d="m202.5 126.6.4.8.8.8h.2v.1h.1v.1h.1l.5.2h1.6l.2-.1.1-.1q.6-.1 1.1-.5h.1l.2-.1.1-.1.2-.1.2-.1v-.1l.3-.2.3-.3h.1l.3-.3h.1v.1h.1q0-.3.2-.3l.1-.2h.1l.2-.1.1-.2.2-.1.2-.2.3-.2.1-.1.4-.3v-.1h.2c0-.1-.2.2-.1 0l.2-.1h.1v-.1l.2-.1.1-.2h.3l.1-.2h.2v-.1l.3-.1.1-.1h.1v-.2l.4-.3.2-.2v-.1h.1v-.1h.1v-.3h.1v-.3l.1-.3.1-.1v-.4l.1-.5v-.3l.1-.1v-.3l.1-.2.1-.6v-.2h.1v-.1l.1.1h.1l-.1-.2v-.3h.1v-.2h.1v-.3l.1-.1v-.1h.1v-.3h.1v-.3h.1v-.4h.1v-.3.3h.1v-.6h-.1v-.1h.1v-.3l-.2-.3v-.2.1q.2 0 0 0h.1v.2l-.1-.1q0-.1 0 0v-.1h.1v.1-.2.1l.1.1v.4l.1.3v1.1l-.1-.1v.5l-.2.3v.2l-.1.2-.2.8-.2.7v1l-.2.4v.5l-.3.7-.7 1-.2.3h-.1l-.4.2-.3.2h-.1v.1l-.9.6h-.1v.1h-.2v.1l-.3.2-.3.3-1.7 1.5q-1 .7-2.1 1.2l-.4.1-.1.1-1 .2h-.1a3 3 0 0 1-2-.8l-.5-.4q-.4-.6-.6-1.4-.1-.1 0 .1m6.5.4"/></svg>