<svg xmlns="http://www.w3.org/2000/svg" width="1440" height="960" viewBox="0 0 1440 960" role="img" aria-label="Soft floral wedding invitation frame">
  <rect width="1440" height="960" fill="#fff7ee"/>
  <g opacity=".22">
    <path d="M0 0h1440v960H0z" fill="#f4e6d8"/>
    <path d="M0 0h1440v960H0z" fill="none" stroke="#b99255" stroke-width="2"/>
  </g>
  <g transform="translate(50 42) rotate(-12)" fill="none" stroke-linecap="round" stroke-linejoin="round">
    <path d="M50 210C94 132 156 78 252 36" stroke="#51614d" stroke-width="10"/>
    <path d="M92 154c-34-38-26-78 28-120 42 44 34 88-28 120z" fill="#79866a" stroke="#51614d" stroke-width="4"/>
    <path d="M160 96c-16-48 8-84 72-108 24 56-4 94-72 108z" fill="#8ea082" stroke="#51614d" stroke-width="4"/>
    <circle cx="250" cy="42" r="58" fill="#c98683" stroke="#9f5f59" stroke-width="5"/>
    <circle cx="220" cy="60" r="42" fill="#e5b2ab" stroke="#9f5f59" stroke-width="4"/>
    <circle cx="286" cy="82" r="36" fill="#b87571" stroke="#9f5f59" stroke-width="4"/>
    <circle cx="266" cy="38" r="22" fill="#fff9f0" stroke="#b99255" stroke-width="3"/>
  </g>
  <g transform="translate(1388 918) rotate(168)" fill="none" stroke-linecap="round" stroke-linejoin="round">
    <path d="M50 210C94 132 156 78 252 36" stroke="#51614d" stroke-width="10"/>
    <path d="M92 154c-34-38-26-78 28-120 42 44 34 88-28 120z" fill="#79866a" stroke="#51614d" stroke-width="4"/>
    <path d="M160 96c-16-48 8-84 72-108 24 56-4 94-72 108z" fill="#8ea082" stroke="#51614d" stroke-width="4"/>
    <circle cx="250" cy="42" r="58" fill="#c98683" stroke="#9f5f59" stroke-width="5"/>
    <circle cx="220" cy="60" r="42" fill="#e5b2ab" stroke="#9f5f59" stroke-width="4"/>
    <circle cx="286" cy="82" r="36" fill="#b87571" stroke="#9f5f59" stroke-width="4"/>
    <circle cx="266" cy="38" r="22" fill="#fff9f0" stroke="#b99255" stroke-width="3"/>
  </g>
  <g transform="translate(1190 54) rotate(24)" fill="none" stroke-linecap="round" stroke-linejoin="round" opacity=".82">
    <path d="M0 172C40 104 98 54 180 12" stroke="#51614d" stroke-width="8"/>
    <ellipse cx="84" cy="76" rx="24" ry="56" fill="#79866a" stroke="#51614d" stroke-width="4" transform="rotate(48 84 76)"/>
    <ellipse cx="146" cy="38" rx="22" ry="50" fill="#8ea082" stroke="#51614d" stroke-width="4" transform="rotate(68 146 38)"/>
    <circle cx="190" cy="28" r="38" fill="#e5b2ab" stroke="#9f5f59" stroke-width="4"/>
    <circle cx="224" cy="64" r="32" fill="#c98683" stroke="#9f5f59" stroke-width="4"/>
  </g>
  <g transform="translate(180 906) rotate(204)" fill="none" stroke-linecap="round" stroke-linejoin="round" opacity=".82">
    <path d="M0 172C40 104 98 54 180 12" stroke="#51614d" stroke-width="8"/>
    <ellipse cx="84" cy="76" rx="24" ry="56" fill="#79866a" stroke="#51614d" stroke-width="4" transform="rotate(48 84 76)"/>
    <ellipse cx="146" cy="38" rx="22" ry="50" fill="#8ea082" stroke="#51614d" stroke-width="4" transform="rotate(68 146 38)"/>
    <circle cx="190" cy="28" r="38" fill="#e5b2ab" stroke="#9f5f59" stroke-width="4"/>
    <circle cx="224" cy="64" r="32" fill="#c98683" stroke="#9f5f59" stroke-width="4"/>
  </g>
</svg>
